<svg width="297" height="297" viewBox="0 0 297 297" fill="none" xmlns="http://www.w3.org/2000/svg">
<path d="M280.214 39.211H16.786C7.531 39.211 0 46.742 0 55.997V80.332C0 89.588 7.531 97.119 16.786 97.119H280.214C289.469 97.119 297 89.588 297 80.332V55.997C297 46.742 289.469 39.211 280.214 39.211Z" fill="white"/>
<path d="M280.214 119.546H16.786C7.531 119.546 0 127.077 0 136.332V160.668C0 169.923 7.531 177.454 16.786 177.454H280.214C289.469 177.454 297 169.923 297 160.668V136.332C297 127.077 289.469 119.546 280.214 119.546Z" fill="white"/>
<path d="M280.214 199.881H16.786C7.531 199.881 0 207.411 0 216.668V241.003C0 250.258 7.531 257.789 16.786 257.789H280.214C289.469 257.789 297 250.258 297 241.003V216.668C297 207.411 289.469 199.881 280.214 199.881Z" fill="white"/>
</svg>
