<svg width="56" height="56" viewBox="0 0 56 56" fill="none" xmlns="http://www.w3.org/2000/svg">
<g clip-path="url(#clip0_2_1706)">
<path d="M28 0C12.517 0 0 12.517 0 28C0 43.483 12.517 56 28 56C43.483 56 56 43.4945 56 28C56 12.5055 43.4945 0 28 0ZM30.382 51.236V50.045C30.382 48.7395 29.3055 47.663 28 47.663C26.6945 47.663 25.618 48.7395 25.618 50.045V51.236C14.647 50.1137 5.8863 41.353 4.77546 30.3935H5.84049C7.14601 30.3935 8.2225 29.317 8.2225 28.0115C8.2225 26.7059 7.14601 25.6294 5.84049 25.6294H4.77546C5.89775 14.6585 14.6585 5.89775 25.618 4.78691V5.84049C25.618 7.14601 26.6945 8.2225 28 8.2225C29.3055 8.2225 30.382 7.14601 30.382 5.84049V4.77546C41.353 5.89775 50.1137 14.6585 51.2245 25.618H50.045C48.7395 25.618 47.663 26.6945 47.663 28C47.663 29.3055 48.7395 30.382 50.045 30.382H51.236C50.1137 41.353 41.353 50.1137 30.382 51.236Z" fill="white"/>
<path d="M28 14.3035C26.6945 14.3035 25.618 15.3799 25.618 16.6855V27.164L14.773 40.517C13.9371 41.5934 14.1775 43.0135 15.1281 43.8495C16.4565 44.8229 17.8651 44.09 18.346 43.4945L29.9125 29.4315C30.153 29.0765 30.3935 28.5955 30.3935 28V16.6855C30.382 15.3685 29.317 14.3035 28 14.3035Z" fill="white"/>
</g>
<defs>
<clipPath id="clip0_2_1706">
<rect width="56" height="56" fill="white"/>
</clipPath>
</defs>
</svg>
