<svg width="314" height="277" viewBox="0 0 314 277" fill="none" xmlns="http://www.w3.org/2000/svg">
<path d="M173.372 228.363L222.273 242.461ZM225.92 55.2001L274.821 69.2982ZM181.022 211.927L229.923 226.025ZM184.921 191.479L233.823 205.577ZM192.185 172.972L241.087 187.071ZM196.085 152.524L244.986 166.622ZM204.254 134.277L253.155 148.375ZM208.154 113.828L257.055 127.926ZM215.418 95.322L264.319 109.42ZM219.317 74.8738L268.219 88.9719ZM219.317 74.8738L268.219 88.9719ZM280.543 54.2105L221.766 249.116ZM230.038 38.7852L171.26 233.694ZM230.037 38.7891L171.26 233.694Z" fill="black"/>
<path d="M173.372 228.363L222.273 242.461M225.92 55.2001L274.821 69.2982M181.022 211.927L229.923 226.025M184.921 191.479L233.823 205.577M192.185 172.972L241.087 187.071M196.085 152.524L244.986 166.622M204.254 134.277L253.155 148.375M208.154 113.828L257.055 127.926M215.418 95.322L264.319 109.42M219.317 74.8738L268.219 88.9719M219.317 74.8738L268.219 88.9719M280.543 54.2105L221.766 249.116M230.038 38.7852L171.26 233.694M230.037 38.7891L171.26 233.694" stroke="#9F9F9F" stroke-width="7.0857" stroke-linecap="square"/>
<path d="M115.94 157.8C115.94 157.8 110.36 151.8 101.96 151.8C89.96 151.8 82.76 158.7 81.62 165.3C79.04 180 98.24 178.02 97.46 182.7C97.28 183.6 95.84 185.1 92.54 185.1C88.34 185.1 82.64 180 82.64 180L74.42 189C74.42 189 80.36 196.2 90.32 196.2C103.16 196.2 111.02 189.18 112.22 182.1C114.62 168.6 95.24 169.8 96.02 165.3C96.2 164.1 97.64 162.9 100.04 162.9C104.24 162.9 108.26 167.1 108.26 167.1L115.94 157.8ZM114.221 179.4C112.541 189 119.081 196.2 128.081 196.2C139.481 196.2 146.261 188.4 147.641 180.6C149.021 172.8 144.581 163.8 133.781 163.8C123.581 163.8 115.961 169.8 114.221 179.4ZM132.101 173.4C135.701 173.4 136.241 177 135.641 180.6C135.221 183 133.361 186.6 129.761 186.6C125.561 186.6 125.801 181.8 126.221 179.4C126.581 177.6 127.901 173.4 132.101 173.4ZM183.752 180C185.792 168.3 181.952 164.4 173.852 164.4C169.952 164.4 165.932 166.8 165.932 166.8H165.332L164.852 164.4L154.292 165L149.792 195.6L162.212 195L165.212 176.1C165.212 176.1 167.852 174.9 169.652 174.9C171.752 174.9 172.172 177.6 171.752 180L169.052 195.18C169.052 195.24 181.112 195 181.112 195L183.752 180ZM217.052 168C217.052 168 211.772 163.8 204.572 163.8C194.972 163.8 189.512 169.2 188.732 173.7C186.752 184.8 200.612 183 200.132 185.7C199.952 186.6 198.632 187.2 196.232 187.2C193.232 187.2 189.572 184.2 189.572 184.2L184.112 191.4C184.112 191.4 188.672 196.2 197.672 196.2C207.272 196.2 213.332 190.8 214.172 186C215.972 175.8 201.632 177 202.112 174.3C202.292 173.4 203.612 172.8 205.412 172.8C208.412 172.8 211.592 175.2 211.592 175.2L217.052 168Z" fill="white"/>
<path d="M115.94 157.8L117.482 159.074L118.598 157.722L117.405 156.438L115.94 157.8ZM81.62 165.3L83.5899 165.646L83.5908 165.64L81.62 165.3ZM97.46 182.7L99.4212 183.092L99.4275 183.061L99.4328 183.029L97.46 182.7ZM82.64 180L83.9736 178.51L82.4983 177.19L81.1632 178.651L82.64 180ZM74.42 189L72.9432 187.651L71.7722 188.933L72.8773 190.273L74.42 189ZM112.22 182.1L110.251 181.75L110.249 181.758L110.248 181.766L112.22 182.1ZM96.02 165.3L97.9906 165.642L97.9945 165.619L97.9979 165.597L96.02 165.3ZM108.26 167.1L106.815 168.483L108.37 170.108L109.802 168.374L108.26 167.1ZM115.94 157.8C117.405 156.438 117.404 156.437 117.403 156.437C117.403 156.437 117.403 156.436 117.402 156.436C117.401 156.435 117.401 156.434 117.4 156.433C117.397 156.43 117.395 156.428 117.392 156.425C117.387 156.419 117.38 156.412 117.372 156.403C117.355 156.386 117.333 156.363 117.306 156.335C117.251 156.279 117.175 156.202 117.077 156.107C116.882 155.918 116.601 155.656 116.241 155.346C115.521 154.727 114.475 153.911 113.146 153.095C110.497 151.47 106.641 149.8 101.96 149.8V153.8C105.679 153.8 108.813 155.13 111.054 156.505C112.17 157.189 113.044 157.873 113.633 158.379C113.927 158.632 114.148 158.839 114.291 158.977C114.362 159.046 114.413 159.098 114.444 159.13C114.46 159.146 114.47 159.157 114.476 159.162C114.478 159.165 114.479 159.166 114.479 159.166C114.479 159.166 114.479 159.166 114.478 159.165C114.478 159.165 114.478 159.164 114.477 159.164C114.477 159.164 114.477 159.163 114.476 159.163C114.476 159.163 114.475 159.162 115.94 157.8ZM101.96 149.8C89.212 149.8 80.9904 157.194 79.6492 164.96L83.5908 165.64C84.5296 160.205 90.708 153.8 101.96 153.8V149.8ZM79.6501 164.954C78.9256 169.082 79.7094 172.284 81.5001 174.74C83.2331 177.117 85.749 178.571 88.0594 179.588C89.2264 180.102 90.3951 180.526 91.4397 180.898C92.514 181.281 93.4135 181.593 94.1681 181.914C94.9503 182.247 95.3478 182.498 95.521 182.663C95.6051 182.742 95.4507 182.591 95.4872 182.371L99.4328 183.029C99.6643 181.639 99.0805 180.526 98.274 179.761C97.5566 179.08 96.6022 178.603 95.7344 178.234C94.839 177.853 93.7904 177.489 92.7816 177.13C91.743 176.76 90.6936 176.377 89.6706 175.927C87.601 175.016 85.8494 173.916 84.7324 172.384C83.6731 170.931 83.0244 168.868 83.5899 165.646L79.6501 164.954ZM95.4988 182.308C95.5506 182.049 95.6077 182.236 95.1245 182.533C94.6972 182.795 93.8887 183.1 92.54 183.1V187.1C96.2845 187.1 98.9698 185.349 99.4212 183.092L95.4988 182.308ZM92.54 183.1C91.8657 183.1 91.0033 182.887 90.0035 182.462C89.0226 182.046 88.0239 181.474 87.1095 180.876C86.2002 180.282 85.4081 179.683 84.8427 179.233C84.561 179.008 84.3383 178.823 84.1884 178.695C84.1135 178.632 84.057 178.583 84.0206 178.551C84.0024 178.535 83.9892 178.523 83.9813 178.516C83.9773 178.513 83.9747 178.511 83.9734 178.509C83.9728 178.509 83.9725 178.509 83.9725 178.509C83.9725 178.509 83.9726 178.509 83.9728 178.509C83.9729 178.509 83.9731 178.509 83.9731 178.509C83.9733 178.509 83.9736 178.51 82.64 180C81.3064 181.49 81.3067 181.491 81.307 181.491C81.3071 181.491 81.3075 181.491 81.3077 181.492C81.3083 181.492 81.3089 181.493 81.3096 181.493C81.311 181.495 81.3128 181.496 81.3149 181.498C81.3191 181.502 81.3247 181.507 81.3317 181.513C81.3456 181.525 81.3649 181.542 81.3895 181.564C81.4386 181.607 81.5087 181.667 81.5978 181.743C81.7761 181.895 82.0315 182.107 82.3498 182.361C82.9844 182.867 83.8798 183.543 84.9205 184.224C85.9561 184.901 87.1699 185.604 88.439 186.144C89.6892 186.675 91.1143 187.1 92.54 187.1V183.1ZM81.1632 178.651L72.9432 187.651L75.8968 190.349L84.1168 181.349L81.1632 178.651ZM74.42 189C72.8773 190.273 72.8778 190.273 72.8783 190.274C72.8786 190.274 72.8791 190.275 72.8796 190.276C72.8804 190.277 72.8814 190.278 72.8825 190.279C72.8846 190.282 72.887 190.285 72.8899 190.288C72.8956 190.295 72.9028 190.303 72.9114 190.314C72.9288 190.334 72.952 190.361 72.9811 190.395C73.0393 190.461 73.1209 190.553 73.2256 190.667C73.4349 190.893 73.737 191.206 74.1283 191.577C74.9094 192.317 76.0543 193.294 77.5341 194.27C80.4901 196.219 84.8433 198.2 90.32 198.2V194.2C85.8367 194.2 82.2399 192.581 79.7359 190.93C78.4857 190.106 77.5231 189.283 76.8792 188.673C76.558 188.369 76.3182 188.119 76.1638 187.952C76.0866 187.869 76.0309 187.806 75.9972 187.767C75.9803 187.748 75.969 187.735 75.9632 187.728C75.9604 187.724 75.9589 187.723 75.9588 187.722C75.9587 187.722 75.9591 187.723 75.9597 187.724C75.96 187.724 75.9605 187.724 75.961 187.725C75.9612 187.725 75.9617 187.726 75.9618 187.726C75.9623 187.727 75.9627 187.727 74.42 189ZM90.32 198.2C103.827 198.2 112.782 190.751 114.192 182.434L110.248 181.766C109.258 187.609 102.493 194.2 90.32 194.2V198.2ZM114.189 182.45C114.881 178.556 114.009 175.511 112.161 173.172C110.387 170.928 107.851 169.511 105.531 168.493C104.356 167.978 103.178 167.542 102.124 167.156C101.043 166.76 100.127 166.428 99.362 166.093C98.5687 165.746 98.1503 165.482 97.9616 165.304C97.8481 165.197 98.0394 165.36 97.9906 165.642L94.0494 164.958C93.8056 166.365 94.4319 167.475 95.2196 168.216C95.932 168.887 96.881 169.373 97.7573 169.757C98.6623 170.153 99.7182 170.534 100.748 170.911C101.804 171.299 102.876 171.697 103.924 172.157C106.052 173.089 107.862 174.184 109.023 175.653C110.108 177.026 110.759 178.894 110.251 181.75L114.189 182.45ZM97.9979 165.597C97.9853 165.68 97.9758 165.532 98.2984 165.32C98.6048 165.118 99.1678 164.9 100.04 164.9V160.9C97.1328 160.9 94.4307 162.413 94.0421 165.003L97.9979 165.597ZM100.04 164.9C101.53 164.9 103.172 165.674 104.593 166.649C105.273 167.116 105.841 167.585 106.237 167.938C106.434 168.113 106.586 168.257 106.685 168.354C106.735 168.402 106.771 168.438 106.793 168.46C106.804 168.471 106.811 168.479 106.815 168.483C106.817 168.485 106.818 168.486 106.818 168.486C106.818 168.486 106.818 168.486 106.817 168.485C106.817 168.485 106.817 168.485 106.816 168.484C106.816 168.484 106.816 168.484 106.816 168.484C106.816 168.483 106.815 168.483 108.26 167.1C109.705 165.717 109.704 165.717 109.704 165.716C109.704 165.716 109.704 165.716 109.703 165.715C109.703 165.715 109.702 165.714 109.701 165.713C109.7 165.712 109.698 165.71 109.696 165.708C109.692 165.704 109.687 165.699 109.682 165.693C109.67 165.681 109.654 165.665 109.635 165.645C109.596 165.606 109.542 165.552 109.473 165.486C109.336 165.352 109.141 165.168 108.896 164.95C108.407 164.515 107.707 163.934 106.857 163.351C105.218 162.226 102.75 160.9 100.04 160.9V164.9ZM109.802 168.374L117.482 159.074L114.398 156.526L106.718 165.826L109.802 168.374ZM114.221 179.4L112.253 179.043L112.251 179.055L114.221 179.4ZM147.641 180.6L145.672 180.252L147.641 180.6ZM135.641 180.6L137.611 180.945L137.613 180.937L137.614 180.929L135.641 180.6ZM126.221 179.4L124.26 179.008L124.255 179.031L124.251 179.055L126.221 179.4ZM112.251 179.055C111.316 184.396 112.658 189.208 115.622 192.695C118.579 196.174 123.037 198.2 128.081 198.2V194.2C124.126 194.2 120.813 192.626 118.67 190.105C116.534 187.592 115.446 184.004 116.191 179.745L112.251 179.055ZM128.081 198.2C140.549 198.2 148.079 189.604 149.611 180.948L145.672 180.252C144.443 187.196 138.413 194.2 128.081 194.2V198.2ZM149.611 180.948C150.382 176.586 149.543 171.83 146.91 168.118C144.231 164.341 139.8 161.8 133.781 161.8V165.8C138.562 165.8 141.751 167.759 143.647 170.432C145.589 173.17 146.28 176.814 145.672 180.252L149.611 180.948ZM133.781 161.8C122.7 161.8 114.18 168.41 112.253 179.043L116.189 179.757C117.742 171.19 124.463 165.8 133.781 165.8V161.8ZM132.101 175.4C132.656 175.4 132.938 175.533 133.09 175.642C133.25 175.758 133.427 175.963 133.575 176.357C133.9 177.217 133.947 178.599 133.668 180.271L137.614 180.929C137.935 179.001 138.012 176.783 137.317 174.943C136.956 173.987 136.36 173.067 135.425 172.395C134.482 171.717 133.346 171.4 132.101 171.4V175.4ZM133.671 180.255C133.509 181.179 133.058 182.351 132.337 183.245C131.644 184.103 130.807 184.6 129.761 184.6V188.6C132.315 188.6 134.208 187.297 135.451 185.755C136.665 184.249 137.353 182.421 137.611 180.945L133.671 180.255ZM129.761 184.6C129.117 184.6 128.833 184.428 128.688 184.302C128.513 184.151 128.325 183.871 128.187 183.37C127.895 182.306 127.995 180.863 128.191 179.745L124.251 179.055C124.027 180.336 123.798 182.494 124.33 184.43C124.605 185.429 125.117 186.499 126.066 187.323C127.045 188.172 128.305 188.6 129.761 188.6V184.6ZM128.182 179.792C128.338 179.014 128.686 177.826 129.355 176.878C129.975 176 130.799 175.4 132.101 175.4V171.4C129.203 171.4 127.267 172.9 126.087 174.572C124.956 176.174 124.464 177.986 124.26 179.008L128.182 179.792ZM183.752 180L185.721 180.347L185.722 180.344L183.752 180ZM165.932 166.8V168.8H166.483L166.957 168.517L165.932 166.8ZM165.332 166.8L163.371 167.192L163.692 168.8H165.332V166.8ZM164.852 164.4L166.813 164.008L166.472 162.305L164.738 162.403L164.852 164.4ZM154.292 165L154.178 163.003L152.55 163.096L152.313 164.709L154.292 165ZM149.792 195.6L147.813 195.309L147.459 197.715L149.888 197.598L149.792 195.6ZM162.212 195L162.308 196.998L163.932 196.919L164.187 195.314L162.212 195ZM165.212 176.1L164.384 174.279L163.405 174.724L163.236 175.786L165.212 176.1ZM171.752 180L173.721 180.35L173.722 180.345L171.752 180ZM169.052 195.18L167.083 194.83L167.052 195.004V195.18H169.052ZM181.112 195L181.152 197L182.796 196.967L183.081 195.347L181.112 195ZM185.722 180.344C186.764 174.366 186.435 169.777 184.239 166.661C181.963 163.43 178.148 162.4 173.852 162.4V166.4C177.655 166.4 179.811 167.32 180.969 168.964C182.209 170.723 182.779 173.934 181.781 179.656L185.722 180.344ZM173.852 162.4C171.533 162.4 169.279 163.103 167.683 163.744C166.869 164.072 166.188 164.399 165.707 164.646C165.465 164.77 165.273 164.875 165.137 164.951C165.069 164.989 165.015 165.019 164.977 165.042C164.957 165.053 164.942 165.062 164.93 165.069C164.924 165.072 164.919 165.075 164.915 165.078C164.913 165.079 164.912 165.08 164.91 165.081C164.909 165.081 164.909 165.081 164.908 165.082C164.908 165.082 164.907 165.082 164.907 165.082C164.907 165.083 164.906 165.083 165.932 166.8C166.957 168.517 166.957 168.517 166.956 168.518C166.956 168.518 166.956 168.518 166.956 168.518C166.955 168.518 166.955 168.518 166.955 168.519C166.954 168.519 166.954 168.519 166.954 168.519C166.954 168.519 166.955 168.518 166.957 168.517C166.961 168.515 166.968 168.511 166.979 168.504C167.001 168.492 167.037 168.471 167.087 168.443C167.186 168.388 167.338 168.305 167.535 168.204C167.93 168.001 168.497 167.728 169.175 167.456C170.565 166.897 172.27 166.4 173.852 166.4V162.4ZM165.932 164.8H165.332V168.8H165.932V164.8ZM167.293 166.408L166.813 164.008L162.891 164.792L163.371 167.192L167.293 166.408ZM164.738 162.403L154.178 163.003L154.405 166.997L164.965 166.397L164.738 162.403ZM152.313 164.709L147.813 195.309L151.77 195.891L156.27 165.291L152.313 164.709ZM149.888 197.598L162.308 196.998L162.115 193.002L149.695 193.602L149.888 197.598ZM164.187 195.314L167.187 176.414L163.236 175.786L160.236 194.686L164.187 195.314ZM165.212 176.1C166.039 177.921 166.039 177.921 166.039 177.921C166.039 177.921 166.039 177.921 166.039 177.921C166.038 177.921 166.038 177.921 166.038 177.921C166.038 177.921 166.038 177.922 166.038 177.922C166.038 177.922 166.038 177.921 166.039 177.921C166.042 177.92 166.047 177.917 166.054 177.914C166.069 177.908 166.092 177.897 166.124 177.883C166.188 177.856 166.285 177.814 166.408 177.764C166.656 177.663 167.003 177.528 167.399 177.394C168.25 177.106 169.099 176.9 169.652 176.9V172.9C168.405 172.9 167.033 173.294 166.115 173.606C165.625 173.772 165.2 173.937 164.897 174.061C164.744 174.123 164.621 174.175 164.533 174.213C164.49 174.232 164.455 174.248 164.43 174.259C164.417 174.264 164.407 174.269 164.399 174.272C164.395 174.274 164.392 174.276 164.39 174.277C164.388 174.277 164.387 174.278 164.386 174.278C164.386 174.278 164.386 174.279 164.385 174.279C164.385 174.279 164.385 174.279 164.385 174.279C164.384 174.279 164.384 174.279 165.212 176.1ZM169.652 176.9C169.709 176.9 169.652 176.903 169.599 176.857C169.581 176.841 169.659 176.903 169.744 177.165C169.922 177.718 169.96 178.635 169.782 179.655L173.722 180.345C173.963 178.965 174.001 177.332 173.55 175.935C173.319 175.222 172.924 174.459 172.251 173.862C171.542 173.234 170.645 172.9 169.652 172.9V176.9ZM169.783 179.65L167.083 194.83L171.021 195.53L173.721 180.35L169.783 179.65ZM167.052 195.18C167.052 196.301 167.901 196.821 168.005 196.885C168.228 197.022 168.426 197.081 168.486 197.099C168.637 197.144 168.761 197.16 168.789 197.164C168.876 197.176 168.949 197.18 168.972 197.181C169.036 197.185 169.102 197.187 169.152 197.188C169.261 197.189 169.407 197.19 169.575 197.189C169.915 197.189 170.394 197.184 170.961 197.177C172.097 197.163 173.608 197.138 175.117 197.112C176.626 197.086 178.134 197.058 179.265 197.036C179.831 197.025 180.303 197.016 180.633 197.01C180.798 197.007 180.927 197.004 181.016 197.002C181.06 197.001 181.094 197.001 181.117 197C181.128 197 181.137 197 181.143 197C181.146 197 181.148 197 181.149 197C181.15 197 181.151 197 181.151 197C181.151 197 181.151 197 181.151 197C181.151 197 181.152 197 181.112 195C181.072 193 181.072 193 181.072 193C181.072 193 181.072 193 181.071 193C181.071 193 181.07 193 181.07 193C181.068 193 181.066 193.001 181.063 193.001C181.057 193.001 181.049 193.001 181.037 193.001C181.015 193.002 180.981 193.002 180.937 193.003C180.849 193.005 180.719 193.007 180.554 193.011C180.225 193.017 179.754 193.026 179.189 193.037C178.059 193.058 176.553 193.087 175.047 193.113C173.54 193.139 172.037 193.163 170.911 193.177C170.347 193.184 169.884 193.189 169.565 193.189C169.403 193.19 169.29 193.189 169.222 193.188C169.184 193.188 169.182 193.187 169.201 193.188C169.201 193.188 169.257 193.191 169.332 193.201C169.355 193.204 169.474 193.22 169.622 193.264C169.681 193.281 169.877 193.34 170.099 193.477C170.202 193.54 171.052 194.059 171.052 195.18H167.052ZM183.081 195.347L185.721 180.347L181.782 179.653L179.142 194.653L183.081 195.347ZM217.052 168L218.645 169.208L219.826 167.651L218.297 166.435L217.052 168ZM188.732 173.7L190.701 174.051L190.702 174.042L188.732 173.7ZM200.132 185.7L202.093 186.092L202.097 186.071L202.101 186.05L200.132 185.7ZM189.572 184.2L190.84 182.653L189.233 181.336L187.978 182.992L189.572 184.2ZM184.112 191.4L182.518 190.192L181.491 191.546L182.662 192.777L184.112 191.4ZM214.172 186L212.202 185.652L212.202 185.655L214.172 186ZM202.112 174.3L200.151 173.908L200.146 173.929L200.143 173.95L202.112 174.3ZM211.592 175.2L210.387 176.796L211.98 177.998L213.185 176.408L211.592 175.2ZM217.052 168C218.297 166.435 218.296 166.434 218.296 166.434C218.295 166.434 218.295 166.433 218.294 166.433C218.294 166.432 218.293 166.432 218.292 166.431C218.29 166.429 218.287 166.427 218.285 166.425C218.279 166.421 218.273 166.416 218.265 166.41C218.249 166.397 218.228 166.381 218.202 166.361C218.149 166.321 218.077 166.267 217.985 166.2C217.8 166.067 217.537 165.883 217.202 165.665C216.533 165.232 215.57 164.661 214.367 164.092C211.972 162.959 208.555 161.8 204.572 161.8V165.8C207.789 165.8 210.612 166.741 212.657 167.708C213.674 168.189 214.481 168.668 215.026 169.022C215.299 169.199 215.504 169.343 215.637 169.439C215.703 169.487 215.751 169.523 215.78 169.544C215.794 169.555 215.803 169.563 215.808 169.566C215.81 169.568 215.811 169.569 215.811 169.569C215.811 169.569 215.811 169.568 215.81 169.568C215.809 169.567 215.809 169.567 215.808 169.567C215.808 169.566 215.808 169.566 215.808 169.566C215.807 169.566 215.807 169.565 217.052 168ZM204.572 161.8C194.278 161.8 187.751 167.649 186.761 173.358L190.702 174.042C191.273 170.751 195.665 165.8 204.572 165.8V161.8ZM186.763 173.349C186.193 176.543 186.732 179.079 188.112 181.032C189.445 182.919 191.386 184.004 193.12 184.705C194.771 185.371 196.7 185.843 197.665 186.152C197.936 186.238 198.146 186.314 198.309 186.383C198.388 186.417 198.447 186.445 198.49 186.467C198.533 186.49 198.551 186.502 198.55 186.502C198.55 186.502 198.52 186.481 198.476 186.435C198.431 186.389 198.365 186.31 198.302 186.195C198.158 185.928 198.115 185.619 198.163 185.35L202.101 186.05C202.209 185.444 202.114 184.832 201.82 184.29C201.549 183.789 201.165 183.45 200.847 183.227C200.246 182.806 199.492 182.536 198.884 182.342C197.448 181.882 196.125 181.604 194.618 180.995C193.195 180.421 192.072 179.706 191.379 178.724C190.731 177.808 190.28 176.407 190.701 174.051L186.763 173.349ZM198.171 185.308C198.268 184.821 198.61 184.794 198.268 184.932C197.945 185.062 197.299 185.2 196.232 185.2V189.2C197.565 189.2 198.779 189.038 199.761 188.643C200.723 188.256 201.815 187.479 202.093 186.092L198.171 185.308ZM196.232 185.2C195.29 185.2 194.014 184.687 192.782 183.971C192.207 183.637 191.711 183.3 191.36 183.047C191.186 182.921 191.049 182.817 190.959 182.748C190.914 182.713 190.881 182.687 190.861 182.67C190.851 182.662 190.844 182.657 190.84 182.654C190.838 182.652 190.837 182.651 190.837 182.651C190.837 182.651 190.837 182.651 190.838 182.652C190.838 182.652 190.838 182.652 190.839 182.652C190.839 182.652 190.839 182.653 190.839 182.653C190.839 182.653 190.84 182.653 189.572 184.2C188.304 185.747 188.304 185.747 188.305 185.747C188.305 185.747 188.305 185.748 188.305 185.748C188.306 185.748 188.306 185.749 188.307 185.749C188.308 185.75 188.31 185.752 188.311 185.753C188.315 185.756 188.319 185.759 188.324 185.764C188.335 185.772 188.349 185.783 188.366 185.797C188.401 185.825 188.449 185.863 188.51 185.91C188.632 186.005 188.805 186.136 189.021 186.291C189.449 186.6 190.056 187.013 190.771 187.429C192.119 188.213 194.174 189.2 196.232 189.2V185.2ZM187.978 182.992L182.518 190.192L185.705 192.608L191.165 185.408L187.978 182.992ZM184.112 191.4C182.662 192.777 182.662 192.778 182.663 192.779C182.663 192.779 182.664 192.78 182.665 192.781C182.666 192.782 182.667 192.783 182.668 192.784C182.67 192.786 182.673 192.789 182.676 192.792C182.682 192.798 182.689 192.805 182.697 192.814C182.713 192.83 182.734 192.852 182.76 192.877C182.811 192.927 182.881 192.995 182.969 193.076C183.146 193.239 183.397 193.46 183.723 193.718C184.375 194.234 185.327 194.903 186.58 195.567C189.093 196.899 192.802 198.2 197.672 198.2V194.2C193.541 194.2 190.47 193.101 188.453 192.033C187.441 191.497 186.691 190.966 186.207 190.582C185.964 190.39 185.789 190.236 185.681 190.136C185.627 190.087 185.591 190.051 185.571 190.031C185.561 190.021 185.555 190.015 185.553 190.014C185.553 190.013 185.553 190.013 185.554 190.015C185.555 190.015 185.556 190.016 185.557 190.018C185.558 190.018 185.559 190.019 185.559 190.02C185.56 190.02 185.56 190.021 185.56 190.021C185.561 190.022 185.562 190.023 184.112 191.4ZM197.672 198.2C207.899 198.2 215.081 192.405 216.142 186.345L212.202 185.655C211.582 189.195 206.645 194.2 197.672 194.2V198.2ZM216.141 186.348C216.68 183.297 216.023 180.865 214.545 179.004C213.139 177.235 211.146 176.183 209.376 175.479C207.715 174.818 205.67 174.274 204.693 173.94C204.081 173.731 203.814 173.594 203.731 173.534C203.688 173.503 204.214 173.901 204.081 174.65L200.143 173.95C199.889 175.374 200.759 176.325 201.401 176.785C202.003 177.216 202.763 177.508 203.4 177.725C204.921 178.245 206.259 178.544 207.898 179.196C209.428 179.804 210.652 180.534 211.413 181.493C212.103 182.36 212.564 183.603 212.202 185.652L216.141 186.348ZM204.073 174.692C203.984 175.135 203.694 175.164 203.982 175.033C204.23 174.921 204.709 174.8 205.412 174.8V170.8C204.314 170.8 203.234 170.979 202.327 171.392C201.459 171.786 200.419 172.565 200.151 173.908L204.073 174.692ZM205.412 174.8C206.438 174.8 207.644 175.231 208.714 175.78C209.224 176.041 209.655 176.304 209.955 176.5C210.105 176.598 210.22 176.677 210.295 176.73C210.332 176.756 210.359 176.776 210.374 176.787C210.382 176.793 210.387 176.797 210.389 176.798C210.39 176.799 210.391 176.799 210.39 176.799C210.39 176.799 210.39 176.799 210.389 176.798C210.389 176.798 210.389 176.798 210.388 176.797C210.388 176.797 210.388 176.797 210.388 176.797C210.387 176.797 210.387 176.796 211.592 175.2C212.797 173.604 212.796 173.603 212.796 173.603C212.796 173.603 212.795 173.603 212.795 173.602C212.794 173.602 212.794 173.602 212.793 173.601C212.792 173.6 212.79 173.599 212.788 173.598C212.785 173.595 212.781 173.592 212.776 173.588C212.766 173.581 212.752 173.571 212.736 173.559C212.704 173.535 212.66 173.503 212.604 173.464C212.493 173.385 212.336 173.277 212.141 173.15C211.751 172.896 211.199 172.559 210.539 172.22C209.27 171.569 207.385 170.8 205.412 170.8V174.8ZM213.185 176.408L218.645 169.208L215.458 166.792L209.998 173.992L213.185 176.408Z" fill="black"/>
<path d="M56.84 107.4C58.52 98.1 49.52 95.4 41.6 95.4C34.22 95.4 24.98 96 24.98 96L17.6 138C17.6 138 26.18 138.6 33.98 138.6C45.38 138.6 54.98 135 56.6 126C58.04 117.6 49.4 115.5 49.46 115.5L49.52 114.9C49.52 114.9 55.94 112.8 56.84 107.4ZM32.9 120.9H37.1C41.9 120.9 44.12 121.8 43.64 124.5C43.16 127.2 40.58 128.16 35.78 128.16H31.58L32.9 120.9ZM35.66 105.3H39.86C43.16 105.3 44.54 105.9 44.12 108.3C43.7 110.7 42.08 111.3 38.78 111.3H34.58L35.66 105.3ZM75.4142 107.4C66.1142 107.4 59.9942 115.2 58.4942 123.6C57.4142 129.6 60.5342 139.2 71.3342 139.2C74.9342 139.2 77.7542 136.8 77.7542 136.8H78.3542L78.5342 139.2L89.1542 138.6L94.2542 108L82.4342 106.8L81.7142 109.2H81.1142C81.1142 109.2 78.7142 107.4 75.4142 107.4ZM74.0342 129C71.0342 129 70.3142 126.3 70.9142 123C71.3342 120.6 73.0142 117.6 76.0142 117.6C78.7142 117.6 80.0342 118.8 80.0342 118.8L78.8342 127.2C78.8342 127.2 76.7342 129 74.0342 129ZM133.102 138H146.002L148.342 123C150.082 111.6 145.942 107.4 138.142 107.4C133.342 107.4 127.342 111 127.342 111C127.342 111 124.942 107.4 119.242 107.4C115.342 107.4 111.322 109.8 111.322 109.8H110.722L110.242 107.4L99.6823 108L94.8823 138.6L107.302 138L110.662 118.8C110.662 118.8 112.342 117 114.562 117C116.662 117 117.142 119.4 116.542 123L113.842 138.3L126.502 138L129.862 118.8C129.862 118.8 131.662 117 133.702 117C135.862 117 136.462 118.8 135.742 123L133.102 138ZM153.394 118.2H157.294L154.294 138.6L166.414 138L169.294 118.2H176.194L178.474 108.6H171.274L171.574 106.8C171.994 104.4 173.134 103.2 174.634 103.2C176.734 103.2 178.054 104.1 178.054 104.1L182.254 95.7C182.254 95.7 178.414 93.6 172.774 93.6C167.014 93.6 160.894 97.8 159.274 106.8L158.974 108.6H154.474L153.394 118.2ZM176.916 122.4C175.236 132 181.776 139.2 190.776 139.2C202.176 139.2 208.956 131.4 210.336 123.6C211.716 115.8 207.276 106.8 196.476 106.8C186.276 106.8 178.656 112.8 176.916 122.4ZM194.796 116.4C198.396 116.4 198.936 120 198.336 123.6C197.916 126 196.056 129.6 192.456 129.6C188.256 129.6 188.496 124.8 188.916 122.4C189.276 120.6 190.596 116.4 194.796 116.4ZM242.127 111.6C242.127 111.6 239.547 107.4 234.147 107.4C230.547 107.4 228.027 109.8 228.027 109.8H227.427L227.247 107.4L216.987 108L212.187 138.6L224.607 138L227.607 119.1C227.607 119.1 228.867 118.2 230.487 118.2C232.887 118.2 234.567 120.6 234.567 120.6L242.127 111.6ZM256.645 107.4C247.345 107.4 241.225 115.2 239.725 123.6C238.645 129.6 241.765 139.2 252.565 139.2C256.165 139.2 258.985 136.8 258.985 136.8H259.585L259.765 139.2L270.385 138.6L277.705 95.4L265.885 94.2L262.945 109.2H262.345C262.345 109.2 259.945 107.4 256.645 107.4ZM255.265 129C252.265 129 251.545 126.3 252.145 123C252.565 120.6 254.245 117.6 257.245 117.6C259.945 117.6 261.265 118.8 261.265 118.8L260.065 127.2C260.065 127.2 257.965 129 255.265 129Z" fill="white"/>
<path d="M56.84 107.4L54.8719 107.044L54.8694 107.058L54.8672 107.071L56.84 107.4ZM24.98 96L24.8504 94.0042L23.2822 94.106L23.0102 95.6539L24.98 96ZM17.6 138L15.6302 137.654L15.246 139.84L17.4605 139.995L17.6 138ZM56.6 126L58.5684 126.354L58.5698 126.346L58.5712 126.338L56.6 126ZM49.46 115.5V117.5H51.27L51.4501 115.699L49.46 115.5ZM49.52 114.9L48.8982 112.999L47.6596 113.404L47.5299 114.701L49.52 114.9ZM32.9 120.9V118.9H31.2308L30.9323 120.542L32.9 120.9ZM43.64 124.5L45.6091 124.85L45.6091 124.85L43.64 124.5ZM31.58 128.16L29.6123 127.802L29.1836 130.16H31.58V128.16ZM35.66 105.3V103.3H33.9879L33.6916 104.946L35.66 105.3ZM44.12 108.3L42.1499 107.955L42.1499 107.955L44.12 108.3ZM34.58 111.3L32.6116 110.946L32.1879 113.3H34.58V111.3ZM58.8081 107.756C59.2886 105.096 59.0285 102.751 58.0924 100.753C57.1597 98.7623 55.6336 97.2797 53.8571 96.2024C50.3711 94.0884 45.7108 93.4 41.6 93.4V97.4C45.4092 97.4 49.2089 98.0616 51.7829 99.6226C53.0364 100.383 53.9403 101.319 54.4701 102.45C54.9965 103.574 55.2314 105.054 54.8719 107.044L58.8081 107.756ZM41.6 93.4C37.8645 93.4 33.6739 93.5516 30.4298 93.7021C28.805 93.7775 27.412 93.8529 26.4246 93.9095C25.9309 93.9378 25.5384 93.9614 25.2688 93.978C25.134 93.9863 25.03 93.9928 24.9593 93.9972C24.924 93.9995 24.897 94.0012 24.8788 94.0024C24.8696 94.003 24.8627 94.0034 24.8579 94.0037C24.8556 94.0039 24.8538 94.004 24.8525 94.0041C24.8519 94.0041 24.8514 94.0041 24.851 94.0042C24.8509 94.0042 24.8507 94.0042 24.8506 94.0042C24.8505 94.0042 24.8504 94.0042 24.98 96C25.1096 97.9958 25.1096 97.9958 25.1096 97.9958C25.1097 97.9958 25.1097 97.9958 25.1098 97.9958C25.11 97.9958 25.1104 97.9957 25.1109 97.9957C25.1119 97.9956 25.1134 97.9955 25.1155 97.9954C25.1197 97.9951 25.1261 97.9947 25.1347 97.9942C25.1518 97.9931 25.1777 97.9914 25.2118 97.9893C25.2801 97.9849 25.3818 97.9786 25.5141 97.9705C25.7786 97.9542 26.1657 97.9309 26.6535 97.903C27.6293 97.8471 29.0075 97.7724 30.6152 97.6978C33.8361 97.5484 37.9555 97.4 41.6 97.4V93.4ZM23.0102 95.6539L15.6302 137.654L19.5698 138.346L26.9498 96.3461L23.0102 95.6539ZM17.6 138C17.4605 139.995 17.4606 139.995 17.4607 139.995C17.4608 139.995 17.4609 139.995 17.4611 139.995C17.4615 139.995 17.4619 139.995 17.4625 139.995C17.4638 139.995 17.4655 139.995 17.4677 139.996C17.4722 139.996 17.4788 139.996 17.4873 139.997C17.5045 139.998 17.5297 140 17.5628 140.002C17.629 140.007 17.7264 140.013 17.8529 140.021C18.1057 140.038 18.4746 140.062 18.9413 140.09C19.8744 140.147 21.1992 140.222 22.769 140.298C25.9044 140.448 30.0349 140.6 33.98 140.6V136.6C30.1251 136.6 26.0656 136.452 22.961 136.302C21.4108 136.228 20.1031 136.153 19.1837 136.097C18.7241 136.07 18.3618 136.046 18.115 136.03C17.9915 136.022 17.897 136.016 17.8337 136.011C17.802 136.009 17.7782 136.008 17.7624 136.006C17.7545 136.006 17.7486 136.006 17.7448 136.005C17.7429 136.005 17.7415 136.005 17.7406 136.005C17.7402 136.005 17.7398 136.005 17.7397 136.005C17.7396 136.005 17.7395 136.005 17.7395 136.005C17.7395 136.005 17.7395 136.005 17.6 138ZM33.98 140.6C39.8536 140.6 45.4479 139.678 49.8559 137.462C54.3288 135.213 57.6256 131.592 58.5684 126.354L54.6316 125.646C53.9544 129.408 51.6412 132.087 48.0591 133.888C44.4121 135.722 39.5064 136.6 33.98 136.6V140.6ZM58.5712 126.338C59.4399 121.271 57.2085 117.964 54.7954 116.037C53.6249 115.102 52.4217 114.492 51.5291 114.116C51.0788 113.927 50.6976 113.792 50.4255 113.704C50.2889 113.66 50.1807 113.627 50.1073 113.606C50.0892 113.601 50.0737 113.596 50.0614 113.593C50.0471 113.589 50.0423 113.587 50.0378 113.586C50.0262 113.582 50.0478 113.589 50.0757 113.598C50.0847 113.6 50.103 113.606 50.1261 113.615C50.1402 113.62 50.1976 113.64 50.2689 113.671C50.3101 113.69 50.4201 113.746 50.4879 113.785C50.6206 113.872 51.0466 114.283 51.2722 114.655C51.4494 115.702 50.6193 117.13 50.0608 117.408C49.8574 117.46 49.5549 117.498 49.46 117.5V113.5C49.3648 113.502 49.0622 113.54 48.8587 113.592C48.3 113.871 47.4699 115.298 47.6472 116.346C47.8728 116.717 48.299 117.129 48.4318 117.216C48.4997 117.255 48.6099 117.311 48.6514 117.33C48.7233 117.361 48.7815 117.382 48.7968 117.387C48.821 117.396 48.8406 117.402 48.8513 117.406C48.8857 117.417 48.9178 117.426 48.9208 117.427C48.9564 117.437 48.9485 117.435 48.985 117.445C49.0308 117.459 49.1006 117.48 49.1918 117.509C49.375 117.569 49.6477 117.664 49.9765 117.803C50.6421 118.083 51.4976 118.523 52.2996 119.163C53.8315 120.386 55.2001 122.329 54.6288 125.662L58.5712 126.338ZM51.4501 115.699L51.5101 115.099L47.5299 114.701L47.4699 115.301L51.4501 115.699ZM49.52 114.9C50.1418 116.801 50.1425 116.801 50.1432 116.8C50.1435 116.8 50.1442 116.8 50.1448 116.8C50.1458 116.8 50.147 116.799 50.1483 116.799C50.1509 116.798 50.1539 116.797 50.1572 116.796C50.164 116.794 50.1723 116.791 50.1821 116.787C50.2017 116.781 50.2274 116.772 50.2589 116.761C50.3217 116.739 50.4076 116.707 50.5135 116.667C50.725 116.586 51.018 116.467 51.3679 116.307C52.0639 115.989 53.0061 115.5 53.988 114.814C55.9162 113.467 58.237 111.183 58.8128 107.729L54.8672 107.071C54.543 109.017 53.2038 110.483 51.697 111.536C50.9614 112.049 50.2424 112.423 49.7065 112.668C49.4405 112.79 49.2248 112.877 49.0817 112.932C49.0103 112.959 48.9574 112.978 48.9258 112.989C48.91 112.995 48.8995 112.999 48.8948 113C48.8925 113.001 48.8915 113.001 48.8921 113.001C48.8924 113.001 48.893 113.001 48.894 113C48.8945 113 48.8951 113 48.8958 113C48.8962 113 48.8968 113 48.897 113C48.8976 112.999 48.8982 112.999 49.52 114.9ZM32.9 122.9H37.1V118.9H32.9V122.9ZM37.1 122.9C39.4887 122.9 40.808 123.144 41.4361 123.466C41.566 123.533 41.6303 123.586 41.6575 123.613C41.6709 123.626 41.677 123.634 41.6789 123.636C41.6807 123.639 41.6813 123.64 41.6819 123.641C41.6825 123.643 41.6854 123.649 41.6889 123.663C41.6926 123.677 41.6976 123.702 41.7009 123.74C41.7076 123.818 41.7064 123.95 41.6709 124.15L45.6091 124.85C45.7777 123.902 45.7466 122.897 45.3094 121.956C44.8648 120.999 44.1095 120.343 43.2639 119.908C41.702 119.106 39.5113 118.9 37.1 118.9V122.9ZM41.6709 124.15C41.5581 124.784 41.2756 125.179 40.5207 125.514C39.6097 125.917 38.11 126.16 35.78 126.16V130.16C38.25 130.16 40.4403 129.923 42.1394 129.171C43.9944 128.351 45.2419 126.916 45.6091 124.85L41.6709 124.15ZM35.78 126.16H31.58V130.16H35.78V126.16ZM33.5477 128.518L34.8677 121.258L30.9323 120.542L29.6123 127.802L33.5477 128.518ZM35.66 107.3H39.86V103.3H35.66V107.3ZM39.86 107.3C40.6378 107.3 41.224 107.336 41.6614 107.406C42.1111 107.478 42.2792 107.567 42.3089 107.586C42.3134 107.589 42.2839 107.57 42.2474 107.523C42.21 107.475 42.1914 107.43 42.1851 107.41C42.1786 107.389 42.2248 107.527 42.1499 107.955L46.0901 108.645C46.2252 107.873 46.2564 107.036 46.0062 106.227C45.7369 105.357 45.1905 104.68 44.4611 104.214C43.7858 103.783 43.0164 103.572 42.2924 103.456C41.556 103.339 40.7322 103.3 39.86 103.3V107.3ZM42.1499 107.955C42.0233 108.679 41.8121 108.82 41.6112 108.924C41.2025 109.135 40.3996 109.3 38.78 109.3V113.3C40.4604 113.3 42.1175 113.165 43.4488 112.476C44.9879 111.68 45.7967 110.321 46.0901 108.645L42.1499 107.955ZM38.78 109.3H34.58V113.3H38.78V109.3ZM36.5484 111.654L37.6284 105.654L33.6916 104.946L32.6116 110.946L36.5484 111.654ZM58.4942 123.6L60.4626 123.954L60.4631 123.952L58.4942 123.6ZM77.7542 136.8V134.8H77.0184L76.458 135.277L77.7542 136.8ZM78.3542 136.8L80.3486 136.65L80.2098 134.8H78.3542V136.8ZM78.5342 139.2L76.5398 139.35L76.6867 141.308L78.647 141.197L78.5342 139.2ZM89.1542 138.6L89.267 140.597L90.864 140.507L91.127 138.929L89.1542 138.6ZM94.2542 108L96.227 108.329L96.5775 106.226L94.4562 106.01L94.2542 108ZM82.4342 106.8L82.6362 104.81L80.9931 104.643L80.5186 106.225L82.4342 106.8ZM81.7142 109.2V111.2H83.2023L83.6299 109.775L81.7142 109.2ZM81.1142 109.2L79.9142 110.8L80.4476 111.2H81.1142V109.2ZM70.9142 123L72.882 123.358L72.8843 123.345L70.9142 123ZM80.0342 118.8L82.0141 119.083L82.1641 118.033L81.3796 117.32L80.0342 118.8ZM78.8342 127.2L80.1358 128.719L80.7076 128.228L80.8141 127.483L78.8342 127.2ZM75.4142 105.4C64.7923 105.4 58.125 114.29 56.5254 123.248L60.4631 123.952C61.8634 116.11 67.4361 109.4 75.4142 109.4V105.4ZM56.5259 123.246C55.9063 126.688 56.4802 131.105 58.7696 134.72C61.1269 138.442 65.2408 141.2 71.3342 141.2V137.2C66.6276 137.2 63.7815 135.158 62.1489 132.58C60.4483 129.895 60.0022 126.512 60.4626 123.954L56.5259 123.246ZM71.3342 141.2C73.5662 141.2 75.4947 140.461 76.8162 139.775C77.4862 139.427 78.0272 139.078 78.4062 138.812C78.5964 138.679 78.7477 138.565 78.856 138.48C78.9103 138.438 78.9539 138.403 78.9864 138.376C79.0027 138.363 79.0162 138.352 79.0269 138.343C79.0322 138.338 79.0369 138.335 79.0408 138.331C79.0428 138.33 79.0446 138.328 79.0462 138.327C79.047 138.326 79.0477 138.325 79.0484 138.325C79.0488 138.324 79.0493 138.324 79.0495 138.324C79.05 138.323 79.0505 138.323 77.7542 136.8C76.458 135.277 76.4584 135.277 76.4589 135.276C76.459 135.276 76.4595 135.276 76.4597 135.275C76.4603 135.275 76.4608 135.275 76.4612 135.274C76.4622 135.273 76.4629 135.273 76.4635 135.272C76.4647 135.271 76.4652 135.271 76.4651 135.271C76.4649 135.271 76.4622 135.273 76.4569 135.278C76.4464 135.286 76.4259 135.303 76.396 135.326C76.3361 135.373 76.2389 135.446 76.1085 135.538C75.8463 135.722 75.4572 135.973 74.9722 136.225C73.9838 136.739 72.7022 137.2 71.3342 137.2V141.2ZM77.7542 138.8H78.3542V134.8H77.7542V138.8ZM76.3598 136.95L76.5398 139.35L80.5286 139.05L80.3486 136.65L76.3598 136.95ZM78.647 141.197L89.267 140.597L89.0414 136.603L78.4214 137.203L78.647 141.197ZM91.127 138.929L96.227 108.329L92.2814 107.671L87.1814 138.271L91.127 138.929ZM94.4562 106.01L82.6362 104.81L82.2322 108.79L94.0522 109.99L94.4562 106.01ZM80.5186 106.225L79.7986 108.625L83.6299 109.775L84.3499 107.375L80.5186 106.225ZM81.7142 107.2H81.1142V111.2H81.7142V107.2ZM81.1142 109.2C82.3142 107.6 82.3137 107.6 82.3132 107.599C82.313 107.599 82.3124 107.599 82.312 107.598C82.3113 107.598 82.3105 107.597 82.3096 107.597C82.308 107.595 82.3061 107.594 82.3041 107.592C82.3002 107.59 82.2956 107.586 82.2904 107.582C82.28 107.575 82.2672 107.565 82.252 107.555C82.2216 107.533 82.1817 107.505 82.1326 107.471C82.0344 107.404 81.899 107.315 81.7294 107.211C81.391 107.005 80.9112 106.738 80.314 106.472C79.1288 105.946 77.4225 105.4 75.4142 105.4V109.4C76.7059 109.4 77.8496 109.754 78.6894 110.128C79.1048 110.312 79.4311 110.495 79.6459 110.626C79.7529 110.691 79.8308 110.743 79.8767 110.774C79.8997 110.79 79.9145 110.8 79.9209 110.805C79.9241 110.807 79.9252 110.808 79.9241 110.807C79.9235 110.807 79.9224 110.806 79.9208 110.805C79.92 110.804 79.919 110.804 79.9179 110.803C79.9174 110.802 79.9168 110.802 79.9162 110.801C79.9159 110.801 79.9154 110.801 79.9152 110.801C79.9147 110.8 79.9142 110.8 81.1142 109.2ZM74.0342 127C73.5886 127 73.37 126.902 73.2685 126.838C73.1712 126.776 73.0589 126.668 72.9539 126.43C72.7104 125.878 72.6109 124.849 72.882 123.358L68.9465 122.642C68.6176 124.451 68.578 126.422 69.2945 128.045C69.6696 128.895 70.2622 129.668 71.1249 130.215C71.9835 130.76 72.9799 131 74.0342 131V127ZM72.8843 123.345C73.0476 122.412 73.4575 121.394 74.053 120.656C74.6233 119.95 75.265 119.6 76.0142 119.6V115.6C73.7635 115.6 72.0651 116.75 70.9404 118.144C69.8409 119.506 69.2009 121.188 68.9442 122.655L72.8843 123.345ZM76.0142 119.6C77.0584 119.6 77.7852 119.83 78.2168 120.024C78.4356 120.123 78.5843 120.214 78.6635 120.268C78.703 120.295 78.725 120.312 78.7293 120.315C78.7315 120.317 78.7292 120.315 78.7225 120.31C78.7191 120.307 78.7147 120.303 78.709 120.298C78.7062 120.295 78.7032 120.293 78.6998 120.29C78.6981 120.288 78.6964 120.287 78.6946 120.285C78.6936 120.284 78.6927 120.283 78.6918 120.283C78.6913 120.282 78.6906 120.281 78.6903 120.281C78.6896 120.281 78.6889 120.28 80.0342 118.8C81.3796 117.32 81.3788 117.319 81.3781 117.319C81.3778 117.319 81.3771 117.318 81.3766 117.317C81.3755 117.316 81.3745 117.316 81.3734 117.315C81.3713 117.313 81.369 117.311 81.3667 117.309C81.3621 117.304 81.357 117.3 81.3517 117.295C81.3409 117.286 81.3287 117.275 81.315 117.263C81.2876 117.24 81.2543 117.213 81.2151 117.182C81.1367 117.119 81.0345 117.043 80.9081 116.957C80.6554 116.786 80.3053 116.577 79.8566 116.376C78.9533 115.97 77.67 115.6 76.0142 115.6V119.6ZM78.0543 118.517L76.8543 126.917L80.8141 127.483L82.0141 119.083L78.0543 118.517ZM78.8342 127.2C77.5326 125.681 77.5331 125.681 77.5336 125.681C77.5337 125.681 77.5341 125.68 77.5344 125.68C77.535 125.679 77.5355 125.679 77.536 125.679C77.5371 125.678 77.538 125.677 77.5387 125.676C77.5403 125.675 77.5414 125.674 77.542 125.674C77.5432 125.673 77.5425 125.673 77.54 125.675C77.5351 125.679 77.5228 125.689 77.5037 125.704C77.4654 125.734 77.4 125.784 77.3105 125.847C77.1303 125.975 76.8598 126.15 76.5216 126.327C75.8272 126.689 74.9515 127 74.0342 127V131C75.8169 131 77.3412 130.411 78.3719 129.873C78.8962 129.6 79.3194 129.325 79.6173 129.115C79.7669 129.01 79.8867 128.919 79.9737 128.85C80.0173 128.816 80.0528 128.788 80.0799 128.765C80.0935 128.754 80.1049 128.745 80.1143 128.737C80.1189 128.733 80.123 128.729 80.1266 128.726C80.1284 128.725 80.1301 128.723 80.1316 128.722C80.1324 128.721 80.1331 128.721 80.1338 128.72C80.1342 128.72 80.1347 128.719 80.1348 128.719C80.1353 128.719 80.1358 128.719 78.8342 127.2ZM133.102 138L131.133 137.653L130.72 140H133.102V138ZM146.002 138V140H147.715L147.978 138.308L146.002 138ZM148.342 123L150.318 123.308L150.319 123.302L148.342 123ZM127.342 111L125.678 112.109L126.736 113.696L128.371 112.715L127.342 111ZM111.322 109.8V111.8H111.874L112.348 111.517L111.322 109.8ZM110.722 109.8L108.761 110.192L109.083 111.8H110.722V109.8ZM110.242 107.4L112.204 107.008L111.863 105.305L110.129 105.403L110.242 107.4ZM99.6823 108L99.5689 106.003L97.9567 106.095L97.7065 107.69L99.6823 108ZM94.8823 138.6L92.9065 138.29L92.5259 140.716L94.9788 140.598L94.8823 138.6ZM107.302 138L107.399 139.998L108.997 139.92L109.272 138.345L107.302 138ZM110.662 118.8L109.2 117.435L108.795 117.87L108.692 118.455L110.662 118.8ZM116.542 123L118.512 123.348L118.514 123.338L118.515 123.329L116.542 123ZM113.842 138.3L111.873 137.952L111.448 140.357L113.89 140.299L113.842 138.3ZM126.502 138L126.55 139.999L128.19 139.961L128.472 138.345L126.502 138ZM129.862 118.8L128.448 117.386L128.001 117.833L127.892 118.455L129.862 118.8ZM135.742 123L137.712 123.347L137.714 123.338L135.742 123ZM133.102 140H146.002V136H133.102V140ZM147.978 138.308L150.318 123.308L146.366 122.692L144.026 137.692L147.978 138.308ZM150.319 123.302C151.217 117.421 150.696 112.867 148.44 109.752C146.115 106.543 142.362 105.4 138.142 105.4V109.4C141.723 109.4 143.939 110.357 145.2 112.098C146.529 113.933 147.208 117.179 146.365 122.698L150.319 123.302ZM138.142 105.4C135.325 105.4 132.319 106.434 130.155 107.362C129.043 107.838 128.093 108.313 127.419 108.67C127.081 108.849 126.811 108.999 126.622 109.106C126.528 109.16 126.454 109.202 126.402 109.233C126.376 109.248 126.355 109.26 126.34 109.269C126.333 109.273 126.327 109.277 126.323 109.28C126.32 109.281 126.318 109.282 126.317 109.283C126.316 109.283 126.315 109.284 126.315 109.284C126.315 109.284 126.314 109.285 126.314 109.285C126.314 109.285 126.313 109.285 127.342 111C128.371 112.715 128.371 112.715 128.371 112.715C128.371 112.715 128.371 112.715 128.37 112.716C128.37 112.716 128.37 112.716 128.37 112.716C128.37 112.716 128.37 112.716 128.371 112.715C128.372 112.714 128.375 112.713 128.379 112.71C128.387 112.706 128.401 112.697 128.42 112.686C128.458 112.664 128.518 112.63 128.597 112.585C128.755 112.495 128.991 112.364 129.291 112.205C129.892 111.887 130.741 111.462 131.73 111.038C133.766 110.166 136.16 109.4 138.142 109.4V105.4ZM127.342 111C129.006 109.891 129.006 109.89 129.005 109.889C129.005 109.888 129.004 109.888 129.004 109.887C129.003 109.886 129.002 109.884 129.001 109.883C128.999 109.88 128.997 109.877 128.995 109.874C128.991 109.867 128.985 109.86 128.98 109.851C128.968 109.835 128.954 109.815 128.937 109.792C128.904 109.745 128.86 109.686 128.805 109.615C128.696 109.475 128.542 109.29 128.342 109.075C127.944 108.646 127.356 108.096 126.561 107.551C124.956 106.45 122.543 105.4 119.242 105.4V109.4C121.642 109.4 123.279 110.15 124.299 110.849C124.816 111.204 125.185 111.554 125.414 111.8C125.528 111.923 125.607 112.019 125.651 112.075C125.673 112.103 125.686 112.121 125.691 112.128C125.693 112.131 125.693 112.131 125.691 112.128C125.69 112.126 125.688 112.124 125.686 112.121C125.685 112.12 125.684 112.118 125.683 112.116C125.682 112.115 125.681 112.114 125.681 112.113C125.68 112.112 125.68 112.111 125.679 112.111C125.679 112.11 125.678 112.109 127.342 111ZM119.242 105.4C116.924 105.4 114.669 106.103 113.074 106.744C112.259 107.072 111.578 107.399 111.097 107.646C110.856 107.77 110.663 107.875 110.528 107.951C110.46 107.989 110.406 108.019 110.367 108.042C110.348 108.053 110.332 108.062 110.32 108.069C110.315 108.072 110.31 108.075 110.306 108.078C110.304 108.079 110.302 108.08 110.301 108.081C110.3 108.081 110.299 108.081 110.299 108.082C110.298 108.082 110.298 108.082 110.298 108.082C110.297 108.083 110.297 108.083 111.322 109.8C112.348 111.517 112.347 111.517 112.347 111.518C112.347 111.518 112.346 111.518 112.346 111.518C112.346 111.518 112.346 111.518 112.345 111.519C112.345 111.519 112.345 111.519 112.345 111.519C112.345 111.519 112.346 111.518 112.347 111.517C112.351 111.515 112.359 111.511 112.37 111.504C112.392 111.492 112.428 111.471 112.478 111.443C112.577 111.388 112.729 111.305 112.926 111.204C113.32 111.001 113.888 110.728 114.566 110.456C115.955 109.897 117.661 109.4 119.242 109.4V105.4ZM111.322 107.8H110.722V111.8H111.322V107.8ZM112.684 109.408L112.204 107.008L108.281 107.792L108.761 110.192L112.684 109.408ZM110.129 105.403L99.5689 106.003L99.7958 109.997L110.356 109.397L110.129 105.403ZM97.7065 107.69L92.9065 138.29L96.8582 138.91L101.658 108.31L97.7065 107.69ZM94.9788 140.598L107.399 139.998L107.206 136.002L94.7858 136.602L94.9788 140.598ZM109.272 138.345L112.632 119.145L108.692 118.455L105.332 137.655L109.272 138.345ZM110.662 118.8C112.124 120.165 112.124 120.165 112.124 120.166C112.123 120.166 112.123 120.166 112.123 120.166C112.122 120.167 112.122 120.168 112.121 120.168C112.12 120.169 112.119 120.17 112.119 120.171C112.117 120.173 112.116 120.174 112.115 120.175C112.113 120.177 112.113 120.177 112.114 120.176C112.117 120.173 112.125 120.165 112.138 120.152C112.165 120.125 112.213 120.08 112.279 120.022C112.414 119.904 112.614 119.742 112.864 119.581C113.388 119.242 113.983 119 114.562 119V115C112.921 115 111.566 115.658 110.696 116.219C110.248 116.508 109.89 116.796 109.64 117.016C109.514 117.126 109.413 117.221 109.34 117.294C109.303 117.33 109.273 117.36 109.249 117.384C109.238 117.396 109.228 117.406 109.22 117.415C109.215 117.419 109.212 117.423 109.209 117.426C109.207 117.428 109.205 117.43 109.204 117.431C109.203 117.432 109.203 117.433 109.202 117.433C109.202 117.434 109.201 117.434 109.201 117.434C109.201 117.435 109.2 117.435 110.662 118.8ZM114.562 119C114.681 119 114.626 119.023 114.547 118.955C114.495 118.911 114.565 118.938 114.645 119.212C114.823 119.82 114.856 120.955 114.57 122.671L118.515 123.329C118.829 121.445 118.921 119.58 118.484 118.088C118.257 117.312 117.851 116.514 117.137 115.907C116.396 115.277 115.493 115 114.562 115V119ZM114.573 122.652L111.873 137.952L115.812 138.648L118.512 123.348L114.573 122.652ZM113.89 140.299L126.55 139.999L126.455 136.001L113.795 136.301L113.89 140.299ZM128.472 138.345L131.832 119.145L127.892 118.455L124.532 137.655L128.472 138.345ZM129.862 118.8C131.277 120.214 131.276 120.215 131.276 120.215C131.276 120.215 131.275 120.215 131.275 120.216C131.275 120.216 131.274 120.217 131.274 120.217C131.273 120.218 131.272 120.219 131.272 120.219C131.27 120.22 131.269 120.221 131.269 120.222C131.268 120.223 131.269 120.222 131.271 120.22C131.275 120.216 131.286 120.206 131.302 120.191C131.334 120.161 131.389 120.111 131.463 120.049C131.612 119.923 131.83 119.754 132.093 119.586C132.662 119.223 133.236 119 133.702 119V115C132.129 115 130.782 115.677 129.941 116.214C129.499 116.496 129.14 116.777 128.888 116.988C128.761 117.095 128.659 117.186 128.586 117.255C128.548 117.289 128.518 117.317 128.495 117.34C128.484 117.351 128.474 117.36 128.466 117.368C128.462 117.372 128.459 117.375 128.456 117.378C128.454 117.38 128.453 117.381 128.452 117.382C128.451 117.383 128.45 117.384 128.45 117.384C128.449 117.384 128.449 117.385 128.449 117.385C128.449 117.385 128.448 117.386 129.862 118.8ZM133.702 119C133.971 119 133.99 119.056 133.918 119.007C133.829 118.947 133.853 118.903 133.908 119.066C134.064 119.529 134.126 120.591 133.771 122.662L137.714 123.338C138.079 121.209 138.2 119.271 137.697 117.784C137.422 116.972 136.935 116.215 136.149 115.687C135.379 115.169 134.513 115 133.702 115V119ZM133.773 122.653L131.133 137.653L135.072 138.347L137.712 123.347L133.773 122.653ZM153.394 118.2L151.407 117.976L151.156 120.2H153.394V118.2ZM157.294 118.2L159.273 118.491L159.61 116.2H157.294V118.2ZM154.294 138.6L152.315 138.309L151.961 140.718L154.393 140.598L154.294 138.6ZM166.414 138L166.513 139.998L168.156 139.916L168.393 138.288L166.414 138ZM169.294 118.2V116.2H167.564L167.315 117.912L169.294 118.2ZM176.194 118.2V120.2H177.775L178.14 118.662L176.194 118.2ZM178.474 108.6L180.42 109.062L181.005 106.6H178.474V108.6ZM171.274 108.6L169.301 108.271L168.913 110.6H171.274V108.6ZM171.574 106.8L169.604 106.455L169.603 106.463L169.601 106.471L171.574 106.8ZM178.054 104.1L176.927 105.752L178.819 107.042L179.843 104.994L178.054 104.1ZM182.254 95.7L184.043 96.5944L184.905 94.8702L183.214 93.9453L182.254 95.7ZM159.274 106.8L157.306 106.446L157.303 106.458L157.301 106.471L159.274 106.8ZM158.974 108.6V110.6H160.668L160.947 108.929L158.974 108.6ZM154.474 108.6V106.6H152.686L152.487 108.376L154.474 108.6ZM153.394 120.2H157.294V116.2H153.394V120.2ZM155.315 117.909L152.315 138.309L156.273 138.891L159.273 118.491L155.315 117.909ZM154.393 140.598L166.513 139.998L166.315 136.002L154.195 136.602L154.393 140.598ZM168.393 138.288L171.273 118.488L167.315 117.912L164.435 137.712L168.393 138.288ZM169.294 120.2H176.194V116.2H169.294V120.2ZM178.14 118.662L180.42 109.062L176.528 108.138L174.248 117.738L178.14 118.662ZM178.474 106.6H171.274V110.6H178.474V106.6ZM173.247 108.929L173.547 107.129L169.601 106.471L169.301 108.271L173.247 108.929ZM173.544 107.145C173.716 106.164 174 105.651 174.204 105.417C174.363 105.235 174.482 105.2 174.634 105.2V101.2C173.287 101.2 172.085 101.765 171.194 102.783C170.348 103.749 169.852 105.036 169.604 106.455L173.544 107.145ZM174.634 105.2C175.397 105.2 176.01 105.363 176.422 105.52C176.627 105.598 176.778 105.672 176.866 105.72C176.91 105.744 176.938 105.76 176.949 105.767C176.954 105.77 176.955 105.771 176.952 105.769C176.95 105.768 176.947 105.766 176.943 105.763C176.941 105.762 176.939 105.76 176.936 105.758C176.935 105.757 176.933 105.757 176.932 105.756C176.931 105.755 176.93 105.755 176.93 105.754C176.929 105.754 176.929 105.753 176.929 105.753C176.928 105.753 176.927 105.752 178.054 104.1C179.181 102.448 179.18 102.447 179.18 102.447C179.179 102.447 179.179 102.446 179.178 102.446C179.177 102.445 179.177 102.445 179.176 102.444C179.174 102.443 179.172 102.442 179.17 102.44C179.166 102.438 179.162 102.435 179.157 102.432C179.148 102.426 179.138 102.419 179.126 102.411C179.102 102.396 179.072 102.377 179.038 102.356C178.968 102.313 178.876 102.259 178.764 102.199C178.539 102.078 178.229 101.927 177.842 101.78C177.068 101.486 175.971 101.2 174.634 101.2V105.2ZM179.843 104.994L184.043 96.5944L180.465 94.8056L176.265 103.206L179.843 104.994ZM182.254 95.7C183.214 93.9453 183.213 93.945 183.213 93.9447C183.212 93.9445 183.212 93.9442 183.211 93.944C183.211 93.9435 183.21 93.9431 183.209 93.9426C183.207 93.9415 183.205 93.9404 183.202 93.9391C183.198 93.9365 183.192 93.9335 183.185 93.9299C183.172 93.9228 183.155 93.9138 183.134 93.903C183.093 93.8813 183.036 93.8524 182.965 93.8173C182.823 93.7471 182.624 93.6521 182.37 93.5408C181.864 93.3183 181.14 93.0293 180.231 92.7426C178.415 92.1702 175.84 91.6 172.774 91.6V95.6C175.348 95.6 177.513 96.0798 179.028 96.5574C179.783 96.7957 180.372 97.0317 180.761 97.203C180.956 97.2885 181.101 97.3575 181.191 97.4022C181.236 97.4246 181.268 97.4408 181.285 97.4499C181.294 97.4544 181.299 97.4572 181.3 97.458C181.301 97.4585 181.301 97.4584 181.3 97.4579C181.3 97.4576 181.299 97.4572 181.298 97.4567C181.298 97.4564 181.297 97.4561 181.296 97.4558C181.296 97.4556 181.296 97.4554 181.295 97.4553C181.295 97.455 181.294 97.4547 182.254 95.7ZM172.774 91.6C165.947 91.6 159.079 96.5945 157.306 106.446L161.242 107.154C162.709 99.0055 168.082 95.6 172.774 95.6V91.6ZM157.301 106.471L157.001 108.271L160.947 108.929L161.247 107.129L157.301 106.471ZM158.974 106.6H154.474V110.6H158.974V106.6ZM152.487 108.376L151.407 117.976L155.382 118.424L156.462 108.824L152.487 108.376ZM176.916 122.4L174.948 122.043L174.946 122.055L176.916 122.4ZM210.336 123.6L208.367 123.252L210.336 123.6ZM198.336 123.6L200.306 123.945L200.308 123.937L200.309 123.929L198.336 123.6ZM188.916 122.4L186.955 122.008L186.951 122.031L186.946 122.055L188.916 122.4ZM174.946 122.055C174.012 127.396 175.353 132.208 178.318 135.695C181.274 139.174 185.732 141.2 190.776 141.2V137.2C186.821 137.2 183.509 135.626 181.365 133.105C179.229 130.592 178.141 127.004 178.886 122.745L174.946 122.055ZM190.776 141.2C203.244 141.2 210.774 132.604 212.306 123.948L208.367 123.252C207.138 130.196 201.109 137.2 190.776 137.2V141.2ZM212.306 123.948C213.078 119.586 212.238 114.83 209.605 111.118C206.926 107.341 202.496 104.8 196.476 104.8V108.8C201.257 108.8 204.447 110.759 206.343 113.432C208.285 116.17 208.975 119.814 208.367 123.252L212.306 123.948ZM196.476 104.8C185.395 104.8 176.876 111.41 174.948 122.043L178.884 122.757C180.437 114.19 187.158 108.8 196.476 108.8V104.8ZM194.796 118.4C195.351 118.4 195.633 118.533 195.785 118.642C195.945 118.758 196.122 118.963 196.27 119.357C196.595 120.217 196.642 121.599 196.364 123.271L200.309 123.929C200.631 122.001 200.707 119.783 200.012 117.943C199.651 116.987 199.055 116.067 198.12 115.395C197.177 114.717 196.042 114.4 194.796 114.4V118.4ZM196.366 123.255C196.205 124.179 195.753 125.351 195.032 126.245C194.34 127.103 193.503 127.6 192.456 127.6V131.6C195.01 131.6 196.903 130.297 198.146 128.755C199.36 127.249 200.048 125.421 200.306 123.945L196.366 123.255ZM192.456 127.6C191.813 127.6 191.528 127.428 191.383 127.302C191.209 127.151 191.02 126.871 190.882 126.37C190.59 125.306 190.691 123.863 190.886 122.745L186.946 122.055C186.722 123.336 186.493 125.494 187.025 127.43C187.3 128.429 187.813 129.499 188.761 130.323C189.74 131.172 191 131.6 192.456 131.6V127.6ZM190.878 122.792C191.033 122.014 191.382 120.826 192.05 119.878C192.67 119 193.494 118.4 194.796 118.4V114.4C191.898 114.4 189.963 115.9 188.782 117.572C187.651 119.174 187.16 120.986 186.955 122.008L190.878 122.792ZM242.127 111.6L243.658 112.886L244.586 111.782L243.831 110.553L242.127 111.6ZM228.027 109.8V111.8H228.827L229.406 111.248L228.027 109.8ZM227.427 109.8L225.433 109.95L225.571 111.8H227.427V109.8ZM227.247 107.4L229.241 107.25L229.094 105.289L227.13 105.403L227.247 107.4ZM216.987 108L216.87 106.003L215.261 106.098L215.011 107.69L216.987 108ZM212.187 138.6L210.211 138.29L209.831 140.716L212.284 140.598L212.187 138.6ZM224.607 138L224.704 139.998L226.327 139.919L226.582 138.314L224.607 138ZM227.607 119.1L226.445 117.473L225.763 117.959L225.632 118.786L227.607 119.1ZM234.567 120.6L232.929 121.747L234.423 123.881L236.098 121.886L234.567 120.6ZM242.127 111.6C243.831 110.553 243.831 110.552 243.83 110.552C243.83 110.551 243.83 110.55 243.829 110.55C243.828 110.549 243.828 110.547 243.827 110.546C243.825 110.544 243.823 110.541 243.822 110.538C243.818 110.531 243.813 110.524 243.808 110.516C243.797 110.499 243.784 110.479 243.768 110.454C243.736 110.406 243.693 110.342 243.639 110.266C243.532 110.113 243.379 109.908 243.18 109.668C242.783 109.189 242.195 108.562 241.407 107.935C239.823 106.675 237.402 105.4 234.147 105.4V109.4C236.292 109.4 237.861 110.225 238.917 111.065C239.449 111.488 239.843 111.911 240.099 112.22C240.227 112.373 240.318 112.496 240.372 112.573C240.399 112.612 240.417 112.638 240.425 112.651C240.43 112.658 240.432 112.661 240.431 112.66C240.431 112.66 240.43 112.659 240.429 112.656C240.428 112.655 240.427 112.654 240.426 112.652C240.426 112.652 240.425 112.651 240.425 112.65C240.424 112.649 240.424 112.649 240.424 112.648C240.423 112.648 240.423 112.647 242.127 111.6ZM234.147 105.4C231.904 105.4 230.037 106.145 228.766 106.852C228.124 107.208 227.614 107.566 227.258 107.84C227.079 107.977 226.937 108.095 226.835 108.184C226.783 108.228 226.742 108.265 226.711 108.293C226.695 108.307 226.682 108.319 226.672 108.329C226.666 108.334 226.662 108.338 226.658 108.342C226.656 108.344 226.654 108.346 226.652 108.347C226.651 108.348 226.651 108.349 226.65 108.35C226.649 108.35 226.649 108.351 226.649 108.351C226.648 108.351 226.648 108.352 228.027 109.8C229.406 111.248 229.406 111.249 229.405 111.249C229.405 111.249 229.405 111.25 229.404 111.25C229.404 111.251 229.403 111.251 229.403 111.252C229.402 111.253 229.401 111.254 229.4 111.254C229.398 111.256 229.398 111.257 229.397 111.257C229.396 111.258 229.398 111.256 229.402 111.253C229.409 111.246 229.425 111.232 229.45 111.21C229.5 111.167 229.583 111.098 229.696 111.01C229.925 110.834 230.27 110.592 230.708 110.348C231.597 109.855 232.79 109.4 234.147 109.4V105.4ZM228.027 107.8H227.427V111.8H228.027V107.8ZM229.421 109.65L229.241 107.25L225.253 107.55L225.433 109.95L229.421 109.65ZM227.13 105.403L216.87 106.003L217.104 109.997L227.364 109.397L227.13 105.403ZM215.011 107.69L210.211 138.29L214.163 138.91L218.963 108.31L215.011 107.69ZM212.284 140.598L224.704 139.998L224.511 136.002L212.091 136.602L212.284 140.598ZM226.582 138.314L229.582 119.414L225.632 118.786L222.632 137.686L226.582 138.314ZM227.607 119.1C228.77 120.727 228.769 120.728 228.769 120.728C228.768 120.728 228.768 120.729 228.768 120.729C228.767 120.729 228.766 120.73 228.766 120.73C228.765 120.731 228.764 120.732 228.763 120.732C228.761 120.734 228.759 120.735 228.757 120.736C228.754 120.738 228.753 120.739 228.752 120.74C228.75 120.741 228.753 120.739 228.759 120.735C228.772 120.726 228.801 120.708 228.843 120.683C228.929 120.633 229.064 120.559 229.237 120.484C229.595 120.328 230.037 120.2 230.487 120.2V116.2C229.317 116.2 228.319 116.522 227.642 116.816C227.297 116.966 227.016 117.117 226.815 117.236C226.714 117.295 226.631 117.347 226.569 117.388C226.538 117.408 226.512 117.426 226.491 117.44C226.481 117.447 226.472 117.453 226.464 117.459C226.46 117.462 226.457 117.464 226.453 117.466C226.452 117.467 226.45 117.469 226.449 117.47C226.448 117.47 226.447 117.471 226.447 117.471C226.446 117.471 226.446 117.472 226.446 117.472C226.445 117.472 226.445 117.473 227.607 119.1ZM230.487 120.2C231.019 120.2 231.595 120.476 232.147 120.936C232.405 121.152 232.613 121.371 232.756 121.535C232.826 121.616 232.877 121.68 232.907 121.718C232.922 121.738 232.931 121.751 232.935 121.756C232.937 121.758 232.937 121.759 232.936 121.758C232.936 121.757 232.935 121.756 232.933 121.754C232.933 121.753 232.932 121.752 232.931 121.751C232.931 121.75 232.93 121.75 232.93 121.749C232.93 121.749 232.929 121.748 232.929 121.748C232.929 121.747 232.929 121.747 234.567 120.6C236.205 119.453 236.205 119.453 236.205 119.452C236.205 119.452 236.204 119.451 236.204 119.451C236.203 119.45 236.203 119.449 236.202 119.448C236.201 119.447 236.2 119.445 236.198 119.443C236.195 119.439 236.192 119.434 236.188 119.429C236.181 119.418 236.171 119.405 236.16 119.39C236.138 119.36 236.109 119.322 236.074 119.275C236.002 119.183 235.903 119.059 235.778 118.915C235.531 118.629 235.169 118.248 234.707 117.864C233.819 117.124 232.355 116.2 230.487 116.2V120.2ZM236.098 121.886L243.658 112.886L240.596 110.314L233.036 119.314L236.098 121.886ZM239.725 123.6L241.693 123.954L241.694 123.952L239.725 123.6ZM258.985 136.8V134.8H258.249L257.688 135.277L258.985 136.8ZM259.585 136.8L261.579 136.65L261.44 134.8H259.585V136.8ZM259.765 139.2L257.77 139.35L257.917 141.308L259.878 141.197L259.765 139.2ZM270.385 138.6L270.498 140.597L272.09 140.507L272.357 138.934L270.385 138.6ZM277.705 95.4L279.677 95.7341L280.034 93.6262L277.907 93.4102L277.705 95.4ZM265.885 94.2L266.087 92.2102L264.273 92.0261L263.922 93.8153L265.885 94.2ZM262.945 109.2V111.2H264.591L264.907 109.585L262.945 109.2ZM262.345 109.2L261.145 110.8L261.678 111.2H262.345V109.2ZM252.145 123L254.112 123.358L254.115 123.345L252.145 123ZM261.265 118.8L263.245 119.083L263.395 118.033L262.61 117.32L261.265 118.8ZM260.065 127.2L261.366 128.719L261.938 128.228L262.045 127.483L260.065 127.2ZM256.645 105.4C246.023 105.4 239.355 114.29 237.756 123.248L241.694 123.952C243.094 116.11 248.667 109.4 256.645 109.4V105.4ZM237.756 123.246C237.137 126.688 237.711 131.105 240 134.72C242.357 138.442 246.471 141.2 252.565 141.2V137.2C247.858 137.2 245.012 135.158 243.379 132.58C241.679 129.895 241.233 126.512 241.693 123.954L237.756 123.246ZM252.565 141.2C254.797 141.2 256.725 140.461 258.047 139.775C258.717 139.427 259.258 139.078 259.637 138.812C259.827 138.679 259.978 138.565 260.086 138.48C260.141 138.438 260.184 138.403 260.217 138.376C260.233 138.363 260.247 138.352 260.257 138.343C260.263 138.338 260.267 138.335 260.271 138.331C260.273 138.33 260.275 138.328 260.277 138.327C260.277 138.326 260.278 138.325 260.279 138.325C260.279 138.324 260.28 138.324 260.28 138.324C260.28 138.323 260.281 138.323 258.985 136.8C257.688 135.277 257.689 135.277 257.689 135.276C257.689 135.276 257.69 135.276 257.69 135.275C257.691 135.275 257.691 135.275 257.692 135.274C257.693 135.273 257.693 135.273 257.694 135.272C257.695 135.271 257.696 135.271 257.696 135.271C257.695 135.271 257.693 135.273 257.687 135.278C257.677 135.286 257.656 135.303 257.626 135.326C257.567 135.373 257.469 135.446 257.339 135.538C257.077 135.722 256.688 135.973 256.203 136.225C255.214 136.739 253.933 137.2 252.565 137.2V141.2ZM258.985 138.8H259.585V134.8H258.985V138.8ZM257.59 136.95L257.77 139.35L261.759 139.05L261.579 136.65L257.59 136.95ZM259.878 141.197L270.498 140.597L270.272 136.603L259.652 137.203L259.878 141.197ZM272.357 138.934L279.677 95.7341L275.733 95.0659L268.413 138.266L272.357 138.934ZM277.907 93.4102L266.087 92.2102L265.683 96.1898L277.503 97.3898L277.907 93.4102ZM263.922 93.8153L260.982 108.815L264.907 109.585L267.847 94.5847L263.922 93.8153ZM262.945 107.2H262.345V111.2H262.945V107.2ZM262.345 109.2C263.545 107.6 263.544 107.6 263.544 107.599C263.543 107.599 263.543 107.599 263.543 107.598C263.542 107.598 263.541 107.597 263.54 107.597C263.538 107.595 263.537 107.594 263.535 107.592C263.531 107.59 263.526 107.586 263.521 107.582C263.51 107.575 263.498 107.565 263.482 107.555C263.452 107.533 263.412 107.505 263.363 107.471C263.265 107.404 263.129 107.315 262.96 107.211C262.622 107.005 262.142 106.738 261.544 106.472C260.359 105.946 258.653 105.4 256.645 105.4V109.4C257.936 109.4 259.08 109.754 259.92 110.128C260.335 110.312 260.662 110.495 260.876 110.626C260.983 110.691 261.061 110.743 261.107 110.774C261.13 110.79 261.145 110.8 261.151 110.805C261.155 110.807 261.156 110.808 261.155 110.807C261.154 110.807 261.153 110.806 261.151 110.805C261.15 110.804 261.149 110.804 261.148 110.803C261.148 110.802 261.147 110.802 261.147 110.801C261.146 110.801 261.146 110.801 261.146 110.801C261.145 110.8 261.145 110.8 262.345 109.2ZM255.265 127C254.819 127 254.6 126.902 254.499 126.838C254.402 126.776 254.289 126.668 254.184 126.43C253.941 125.878 253.841 124.849 254.112 123.358L250.177 122.642C249.848 124.451 249.808 126.422 250.525 128.045C250.9 128.895 251.493 129.668 252.355 130.215C253.214 130.76 254.21 131 255.265 131V127ZM254.115 123.345C254.278 122.412 254.688 121.394 255.283 120.656C255.854 119.95 256.495 119.6 257.245 119.6V115.6C254.994 115.6 253.296 116.75 252.171 118.144C251.071 119.506 250.431 121.188 250.175 122.655L254.115 123.345ZM257.245 119.6C258.289 119.6 259.016 119.83 259.447 120.024C259.666 120.123 259.815 120.214 259.894 120.268C259.934 120.295 259.955 120.312 259.96 120.315C259.962 120.317 259.96 120.315 259.953 120.31C259.95 120.307 259.945 120.303 259.94 120.298C259.937 120.295 259.934 120.293 259.93 120.29C259.929 120.288 259.927 120.287 259.925 120.285C259.924 120.284 259.923 120.283 259.922 120.283C259.922 120.282 259.921 120.281 259.921 120.281C259.92 120.281 259.919 120.28 261.265 118.8C262.61 117.32 262.609 117.319 262.609 117.319C262.608 117.319 262.608 117.318 262.607 117.317C262.606 117.316 262.605 117.316 262.604 117.315C262.602 117.313 262.599 117.311 262.597 117.309C262.593 117.304 262.588 117.3 262.582 117.295C262.571 117.286 262.559 117.275 262.545 117.263C262.518 117.24 262.485 117.213 262.446 117.182C262.367 117.119 262.265 117.043 262.139 116.957C261.886 116.786 261.536 116.577 261.087 116.376C260.184 115.97 258.9 115.6 257.245 115.6V119.6ZM259.285 118.517L258.085 126.917L262.045 127.483L263.245 119.083L259.285 118.517ZM260.065 127.2C258.763 125.681 258.764 125.681 258.764 125.681C258.764 125.681 258.765 125.68 258.765 125.68C258.765 125.679 258.766 125.679 258.767 125.679C258.768 125.678 258.768 125.677 258.769 125.676C258.771 125.675 258.772 125.674 258.772 125.674C258.774 125.673 258.773 125.673 258.771 125.675C258.766 125.679 258.753 125.689 258.734 125.704C258.696 125.734 258.63 125.784 258.541 125.847C258.361 125.975 258.09 126.15 257.752 126.327C257.058 126.689 256.182 127 255.265 127V131C257.047 131 258.572 130.411 259.602 129.873C260.127 129.6 260.55 129.325 260.848 129.115C260.997 129.01 261.117 128.919 261.204 128.85C261.248 128.816 261.283 128.788 261.31 128.765C261.324 128.754 261.335 128.745 261.345 128.737C261.349 128.733 261.354 128.729 261.357 128.726C261.359 128.725 261.361 128.723 261.362 128.722C261.363 128.721 261.364 128.721 261.364 128.72C261.365 128.72 261.365 128.719 261.365 128.719C261.366 128.719 261.366 128.719 260.065 127.2Z" fill="black"/>
<path d="M21.8 217.7C17.6 217.7 13.9333 216.833 10.8 215.1C7.66667 213.433 5.23333 211.233 3.5 208.5C1.83333 205.7 1 202.6 1 199.2C1 196.2 1.63333 193.267 2.9 190.4C4.23333 187.467 6.03333 184.8 8.3 182.4C10.6333 180 13.3667 178 16.5 176.4C19.6333 174.8 23.0333 173.767 26.7 173.3C24.2333 171.167 22.3667 168.767 21.1 166.1C19.9 163.433 19.3 160.733 19.3 158C19.3 154.4 20.2 151.033 22 147.9C23.8 144.7 26.3 142.1 29.5 140.1C32.7667 138.1 36.5 137.1 40.7 137.1C44.5667 137.1 47.5 138.033 49.5 139.9C51.5667 141.767 52.6 144.467 52.6 148C52.6 150.533 52.1667 153 51.3 155.4C50.4333 157.8 49.3667 159.8 48.1 161.4C46.9 162.933 45.7 163.7 44.5 163.7C43.6333 163.7 42.8 163.333 42 162.6C41.2667 161.8 40.6333 160.9 40.1 159.9C42.5 157.833 44.5 155.7 46.1 153.5C47.7 151.3 48.5 149 48.5 146.6C48.5 144.667 47.9667 143.1 46.9 141.9C45.8333 140.633 44.1333 140 41.8 140C38.7333 140 36.1667 140.9 34.1 142.7C32.0333 144.5 30.4333 146.833 29.3 149.7C28.2333 152.567 27.7 155.7 27.7 159.1C27.7 160.633 27.8333 162.333 28.1 164.2C28.4333 166.067 29.1 167.933 30.1 169.8C31.1 171.6 32.5667 173.3 34.5 174.9C29.8333 175.633 25.7667 177.3 22.3 179.9C18.8333 182.5 16.1333 185.533 14.2 189C12.3333 192.467 11.4 195.9 11.4 199.3C11.4 201.367 11.8 203.5 12.6 205.7C13.4667 207.833 14.8667 209.633 16.8 211.1C18.7333 212.633 21.2667 213.4 24.4 213.4C27.9333 213.4 31.3333 212.533 34.6 210.8C37.9333 209.067 40.9333 206.767 43.6 203.9C46.3333 201.033 48.5667 197.8 50.3 194.2C52.0333 190.533 53.1333 186.8 53.6 183C52.2667 183.067 51 183.167 49.8 183.3C48.6667 183.433 47.3667 183.633 45.9 183.9C44.4333 184.167 42.5 184.533 40.1 185C40.2333 181.8 41.3667 179.667 43.5 178.6C45.6333 177.533 48.1667 177 51.1 177C53.2333 177 55.1667 177.133 56.9 177.4C58.7 177.667 60.4667 177.933 62.2 178.2C63.9333 178.467 65.7333 178.633 67.6 178.7C66.6667 180.633 65.8 181.8 65 182.2C64.2 182.6 63.4333 182.8 62.7 182.8C61.5 182.8 60.4667 182.833 59.6 182.9C58.7333 182.9 57.8667 182.9 57 182.9C56.5333 187.433 55.2667 191.8 53.2 196C51.1333 200.133 48.4667 203.833 45.2 207.1C42 210.367 38.4 212.933 34.4 214.8C30.4 216.733 26.2 217.7 21.8 217.7Z" fill="#FF3F3F"/>
</svg>
