<svg width="302" height="230" viewBox="0 0 302 230" fill="none" xmlns="http://www.w3.org/2000/svg">
<path d="M190.372 194.363L239.273 208.461ZM242.92 21.2001L291.821 35.2982ZM198.022 177.927L246.923 192.025ZM201.921 157.479L250.823 171.577ZM209.185 138.972L258.087 153.071ZM213.085 118.524L261.986 132.622ZM221.254 100.277L270.155 114.375ZM225.154 79.8284L274.055 93.9265ZM232.418 61.322L281.319 75.4201ZM236.317 40.8738L285.219 54.9719ZM236.317 40.8738L285.219 54.9719ZM297.543 20.2105L238.766 215.116ZM247.038 4.78521L188.26 199.694ZM247.037 4.78913L188.26 199.694Z" fill="black"/>
<path d="M190.372 194.363L239.273 208.461M242.92 21.2001L291.821 35.2982M198.022 177.927L246.923 192.025M201.921 157.479L250.823 171.577M209.185 138.972L258.087 153.071M213.085 118.524L261.986 132.622M221.254 100.277L270.155 114.375M225.154 79.8284L274.055 93.9265M232.418 61.322L281.319 75.4201M236.317 40.8738L285.219 54.9719M236.317 40.8738L285.219 54.9719M297.543 20.2105L238.766 215.116M247.038 4.78521L188.26 199.694M247.037 4.78913L188.26 199.694" stroke="#9F9F9F" stroke-width="7.0857" stroke-linecap="square"/>
<path d="M115.94 150.8C115.94 150.8 110.36 144.8 101.96 144.8C89.96 144.8 82.76 151.7 81.62 158.3C79.04 173 98.24 171.02 97.46 175.7C97.28 176.6 95.84 178.1 92.54 178.1C88.34 178.1 82.64 173 82.64 173L74.42 182C74.42 182 80.36 189.2 90.32 189.2C103.16 189.2 111.02 182.18 112.22 175.1C114.62 161.6 95.24 162.8 96.02 158.3C96.2 157.1 97.64 155.9 100.04 155.9C104.24 155.9 108.26 160.1 108.26 160.1L115.94 150.8ZM114.221 172.4C112.541 182 119.081 189.2 128.081 189.2C139.481 189.2 146.261 181.4 147.641 173.6C149.021 165.8 144.581 156.8 133.781 156.8C123.581 156.8 115.961 162.8 114.221 172.4ZM132.101 166.4C135.701 166.4 136.241 170 135.641 173.6C135.221 176 133.361 179.6 129.761 179.6C125.561 179.6 125.801 174.8 126.221 172.4C126.581 170.6 127.901 166.4 132.101 166.4ZM183.752 173C185.792 161.3 181.952 157.4 173.852 157.4C169.952 157.4 165.932 159.8 165.932 159.8H165.332L164.852 157.4L154.292 158L149.792 188.6L162.212 188L165.212 169.1C165.212 169.1 167.852 167.9 169.652 167.9C171.752 167.9 172.172 170.6 171.752 173L169.052 188.18C169.052 188.24 181.112 188 181.112 188L183.752 173ZM217.052 161C217.052 161 211.772 156.8 204.572 156.8C194.972 156.8 189.512 162.2 188.732 166.7C186.752 177.8 200.612 176 200.132 178.7C199.952 179.6 198.632 180.2 196.232 180.2C193.232 180.2 189.572 177.2 189.572 177.2L184.112 184.4C184.112 184.4 188.672 189.2 197.672 189.2C207.272 189.2 213.332 183.8 214.172 179C215.972 168.8 201.632 170 202.112 167.3C202.292 166.4 203.612 165.8 205.412 165.8C208.412 165.8 211.592 168.2 211.592 168.2L217.052 161Z" fill="white"/>
<path d="M115.94 150.8L117.482 152.074L118.598 150.722L117.405 149.438L115.94 150.8ZM81.62 158.3L83.5899 158.646L83.5908 158.64L81.62 158.3ZM97.46 175.7L99.4212 176.092L99.4275 176.061L99.4328 176.029L97.46 175.7ZM82.64 173L83.9736 171.51L82.4983 170.19L81.1632 171.651L82.64 173ZM74.42 182L72.9432 180.651L71.7722 181.933L72.8773 183.273L74.42 182ZM112.22 175.1L110.251 174.75L110.249 174.758L110.248 174.766L112.22 175.1ZM96.02 158.3L97.9906 158.642L97.9945 158.619L97.9979 158.597L96.02 158.3ZM108.26 160.1L106.815 161.483L108.37 163.108L109.802 161.374L108.26 160.1ZM115.94 150.8C117.405 149.438 117.404 149.437 117.403 149.437C117.403 149.437 117.403 149.436 117.402 149.436C117.401 149.435 117.401 149.434 117.4 149.433C117.397 149.43 117.395 149.428 117.392 149.425C117.387 149.419 117.38 149.412 117.372 149.403C117.355 149.386 117.333 149.363 117.306 149.335C117.251 149.279 117.175 149.202 117.077 149.107C116.882 148.918 116.601 148.656 116.241 148.346C115.521 147.727 114.475 146.911 113.146 146.095C110.497 144.47 106.641 142.8 101.96 142.8V146.8C105.679 146.8 108.813 148.13 111.054 149.505C112.17 150.189 113.044 150.873 113.633 151.379C113.927 151.632 114.148 151.839 114.291 151.977C114.362 152.046 114.413 152.098 114.444 152.13C114.46 152.146 114.47 152.157 114.476 152.162C114.478 152.165 114.479 152.166 114.479 152.166C114.479 152.166 114.479 152.166 114.478 152.165C114.478 152.165 114.478 152.164 114.477 152.164C114.477 152.164 114.477 152.163 114.476 152.163C114.476 152.163 114.475 152.162 115.94 150.8ZM101.96 142.8C89.212 142.8 80.9904 150.194 79.6492 157.96L83.5908 158.64C84.5296 153.205 90.708 146.8 101.96 146.8V142.8ZM79.6501 157.954C78.9256 162.082 79.7094 165.284 81.5001 167.74C83.2331 170.117 85.749 171.571 88.0594 172.588C89.2264 173.102 90.3951 173.526 91.4397 173.898C92.514 174.281 93.4135 174.593 94.1681 174.914C94.9503 175.247 95.3478 175.498 95.521 175.663C95.6051 175.742 95.4507 175.591 95.4872 175.371L99.4328 176.029C99.6643 174.639 99.0805 173.526 98.274 172.761C97.5566 172.08 96.6022 171.603 95.7344 171.234C94.839 170.853 93.7904 170.489 92.7816 170.13C91.743 169.76 90.6936 169.377 89.6706 168.927C87.601 168.016 85.8494 166.916 84.7324 165.384C83.6731 163.931 83.0244 161.868 83.5899 158.646L79.6501 157.954ZM95.4988 175.308C95.5506 175.049 95.6077 175.236 95.1245 175.533C94.6972 175.795 93.8887 176.1 92.54 176.1V180.1C96.2845 180.1 98.9698 178.349 99.4212 176.092L95.4988 175.308ZM92.54 176.1C91.8657 176.1 91.0033 175.887 90.0035 175.462C89.0226 175.046 88.0239 174.474 87.1095 173.876C86.2002 173.282 85.4081 172.683 84.8427 172.233C84.561 172.008 84.3383 171.823 84.1884 171.695C84.1135 171.632 84.057 171.583 84.0206 171.551C84.0024 171.535 83.9892 171.523 83.9813 171.516C83.9773 171.513 83.9747 171.511 83.9734 171.509C83.9728 171.509 83.9725 171.509 83.9725 171.509C83.9725 171.509 83.9726 171.509 83.9728 171.509C83.9729 171.509 83.9731 171.509 83.9731 171.509C83.9733 171.509 83.9736 171.51 82.64 173C81.3064 174.49 81.3067 174.491 81.307 174.491C81.3071 174.491 81.3075 174.491 81.3077 174.492C81.3083 174.492 81.3089 174.493 81.3096 174.493C81.311 174.495 81.3128 174.496 81.3149 174.498C81.3191 174.502 81.3247 174.507 81.3317 174.513C81.3456 174.525 81.3649 174.542 81.3895 174.564C81.4386 174.607 81.5087 174.667 81.5978 174.743C81.7761 174.895 82.0315 175.107 82.3498 175.361C82.9844 175.867 83.8798 176.543 84.9205 177.224C85.9561 177.901 87.1699 178.604 88.439 179.144C89.6892 179.675 91.1143 180.1 92.54 180.1V176.1ZM81.1632 171.651L72.9432 180.651L75.8968 183.349L84.1168 174.349L81.1632 171.651ZM74.42 182C72.8773 183.273 72.8778 183.273 72.8783 183.274C72.8786 183.274 72.8791 183.275 72.8796 183.276C72.8804 183.277 72.8814 183.278 72.8825 183.279C72.8846 183.282 72.887 183.285 72.8899 183.288C72.8956 183.295 72.9028 183.303 72.9114 183.314C72.9288 183.334 72.952 183.361 72.9811 183.395C73.0393 183.461 73.1209 183.553 73.2256 183.667C73.4349 183.893 73.737 184.206 74.1283 184.577C74.9094 185.317 76.0543 186.294 77.5341 187.27C80.4901 189.219 84.8433 191.2 90.32 191.2V187.2C85.8367 187.2 82.2399 185.581 79.7359 183.93C78.4857 183.106 77.5231 182.283 76.8792 181.673C76.558 181.369 76.3182 181.119 76.1638 180.952C76.0866 180.869 76.0309 180.806 75.9972 180.767C75.9803 180.748 75.969 180.735 75.9632 180.728C75.9604 180.724 75.9589 180.723 75.9588 180.722C75.9587 180.722 75.9591 180.723 75.9597 180.724C75.96 180.724 75.9605 180.724 75.961 180.725C75.9612 180.725 75.9617 180.726 75.9618 180.726C75.9623 180.727 75.9627 180.727 74.42 182ZM90.32 191.2C103.827 191.2 112.782 183.751 114.192 175.434L110.248 174.766C109.258 180.609 102.493 187.2 90.32 187.2V191.2ZM114.189 175.45C114.881 171.556 114.009 168.511 112.161 166.172C110.387 163.928 107.851 162.511 105.531 161.493C104.356 160.978 103.178 160.542 102.124 160.156C101.043 159.76 100.127 159.428 99.362 159.093C98.5687 158.746 98.1503 158.482 97.9616 158.304C97.8481 158.197 98.0394 158.36 97.9906 158.642L94.0494 157.958C93.8056 159.365 94.4319 160.475 95.2196 161.216C95.932 161.887 96.881 162.373 97.7573 162.757C98.6623 163.153 99.7182 163.534 100.748 163.911C101.804 164.299 102.876 164.697 103.924 165.157C106.052 166.089 107.862 167.184 109.023 168.653C110.108 170.026 110.759 171.894 110.251 174.75L114.189 175.45ZM97.9979 158.597C97.9853 158.68 97.9758 158.532 98.2984 158.32C98.6048 158.118 99.1678 157.9 100.04 157.9V153.9C97.1328 153.9 94.4307 155.413 94.0421 158.003L97.9979 158.597ZM100.04 157.9C101.53 157.9 103.172 158.674 104.593 159.649C105.273 160.116 105.841 160.585 106.237 160.938C106.434 161.113 106.586 161.257 106.685 161.354C106.735 161.402 106.771 161.438 106.793 161.46C106.804 161.471 106.811 161.479 106.815 161.483C106.817 161.485 106.818 161.486 106.818 161.486C106.818 161.486 106.818 161.486 106.817 161.485C106.817 161.485 106.817 161.485 106.816 161.484C106.816 161.484 106.816 161.484 106.816 161.484C106.816 161.483 106.815 161.483 108.26 160.1C109.705 158.717 109.704 158.717 109.704 158.716C109.704 158.716 109.704 158.716 109.703 158.715C109.703 158.715 109.702 158.714 109.701 158.713C109.7 158.712 109.698 158.71 109.696 158.708C109.692 158.704 109.687 158.699 109.682 158.693C109.67 158.681 109.654 158.665 109.635 158.645C109.596 158.606 109.542 158.552 109.473 158.486C109.336 158.352 109.141 158.168 108.896 157.95C108.407 157.515 107.707 156.934 106.857 156.351C105.218 155.226 102.75 153.9 100.04 153.9V157.9ZM109.802 161.374L117.482 152.074L114.398 149.526L106.718 158.826L109.802 161.374ZM114.221 172.4L112.253 172.043L112.251 172.055L114.221 172.4ZM147.641 173.6L145.672 173.252L147.641 173.6ZM135.641 173.6L137.611 173.945L137.613 173.937L137.614 173.929L135.641 173.6ZM126.221 172.4L124.26 172.008L124.255 172.031L124.251 172.055L126.221 172.4ZM112.251 172.055C111.316 177.396 112.658 182.208 115.622 185.695C118.579 189.174 123.037 191.2 128.081 191.2V187.2C124.126 187.2 120.813 185.626 118.67 183.105C116.534 180.592 115.446 177.004 116.191 172.745L112.251 172.055ZM128.081 191.2C140.549 191.2 148.079 182.604 149.611 173.948L145.672 173.252C144.443 180.196 138.413 187.2 128.081 187.2V191.2ZM149.611 173.948C150.382 169.586 149.543 164.83 146.91 161.118C144.231 157.341 139.8 154.8 133.781 154.8V158.8C138.562 158.8 141.751 160.759 143.647 163.432C145.589 166.17 146.28 169.814 145.672 173.252L149.611 173.948ZM133.781 154.8C122.7 154.8 114.18 161.41 112.253 172.043L116.189 172.757C117.742 164.19 124.463 158.8 133.781 158.8V154.8ZM132.101 168.4C132.656 168.4 132.938 168.533 133.09 168.642C133.25 168.758 133.427 168.963 133.575 169.357C133.9 170.217 133.947 171.599 133.668 173.271L137.614 173.929C137.935 172.001 138.012 169.783 137.317 167.943C136.956 166.987 136.36 166.067 135.425 165.395C134.482 164.717 133.346 164.4 132.101 164.4V168.4ZM133.671 173.255C133.509 174.179 133.058 175.351 132.337 176.245C131.644 177.103 130.807 177.6 129.761 177.6V181.6C132.315 181.6 134.208 180.297 135.451 178.755C136.665 177.249 137.353 175.421 137.611 173.945L133.671 173.255ZM129.761 177.6C129.117 177.6 128.833 177.428 128.688 177.302C128.513 177.151 128.325 176.871 128.187 176.37C127.895 175.306 127.995 173.863 128.191 172.745L124.251 172.055C124.027 173.336 123.798 175.494 124.33 177.43C124.605 178.429 125.117 179.499 126.066 180.323C127.045 181.172 128.305 181.6 129.761 181.6V177.6ZM128.182 172.792C128.338 172.014 128.686 170.826 129.355 169.878C129.975 169 130.799 168.4 132.101 168.4V164.4C129.203 164.4 127.267 165.9 126.087 167.572C124.956 169.174 124.464 170.986 124.26 172.008L128.182 172.792ZM183.752 173L185.721 173.347L185.722 173.344L183.752 173ZM165.932 159.8V161.8H166.483L166.957 161.517L165.932 159.8ZM165.332 159.8L163.371 160.192L163.692 161.8H165.332V159.8ZM164.852 157.4L166.813 157.008L166.472 155.305L164.738 155.403L164.852 157.4ZM154.292 158L154.178 156.003L152.55 156.096L152.313 157.709L154.292 158ZM149.792 188.6L147.813 188.309L147.459 190.715L149.888 190.598L149.792 188.6ZM162.212 188L162.308 189.998L163.932 189.919L164.187 188.314L162.212 188ZM165.212 169.1L164.384 167.279L163.405 167.724L163.236 168.786L165.212 169.1ZM171.752 173L173.721 173.35L173.722 173.345L171.752 173ZM169.052 188.18L167.083 187.83L167.052 188.004V188.18H169.052ZM181.112 188L181.152 190L182.796 189.967L183.081 188.347L181.112 188ZM185.722 173.344C186.764 167.366 186.435 162.777 184.239 159.661C181.963 156.43 178.148 155.4 173.852 155.4V159.4C177.655 159.4 179.811 160.32 180.969 161.964C182.209 163.723 182.779 166.934 181.781 172.656L185.722 173.344ZM173.852 155.4C171.533 155.4 169.279 156.103 167.683 156.744C166.869 157.072 166.188 157.399 165.707 157.646C165.465 157.77 165.273 157.875 165.137 157.951C165.069 157.989 165.015 158.019 164.977 158.042C164.957 158.053 164.942 158.062 164.93 158.069C164.924 158.072 164.919 158.075 164.915 158.078C164.913 158.079 164.912 158.08 164.91 158.081C164.909 158.081 164.909 158.081 164.908 158.082C164.908 158.082 164.907 158.082 164.907 158.082C164.907 158.083 164.906 158.083 165.932 159.8C166.957 161.517 166.957 161.517 166.956 161.518C166.956 161.518 166.956 161.518 166.956 161.518C166.955 161.518 166.955 161.518 166.955 161.519C166.954 161.519 166.954 161.519 166.954 161.519C166.954 161.519 166.955 161.518 166.957 161.517C166.961 161.515 166.968 161.511 166.979 161.504C167.001 161.492 167.037 161.471 167.087 161.443C167.186 161.388 167.338 161.305 167.535 161.204C167.93 161.001 168.497 160.728 169.175 160.456C170.565 159.897 172.27 159.4 173.852 159.4V155.4ZM165.932 157.8H165.332V161.8H165.932V157.8ZM167.293 159.408L166.813 157.008L162.891 157.792L163.371 160.192L167.293 159.408ZM164.738 155.403L154.178 156.003L154.405 159.997L164.965 159.397L164.738 155.403ZM152.313 157.709L147.813 188.309L151.77 188.891L156.27 158.291L152.313 157.709ZM149.888 190.598L162.308 189.998L162.115 186.002L149.695 186.602L149.888 190.598ZM164.187 188.314L167.187 169.414L163.236 168.786L160.236 187.686L164.187 188.314ZM165.212 169.1C166.039 170.921 166.039 170.921 166.039 170.921C166.039 170.921 166.039 170.921 166.039 170.921C166.038 170.921 166.038 170.921 166.038 170.921C166.038 170.921 166.038 170.922 166.038 170.922C166.038 170.922 166.038 170.921 166.039 170.921C166.042 170.92 166.047 170.917 166.054 170.914C166.069 170.908 166.092 170.897 166.124 170.883C166.188 170.856 166.285 170.814 166.408 170.764C166.656 170.663 167.003 170.528 167.399 170.394C168.25 170.106 169.099 169.9 169.652 169.9V165.9C168.405 165.9 167.033 166.294 166.115 166.606C165.625 166.772 165.2 166.937 164.897 167.061C164.744 167.123 164.621 167.175 164.533 167.213C164.49 167.232 164.455 167.248 164.43 167.259C164.417 167.264 164.407 167.269 164.399 167.272C164.395 167.274 164.392 167.276 164.39 167.277C164.388 167.277 164.387 167.278 164.386 167.278C164.386 167.278 164.386 167.279 164.385 167.279C164.385 167.279 164.385 167.279 164.385 167.279C164.384 167.279 164.384 167.279 165.212 169.1ZM169.652 169.9C169.709 169.9 169.652 169.903 169.599 169.857C169.581 169.841 169.659 169.903 169.744 170.165C169.922 170.718 169.96 171.635 169.782 172.655L173.722 173.345C173.963 171.965 174.001 170.332 173.55 168.935C173.319 168.222 172.924 167.459 172.251 166.862C171.542 166.234 170.645 165.9 169.652 165.9V169.9ZM169.783 172.65L167.083 187.83L171.021 188.53L173.721 173.35L169.783 172.65ZM167.052 188.18C167.052 189.301 167.901 189.821 168.005 189.885C168.228 190.022 168.426 190.081 168.486 190.099C168.637 190.144 168.761 190.16 168.789 190.164C168.876 190.176 168.949 190.18 168.972 190.181C169.036 190.185 169.102 190.187 169.152 190.188C169.261 190.189 169.407 190.19 169.575 190.189C169.915 190.189 170.394 190.184 170.961 190.177C172.097 190.163 173.608 190.138 175.117 190.112C176.626 190.086 178.134 190.058 179.265 190.036C179.831 190.025 180.303 190.016 180.633 190.01C180.798 190.007 180.927 190.004 181.016 190.002C181.06 190.001 181.094 190.001 181.117 190C181.128 190 181.137 190 181.143 190C181.146 190 181.148 190 181.149 190C181.15 190 181.151 190 181.151 190C181.151 190 181.151 190 181.151 190C181.151 190 181.152 190 181.112 188C181.072 186 181.072 186 181.072 186C181.072 186 181.072 186 181.071 186C181.071 186 181.07 186 181.07 186C181.068 186 181.066 186.001 181.063 186.001C181.057 186.001 181.049 186.001 181.037 186.001C181.015 186.002 180.981 186.002 180.937 186.003C180.849 186.005 180.719 186.007 180.554 186.011C180.225 186.017 179.754 186.026 179.189 186.037C178.059 186.058 176.553 186.087 175.047 186.113C173.54 186.139 172.037 186.163 170.911 186.177C170.347 186.184 169.884 186.189 169.565 186.189C169.403 186.19 169.29 186.189 169.222 186.188C169.184 186.188 169.182 186.187 169.201 186.188C169.201 186.188 169.257 186.191 169.332 186.201C169.355 186.204 169.474 186.22 169.622 186.264C169.681 186.281 169.877 186.34 170.099 186.477C170.202 186.54 171.052 187.059 171.052 188.18H167.052ZM183.081 188.347L185.721 173.347L181.782 172.653L179.142 187.653L183.081 188.347ZM217.052 161L218.645 162.208L219.826 160.651L218.297 159.435L217.052 161ZM188.732 166.7L190.701 167.051L190.702 167.042L188.732 166.7ZM200.132 178.7L202.093 179.092L202.097 179.071L202.101 179.05L200.132 178.7ZM189.572 177.2L190.84 175.653L189.233 174.336L187.978 175.992L189.572 177.2ZM184.112 184.4L182.518 183.192L181.491 184.546L182.662 185.777L184.112 184.4ZM214.172 179L212.202 178.652L212.202 178.655L214.172 179ZM202.112 167.3L200.151 166.908L200.146 166.929L200.143 166.95L202.112 167.3ZM211.592 168.2L210.387 169.796L211.98 170.998L213.185 169.408L211.592 168.2ZM217.052 161C218.297 159.435 218.296 159.434 218.296 159.434C218.295 159.434 218.295 159.433 218.294 159.433C218.294 159.432 218.293 159.432 218.292 159.431C218.29 159.429 218.287 159.427 218.285 159.425C218.279 159.421 218.273 159.416 218.265 159.41C218.249 159.397 218.228 159.381 218.202 159.361C218.149 159.321 218.077 159.267 217.985 159.2C217.8 159.067 217.537 158.883 217.202 158.665C216.533 158.232 215.57 157.661 214.367 157.092C211.972 155.959 208.555 154.8 204.572 154.8V158.8C207.789 158.8 210.612 159.741 212.657 160.708C213.674 161.189 214.481 161.668 215.026 162.022C215.299 162.199 215.504 162.343 215.637 162.439C215.703 162.487 215.751 162.523 215.78 162.544C215.794 162.555 215.803 162.563 215.808 162.566C215.81 162.568 215.811 162.569 215.811 162.569C215.811 162.569 215.811 162.568 215.81 162.568C215.809 162.567 215.809 162.567 215.808 162.567C215.808 162.566 215.808 162.566 215.808 162.566C215.807 162.566 215.807 162.565 217.052 161ZM204.572 154.8C194.278 154.8 187.751 160.649 186.761 166.358L190.702 167.042C191.273 163.751 195.665 158.8 204.572 158.8V154.8ZM186.763 166.349C186.193 169.543 186.732 172.079 188.112 174.032C189.445 175.919 191.386 177.004 193.12 177.705C194.771 178.371 196.7 178.843 197.665 179.152C197.936 179.238 198.146 179.314 198.309 179.383C198.388 179.417 198.447 179.445 198.49 179.467C198.533 179.49 198.551 179.502 198.55 179.502C198.55 179.502 198.52 179.481 198.476 179.435C198.431 179.389 198.365 179.31 198.302 179.195C198.158 178.928 198.115 178.619 198.163 178.35L202.101 179.05C202.209 178.444 202.114 177.832 201.82 177.29C201.549 176.789 201.165 176.45 200.847 176.227C200.246 175.806 199.492 175.536 198.884 175.342C197.448 174.882 196.125 174.604 194.618 173.995C193.195 173.421 192.072 172.706 191.379 171.724C190.731 170.808 190.28 169.407 190.701 167.051L186.763 166.349ZM198.171 178.308C198.268 177.821 198.61 177.794 198.268 177.932C197.945 178.062 197.299 178.2 196.232 178.2V182.2C197.565 182.2 198.779 182.038 199.761 181.643C200.723 181.256 201.815 180.479 202.093 179.092L198.171 178.308ZM196.232 178.2C195.29 178.2 194.014 177.687 192.782 176.971C192.207 176.637 191.711 176.3 191.36 176.047C191.186 175.921 191.049 175.817 190.959 175.748C190.914 175.713 190.881 175.687 190.861 175.67C190.851 175.662 190.844 175.657 190.84 175.654C190.838 175.652 190.837 175.651 190.837 175.651C190.837 175.651 190.837 175.651 190.838 175.652C190.838 175.652 190.838 175.652 190.839 175.652C190.839 175.652 190.839 175.653 190.839 175.653C190.839 175.653 190.84 175.653 189.572 177.2C188.304 178.747 188.304 178.747 188.305 178.747C188.305 178.747 188.305 178.748 188.305 178.748C188.306 178.748 188.306 178.749 188.307 178.749C188.308 178.75 188.31 178.752 188.311 178.753C188.315 178.756 188.319 178.759 188.324 178.764C188.335 178.772 188.349 178.783 188.366 178.797C188.401 178.825 188.449 178.863 188.51 178.91C188.632 179.005 188.805 179.136 189.021 179.291C189.449 179.6 190.056 180.013 190.771 180.429C192.119 181.213 194.174 182.2 196.232 182.2V178.2ZM187.978 175.992L182.518 183.192L185.705 185.608L191.165 178.408L187.978 175.992ZM184.112 184.4C182.662 185.777 182.662 185.778 182.663 185.779C182.663 185.779 182.664 185.78 182.665 185.781C182.666 185.782 182.667 185.783 182.668 185.784C182.67 185.786 182.673 185.789 182.676 185.792C182.682 185.798 182.689 185.805 182.697 185.814C182.713 185.83 182.734 185.852 182.76 185.877C182.811 185.927 182.881 185.995 182.969 186.076C183.146 186.239 183.397 186.46 183.723 186.718C184.375 187.234 185.327 187.903 186.58 188.567C189.093 189.899 192.802 191.2 197.672 191.2V187.2C193.541 187.2 190.47 186.101 188.453 185.033C187.441 184.497 186.691 183.966 186.207 183.582C185.964 183.39 185.789 183.236 185.681 183.136C185.627 183.087 185.591 183.051 185.571 183.031C185.561 183.021 185.555 183.015 185.553 183.014C185.553 183.013 185.553 183.013 185.554 183.015C185.555 183.015 185.556 183.016 185.557 183.018C185.558 183.018 185.559 183.019 185.559 183.02C185.56 183.02 185.56 183.021 185.56 183.021C185.561 183.022 185.562 183.023 184.112 184.4ZM197.672 191.2C207.899 191.2 215.081 185.405 216.142 179.345L212.202 178.655C211.582 182.195 206.645 187.2 197.672 187.2V191.2ZM216.141 179.348C216.68 176.297 216.023 173.865 214.545 172.004C213.139 170.235 211.146 169.183 209.376 168.479C207.715 167.818 205.67 167.274 204.693 166.94C204.081 166.731 203.814 166.594 203.731 166.534C203.688 166.503 204.214 166.901 204.081 167.65L200.143 166.95C199.889 168.374 200.759 169.325 201.401 169.785C202.003 170.216 202.763 170.508 203.4 170.725C204.921 171.245 206.259 171.544 207.898 172.196C209.428 172.804 210.652 173.534 211.413 174.493C212.103 175.36 212.564 176.603 212.202 178.652L216.141 179.348ZM204.073 167.692C203.984 168.135 203.694 168.164 203.982 168.033C204.23 167.921 204.709 167.8 205.412 167.8V163.8C204.314 163.8 203.234 163.979 202.327 164.392C201.459 164.786 200.419 165.565 200.151 166.908L204.073 167.692ZM205.412 167.8C206.438 167.8 207.644 168.231 208.714 168.78C209.224 169.041 209.655 169.304 209.955 169.5C210.105 169.598 210.22 169.677 210.295 169.73C210.332 169.756 210.359 169.776 210.374 169.787C210.382 169.793 210.387 169.797 210.389 169.798C210.39 169.799 210.391 169.799 210.39 169.799C210.39 169.799 210.39 169.799 210.389 169.798C210.389 169.798 210.389 169.798 210.388 169.797C210.388 169.797 210.388 169.797 210.388 169.797C210.387 169.797 210.387 169.796 211.592 168.2C212.797 166.604 212.796 166.603 212.796 166.603C212.796 166.603 212.795 166.603 212.795 166.602C212.794 166.602 212.794 166.602 212.793 166.601C212.792 166.6 212.79 166.599 212.788 166.598C212.785 166.595 212.781 166.592 212.776 166.588C212.766 166.581 212.752 166.571 212.736 166.559C212.704 166.535 212.66 166.503 212.604 166.464C212.493 166.385 212.336 166.277 212.141 166.15C211.751 165.896 211.199 165.559 210.539 165.22C209.27 164.569 207.385 163.8 205.412 163.8V167.8ZM213.185 169.408L218.645 162.208L215.458 159.792L209.998 166.992L213.185 169.408Z" fill="black"/>
<path d="M56.84 100.4C58.52 91.1 49.52 88.4 41.6 88.4C34.22 88.4 24.98 89 24.98 89L17.6 131C17.6 131 26.18 131.6 33.98 131.6C45.38 131.6 54.98 128 56.6 119C58.04 110.6 49.4 108.5 49.46 108.5L49.52 107.9C49.52 107.9 55.94 105.8 56.84 100.4ZM32.9 113.9H37.1C41.9 113.9 44.12 114.8 43.64 117.5C43.16 120.2 40.58 121.16 35.78 121.16H31.58L32.9 113.9ZM35.66 98.3H39.86C43.16 98.3 44.54 98.9 44.12 101.3C43.7 103.7 42.08 104.3 38.78 104.3H34.58L35.66 98.3ZM75.4142 100.4C66.1142 100.4 59.9942 108.2 58.4942 116.6C57.4142 122.6 60.5342 132.2 71.3342 132.2C74.9342 132.2 77.7542 129.8 77.7542 129.8H78.3542L78.5342 132.2L89.1542 131.6L94.2542 101L82.4342 99.8L81.7142 102.2H81.1142C81.1142 102.2 78.7142 100.4 75.4142 100.4ZM74.0342 122C71.0342 122 70.3142 119.3 70.9142 116C71.3342 113.6 73.0142 110.6 76.0142 110.6C78.7142 110.6 80.0342 111.8 80.0342 111.8L78.8342 120.2C78.8342 120.2 76.7342 122 74.0342 122ZM133.102 131H146.002L148.342 116C150.082 104.6 145.942 100.4 138.142 100.4C133.342 100.4 127.342 104 127.342 104C127.342 104 124.942 100.4 119.242 100.4C115.342 100.4 111.322 102.8 111.322 102.8H110.722L110.242 100.4L99.6823 101L94.8823 131.6L107.302 131L110.662 111.8C110.662 111.8 112.342 110 114.562 110C116.662 110 117.142 112.4 116.542 116L113.842 131.3L126.502 131L129.862 111.8C129.862 111.8 131.662 110 133.702 110C135.862 110 136.462 111.8 135.742 116L133.102 131ZM153.394 111.2H157.294L154.294 131.6L166.414 131L169.294 111.2H176.194L178.474 101.6H171.274L171.574 99.8C171.994 97.4 173.134 96.2 174.634 96.2C176.734 96.2 178.054 97.1 178.054 97.1L182.254 88.7C182.254 88.7 178.414 86.6 172.774 86.6C167.014 86.6 160.894 90.8 159.274 99.8L158.974 101.6H154.474L153.394 111.2ZM176.916 115.4C175.236 125 181.776 132.2 190.776 132.2C202.176 132.2 208.956 124.4 210.336 116.6C211.716 108.8 207.276 99.8 196.476 99.8C186.276 99.8 178.656 105.8 176.916 115.4ZM194.796 109.4C198.396 109.4 198.936 113 198.336 116.6C197.916 119 196.056 122.6 192.456 122.6C188.256 122.6 188.496 117.8 188.916 115.4C189.276 113.6 190.596 109.4 194.796 109.4ZM242.127 104.6C242.127 104.6 239.547 100.4 234.147 100.4C230.547 100.4 228.027 102.8 228.027 102.8H227.427L227.247 100.4L216.987 101L212.187 131.6L224.607 131L227.607 112.1C227.607 112.1 228.867 111.2 230.487 111.2C232.887 111.2 234.567 113.6 234.567 113.6L242.127 104.6ZM256.645 100.4C247.345 100.4 241.225 108.2 239.725 116.6C238.645 122.6 241.765 132.2 252.565 132.2C256.165 132.2 258.985 129.8 258.985 129.8H259.585L259.765 132.2L270.385 131.6L277.705 88.4L265.885 87.2L262.945 102.2H262.345C262.345 102.2 259.945 100.4 256.645 100.4ZM255.265 122C252.265 122 251.545 119.3 252.145 116C252.565 113.6 254.245 110.6 257.245 110.6C259.945 110.6 261.265 111.8 261.265 111.8L260.065 120.2C260.065 120.2 257.965 122 255.265 122Z" fill="white"/>
<path d="M56.84 100.4L54.8719 100.044L54.8694 100.058L54.8672 100.071L56.84 100.4ZM24.98 89L24.8504 87.0042L23.2822 87.106L23.0102 88.6539L24.98 89ZM17.6 131L15.6302 130.654L15.246 132.84L17.4605 132.995L17.6 131ZM56.6 119L58.5684 119.354L58.5698 119.346L58.5712 119.338L56.6 119ZM49.46 108.5V110.5H51.27L51.4501 108.699L49.46 108.5ZM49.52 107.9L48.8982 105.999L47.6596 106.404L47.5299 107.701L49.52 107.9ZM32.9 113.9V111.9H31.2308L30.9323 113.542L32.9 113.9ZM43.64 117.5L45.6091 117.85L45.6091 117.85L43.64 117.5ZM31.58 121.16L29.6123 120.802L29.1836 123.16H31.58V121.16ZM35.66 98.3V96.3H33.9879L33.6916 97.9457L35.66 98.3ZM44.12 101.3L42.1499 100.955L42.1499 100.955L44.12 101.3ZM34.58 104.3L32.6116 103.946L32.1879 106.3H34.58V104.3ZM58.8081 100.756C59.2886 98.0957 59.0285 95.7515 58.0924 93.7531C57.1597 91.7623 55.6336 90.2797 53.8571 89.2024C50.3711 87.0884 45.7108 86.4 41.6 86.4V90.4C45.4092 90.4 49.2089 91.0616 51.7829 92.6226C53.0364 93.3828 53.9403 94.319 54.4701 95.45C54.9965 96.5735 55.2314 98.0543 54.8719 100.044L58.8081 100.756ZM41.6 86.4C37.8645 86.4 33.6739 86.5516 30.4298 86.7021C28.805 86.7775 27.412 86.8529 26.4246 86.9095C25.9309 86.9378 25.5384 86.9614 25.2688 86.978C25.134 86.9863 25.03 86.9928 24.9593 86.9972C24.924 86.9995 24.897 87.0012 24.8788 87.0024C24.8696 87.003 24.8627 87.0034 24.8579 87.0037C24.8556 87.0039 24.8538 87.004 24.8525 87.0041C24.8519 87.0041 24.8514 87.0041 24.851 87.0042C24.8509 87.0042 24.8507 87.0042 24.8506 87.0042C24.8505 87.0042 24.8504 87.0042 24.98 89C25.1096 90.9958 25.1096 90.9958 25.1096 90.9958C25.1097 90.9958 25.1097 90.9958 25.1098 90.9958C25.11 90.9958 25.1104 90.9957 25.1109 90.9957C25.1119 90.9956 25.1134 90.9955 25.1155 90.9954C25.1197 90.9951 25.1261 90.9947 25.1347 90.9942C25.1518 90.9931 25.1777 90.9914 25.2118 90.9893C25.2801 90.9849 25.3818 90.9786 25.5141 90.9705C25.7786 90.9542 26.1657 90.9309 26.6535 90.903C27.6293 90.8471 29.0075 90.7724 30.6152 90.6978C33.8361 90.5484 37.9555 90.4 41.6 90.4V86.4ZM23.0102 88.6539L15.6302 130.654L19.5698 131.346L26.9498 89.3461L23.0102 88.6539ZM17.6 131C17.4605 132.995 17.4606 132.995 17.4607 132.995C17.4608 132.995 17.4609 132.995 17.4611 132.995C17.4615 132.995 17.4619 132.995 17.4625 132.995C17.4638 132.995 17.4655 132.995 17.4677 132.996C17.4722 132.996 17.4788 132.996 17.4873 132.997C17.5045 132.998 17.5297 133 17.5628 133.002C17.629 133.007 17.7264 133.013 17.8529 133.021C18.1057 133.038 18.4746 133.062 18.9413 133.09C19.8744 133.147 21.1992 133.222 22.769 133.298C25.9044 133.448 30.0349 133.6 33.98 133.6V129.6C30.1251 129.6 26.0656 129.452 22.961 129.302C21.4108 129.228 20.1031 129.153 19.1837 129.097C18.7241 129.07 18.3618 129.046 18.115 129.03C17.9915 129.022 17.897 129.016 17.8337 129.011C17.802 129.009 17.7782 129.008 17.7624 129.006C17.7545 129.006 17.7486 129.006 17.7448 129.005C17.7429 129.005 17.7415 129.005 17.7406 129.005C17.7402 129.005 17.7398 129.005 17.7397 129.005C17.7396 129.005 17.7395 129.005 17.7395 129.005C17.7395 129.005 17.7395 129.005 17.6 131ZM33.98 133.6C39.8536 133.6 45.4479 132.678 49.8559 130.462C54.3288 128.213 57.6256 124.592 58.5684 119.354L54.6316 118.646C53.9544 122.408 51.6412 125.087 48.0591 126.888C44.4121 128.722 39.5064 129.6 33.98 129.6V133.6ZM58.5712 119.338C59.4399 114.271 57.2085 110.964 54.7954 109.037C53.6249 108.102 52.4217 107.492 51.5291 107.116C51.0788 106.927 50.6976 106.792 50.4255 106.704C50.2889 106.66 50.1807 106.627 50.1073 106.606C50.0892 106.601 50.0737 106.596 50.0614 106.593C50.0471 106.589 50.0423 106.587 50.0378 106.586C50.0262 106.582 50.0478 106.589 50.0757 106.598C50.0847 106.6 50.103 106.606 50.1261 106.615C50.1402 106.62 50.1976 106.64 50.2689 106.671C50.3101 106.69 50.4201 106.746 50.4879 106.785C50.6206 106.872 51.0466 107.283 51.2722 107.655C51.4494 108.702 50.6193 110.13 50.0608 110.408C49.8574 110.46 49.5549 110.498 49.46 110.5V106.5C49.3648 106.502 49.0622 106.54 48.8587 106.592C48.3 106.871 47.4699 108.298 47.6472 109.346C47.8728 109.717 48.299 110.129 48.4318 110.216C48.4997 110.255 48.6099 110.311 48.6514 110.33C48.7233 110.361 48.7815 110.382 48.7968 110.387C48.821 110.396 48.8406 110.402 48.8513 110.406C48.8857 110.417 48.9178 110.426 48.9208 110.427C48.9564 110.437 48.9485 110.435 48.985 110.445C49.0308 110.459 49.1006 110.48 49.1918 110.509C49.375 110.569 49.6477 110.664 49.9765 110.803C50.6421 111.083 51.4976 111.523 52.2996 112.163C53.8315 113.386 55.2001 115.329 54.6288 118.662L58.5712 119.338ZM51.4501 108.699L51.5101 108.099L47.5299 107.701L47.4699 108.301L51.4501 108.699ZM49.52 107.9C50.1418 109.801 50.1425 109.801 50.1432 109.8C50.1435 109.8 50.1442 109.8 50.1448 109.8C50.1458 109.8 50.147 109.799 50.1483 109.799C50.1509 109.798 50.1539 109.797 50.1572 109.796C50.164 109.794 50.1723 109.791 50.1821 109.787C50.2017 109.781 50.2274 109.772 50.2589 109.761C50.3217 109.739 50.4076 109.707 50.5135 109.667C50.725 109.586 51.018 109.467 51.3679 109.307C52.0639 108.989 53.0061 108.5 53.988 107.814C55.9162 106.467 58.237 104.183 58.8128 100.729L54.8672 100.071C54.543 102.017 53.2038 103.483 51.697 104.536C50.9614 105.049 50.2424 105.423 49.7065 105.668C49.4405 105.79 49.2248 105.877 49.0817 105.932C49.0103 105.959 48.9574 105.978 48.9258 105.989C48.91 105.995 48.8995 105.999 48.8948 106C48.8925 106.001 48.8915 106.001 48.8921 106.001C48.8924 106.001 48.893 106.001 48.894 106C48.8945 106 48.8951 106 48.8958 106C48.8962 106 48.8968 106 48.897 106C48.8976 105.999 48.8982 105.999 49.52 107.9ZM32.9 115.9H37.1V111.9H32.9V115.9ZM37.1 115.9C39.4887 115.9 40.808 116.144 41.4361 116.466C41.566 116.533 41.6303 116.586 41.6575 116.613C41.6709 116.626 41.677 116.634 41.6789 116.636C41.6807 116.639 41.6813 116.64 41.6819 116.641C41.6825 116.643 41.6854 116.649 41.6889 116.663C41.6926 116.677 41.6976 116.702 41.7009 116.74C41.7076 116.818 41.7064 116.95 41.6709 117.15L45.6091 117.85C45.7777 116.902 45.7466 115.897 45.3094 114.956C44.8648 113.999 44.1095 113.343 43.2639 112.908C41.702 112.106 39.5113 111.9 37.1 111.9V115.9ZM41.6709 117.15C41.5581 117.784 41.2756 118.179 40.5207 118.514C39.6097 118.917 38.11 119.16 35.78 119.16V123.16C38.25 123.16 40.4403 122.923 42.1394 122.171C43.9944 121.351 45.2419 119.916 45.6091 117.85L41.6709 117.15ZM35.78 119.16H31.58V123.16H35.78V119.16ZM33.5477 121.518L34.8677 114.258L30.9323 113.542L29.6123 120.802L33.5477 121.518ZM35.66 100.3H39.86V96.3H35.66V100.3ZM39.86 100.3C40.6378 100.3 41.224 100.336 41.6614 100.406C42.1111 100.478 42.2792 100.567 42.3089 100.586C42.3134 100.589 42.2839 100.57 42.2474 100.523C42.21 100.475 42.1914 100.43 42.1851 100.41C42.1786 100.389 42.2248 100.527 42.1499 100.955L46.0901 101.645C46.2252 100.873 46.2564 100.036 46.0062 99.2274C45.7369 98.3572 45.1905 97.6797 44.4611 97.2142C43.7858 96.7831 43.0164 96.572 42.2924 96.4563C41.556 96.3387 40.7322 96.3 39.86 96.3V100.3ZM42.1499 100.955C42.0233 101.679 41.8121 101.82 41.6112 101.924C41.2025 102.135 40.3996 102.3 38.78 102.3V106.3C40.4604 106.3 42.1175 106.165 43.4488 105.476C44.9879 104.68 45.7967 103.321 46.0901 101.645L42.1499 100.955ZM38.78 102.3H34.58V106.3H38.78V102.3ZM36.5484 104.654L37.6284 98.6543L33.6916 97.9457L32.6116 103.946L36.5484 104.654ZM58.4942 116.6L60.4626 116.954L60.4631 116.952L58.4942 116.6ZM77.7542 129.8V127.8H77.0184L76.458 128.277L77.7542 129.8ZM78.3542 129.8L80.3486 129.65L80.2098 127.8H78.3542V129.8ZM78.5342 132.2L76.5398 132.35L76.6867 134.308L78.647 134.197L78.5342 132.2ZM89.1542 131.6L89.267 133.597L90.864 133.507L91.127 131.929L89.1542 131.6ZM94.2542 101L96.227 101.329L96.5775 99.2256L94.4562 99.0102L94.2542 101ZM82.4342 99.8L82.6362 97.8102L80.9931 97.6434L80.5186 99.2253L82.4342 99.8ZM81.7142 102.2V104.2H83.2023L83.6299 102.775L81.7142 102.2ZM81.1142 102.2L79.9142 103.8L80.4476 104.2H81.1142V102.2ZM70.9142 116L72.882 116.358L72.8843 116.345L70.9142 116ZM80.0342 111.8L82.0141 112.083L82.1641 111.033L81.3796 110.32L80.0342 111.8ZM78.8342 120.2L80.1358 121.719L80.7076 121.228L80.8141 120.483L78.8342 120.2ZM75.4142 98.4C64.7923 98.4 58.125 107.29 56.5254 116.248L60.4631 116.952C61.8634 109.11 67.4361 102.4 75.4142 102.4V98.4ZM56.5259 116.246C55.9063 119.688 56.4802 124.105 58.7696 127.72C61.1269 131.442 65.2408 134.2 71.3342 134.2V130.2C66.6276 130.2 63.7815 128.158 62.1489 125.58C60.4483 122.895 60.0022 119.512 60.4626 116.954L56.5259 116.246ZM71.3342 134.2C73.5662 134.2 75.4947 133.461 76.8162 132.775C77.4862 132.427 78.0272 132.078 78.4062 131.812C78.5964 131.679 78.7477 131.565 78.856 131.48C78.9103 131.438 78.9539 131.403 78.9864 131.376C79.0027 131.363 79.0162 131.352 79.0269 131.343C79.0322 131.338 79.0369 131.335 79.0408 131.331C79.0428 131.33 79.0446 131.328 79.0462 131.327C79.047 131.326 79.0477 131.325 79.0484 131.325C79.0488 131.324 79.0493 131.324 79.0495 131.324C79.05 131.323 79.0505 131.323 77.7542 129.8C76.458 128.277 76.4584 128.277 76.4589 128.276C76.459 128.276 76.4595 128.276 76.4597 128.275C76.4603 128.275 76.4608 128.275 76.4612 128.274C76.4622 128.273 76.4629 128.273 76.4635 128.272C76.4647 128.271 76.4652 128.271 76.4651 128.271C76.4649 128.271 76.4622 128.273 76.4569 128.278C76.4464 128.286 76.4259 128.303 76.396 128.326C76.3361 128.373 76.2389 128.446 76.1085 128.538C75.8463 128.722 75.4572 128.973 74.9722 129.225C73.9838 129.739 72.7022 130.2 71.3342 130.2V134.2ZM77.7542 131.8H78.3542V127.8H77.7542V131.8ZM76.3598 129.95L76.5398 132.35L80.5286 132.05L80.3486 129.65L76.3598 129.95ZM78.647 134.197L89.267 133.597L89.0414 129.603L78.4214 130.203L78.647 134.197ZM91.127 131.929L96.227 101.329L92.2814 100.671L87.1814 131.271L91.127 131.929ZM94.4562 99.0102L82.6362 97.8102L82.2322 101.79L94.0522 102.99L94.4562 99.0102ZM80.5186 99.2253L79.7986 101.625L83.6299 102.775L84.3499 100.375L80.5186 99.2253ZM81.7142 100.2H81.1142V104.2H81.7142V100.2ZM81.1142 102.2C82.3142 100.6 82.3137 100.6 82.3132 100.599C82.313 100.599 82.3124 100.599 82.312 100.598C82.3113 100.598 82.3105 100.597 82.3096 100.597C82.308 100.595 82.3061 100.594 82.3041 100.592C82.3002 100.59 82.2956 100.586 82.2904 100.582C82.28 100.575 82.2672 100.565 82.252 100.555C82.2216 100.533 82.1817 100.505 82.1326 100.471C82.0344 100.404 81.899 100.315 81.7294 100.211C81.391 100.005 80.9112 99.7378 80.314 99.4724C79.1288 98.9456 77.4225 98.4 75.4142 98.4V102.4C76.7059 102.4 77.8496 102.754 78.6894 103.128C79.1048 103.312 79.4311 103.495 79.6459 103.626C79.7529 103.691 79.8308 103.743 79.8767 103.774C79.8997 103.79 79.9145 103.8 79.9209 103.805C79.9241 103.807 79.9252 103.808 79.9241 103.807C79.9235 103.807 79.9224 103.806 79.9208 103.805C79.92 103.804 79.919 103.804 79.9179 103.803C79.9174 103.802 79.9168 103.802 79.9162 103.801C79.9159 103.801 79.9154 103.801 79.9152 103.801C79.9147 103.8 79.9142 103.8 81.1142 102.2ZM74.0342 120C73.5886 120 73.37 119.902 73.2685 119.838C73.1712 119.776 73.0589 119.668 72.9539 119.43C72.7104 118.878 72.6109 117.849 72.882 116.358L68.9465 115.642C68.6176 117.451 68.578 119.422 69.2945 121.045C69.6696 121.895 70.2622 122.668 71.1249 123.215C71.9835 123.76 72.9799 124 74.0342 124V120ZM72.8843 116.345C73.0476 115.412 73.4575 114.394 74.053 113.656C74.6233 112.95 75.265 112.6 76.0142 112.6V108.6C73.7635 108.6 72.0651 109.75 70.9404 111.144C69.8409 112.506 69.2009 114.188 68.9442 115.655L72.8843 116.345ZM76.0142 112.6C77.0584 112.6 77.7852 112.83 78.2168 113.024C78.4356 113.123 78.5843 113.214 78.6635 113.268C78.703 113.295 78.725 113.312 78.7293 113.315C78.7315 113.317 78.7292 113.315 78.7225 113.31C78.7191 113.307 78.7147 113.303 78.709 113.298C78.7062 113.295 78.7032 113.293 78.6998 113.29C78.6981 113.288 78.6964 113.287 78.6946 113.285C78.6936 113.284 78.6927 113.283 78.6918 113.283C78.6913 113.282 78.6906 113.281 78.6903 113.281C78.6896 113.281 78.6889 113.28 80.0342 111.8C81.3796 110.32 81.3788 110.319 81.3781 110.319C81.3778 110.319 81.3771 110.318 81.3766 110.317C81.3755 110.316 81.3745 110.316 81.3734 110.315C81.3713 110.313 81.369 110.311 81.3667 110.309C81.3621 110.304 81.357 110.3 81.3517 110.295C81.3409 110.286 81.3287 110.275 81.315 110.263C81.2876 110.24 81.2543 110.213 81.2151 110.182C81.1367 110.119 81.0345 110.043 80.9081 109.957C80.6554 109.786 80.3053 109.577 79.8566 109.376C78.9533 108.97 77.67 108.6 76.0142 108.6V112.6ZM78.0543 111.517L76.8543 119.917L80.8141 120.483L82.0141 112.083L78.0543 111.517ZM78.8342 120.2C77.5326 118.681 77.5331 118.681 77.5336 118.681C77.5337 118.681 77.5341 118.68 77.5344 118.68C77.535 118.679 77.5355 118.679 77.536 118.679C77.5371 118.678 77.538 118.677 77.5387 118.676C77.5403 118.675 77.5414 118.674 77.542 118.674C77.5432 118.673 77.5425 118.673 77.54 118.675C77.5351 118.679 77.5228 118.689 77.5037 118.704C77.4654 118.734 77.4 118.784 77.3105 118.847C77.1303 118.975 76.8598 119.15 76.5216 119.327C75.8272 119.689 74.9515 120 74.0342 120V124C75.8169 124 77.3412 123.411 78.3719 122.873C78.8962 122.6 79.3194 122.325 79.6173 122.115C79.7669 122.01 79.8867 121.919 79.9737 121.85C80.0173 121.816 80.0528 121.788 80.0799 121.765C80.0935 121.754 80.1049 121.745 80.1143 121.737C80.1189 121.733 80.123 121.729 80.1266 121.726C80.1284 121.725 80.1301 121.723 80.1316 121.722C80.1324 121.721 80.1331 121.721 80.1338 121.72C80.1342 121.72 80.1347 121.719 80.1348 121.719C80.1353 121.719 80.1358 121.719 78.8342 120.2ZM133.102 131L131.133 130.653L130.72 133H133.102V131ZM146.002 131V133H147.715L147.978 131.308L146.002 131ZM148.342 116L150.318 116.308L150.319 116.302L148.342 116ZM127.342 104L125.678 105.109L126.736 106.696L128.371 105.715L127.342 104ZM111.322 102.8V104.8H111.874L112.348 104.517L111.322 102.8ZM110.722 102.8L108.761 103.192L109.083 104.8H110.722V102.8ZM110.242 100.4L112.204 100.008L111.863 98.3047L110.129 98.4032L110.242 100.4ZM99.6823 101L99.5689 99.0032L97.9567 99.0948L97.7065 100.69L99.6823 101ZM94.8823 131.6L92.9065 131.29L92.5259 133.716L94.9788 133.598L94.8823 131.6ZM107.302 131L107.399 132.998L108.997 132.92L109.272 131.345L107.302 131ZM110.662 111.8L109.2 110.435L108.795 110.87L108.692 111.455L110.662 111.8ZM116.542 116L118.512 116.348L118.514 116.338L118.515 116.329L116.542 116ZM113.842 131.3L111.873 130.952L111.448 133.357L113.89 133.299L113.842 131.3ZM126.502 131L126.55 132.999L128.19 132.961L128.472 131.345L126.502 131ZM129.862 111.8L128.448 110.386L128.001 110.833L127.892 111.455L129.862 111.8ZM135.742 116L137.712 116.347L137.714 116.338L135.742 116ZM133.102 133H146.002V129H133.102V133ZM147.978 131.308L150.318 116.308L146.366 115.692L144.026 130.692L147.978 131.308ZM150.319 116.302C151.217 110.421 150.696 105.867 148.44 102.752C146.115 99.5427 142.362 98.4 138.142 98.4V102.4C141.723 102.4 143.939 103.357 145.2 105.098C146.529 106.933 147.208 110.179 146.365 115.698L150.319 116.302ZM138.142 98.4C135.325 98.4 132.319 99.434 130.155 100.362C129.043 100.838 128.093 101.313 127.419 101.67C127.081 101.849 126.811 101.999 126.622 102.106C126.528 102.16 126.454 102.202 126.402 102.233C126.376 102.248 126.355 102.26 126.34 102.269C126.333 102.273 126.327 102.277 126.323 102.28C126.32 102.281 126.318 102.282 126.317 102.283C126.316 102.283 126.315 102.284 126.315 102.284C126.315 102.284 126.314 102.285 126.314 102.285C126.314 102.285 126.313 102.285 127.342 104C128.371 105.715 128.371 105.715 128.371 105.715C128.371 105.715 128.371 105.715 128.37 105.716C128.37 105.716 128.37 105.716 128.37 105.716C128.37 105.716 128.37 105.716 128.371 105.715C128.372 105.714 128.375 105.713 128.379 105.71C128.387 105.706 128.401 105.697 128.42 105.686C128.458 105.664 128.518 105.63 128.597 105.585C128.755 105.495 128.991 105.364 129.291 105.205C129.892 104.887 130.741 104.462 131.73 104.038C133.766 103.166 136.16 102.4 138.142 102.4V98.4ZM127.342 104C129.006 102.891 129.006 102.89 129.005 102.889C129.005 102.888 129.004 102.888 129.004 102.887C129.003 102.886 129.002 102.884 129.001 102.883C128.999 102.88 128.997 102.877 128.995 102.874C128.991 102.867 128.985 102.86 128.98 102.851C128.968 102.835 128.954 102.815 128.937 102.792C128.904 102.745 128.86 102.686 128.805 102.615C128.696 102.475 128.542 102.29 128.342 102.075C127.944 101.646 127.356 101.096 126.561 100.551C124.956 99.4499 122.543 98.4 119.242 98.4V102.4C121.642 102.4 123.279 103.15 124.299 103.849C124.816 104.204 125.185 104.554 125.414 104.8C125.528 104.923 125.607 105.019 125.651 105.075C125.673 105.103 125.686 105.121 125.691 105.128C125.693 105.131 125.693 105.131 125.691 105.128C125.69 105.126 125.688 105.124 125.686 105.121C125.685 105.12 125.684 105.118 125.683 105.116C125.682 105.115 125.681 105.114 125.681 105.113C125.68 105.112 125.68 105.111 125.679 105.111C125.679 105.11 125.678 105.109 127.342 104ZM119.242 98.4C116.924 98.4 114.669 99.1029 113.074 99.7443C112.259 100.072 111.578 100.399 111.097 100.646C110.856 100.77 110.663 100.875 110.528 100.951C110.46 100.989 110.406 101.019 110.367 101.042C110.348 101.053 110.332 101.062 110.32 101.069C110.315 101.072 110.31 101.075 110.306 101.078C110.304 101.079 110.302 101.08 110.301 101.081C110.3 101.081 110.299 101.081 110.299 101.082C110.298 101.082 110.298 101.082 110.298 101.082C110.297 101.083 110.297 101.083 111.322 102.8C112.348 104.517 112.347 104.517 112.347 104.518C112.347 104.518 112.346 104.518 112.346 104.518C112.346 104.518 112.346 104.518 112.345 104.519C112.345 104.519 112.345 104.519 112.345 104.519C112.345 104.519 112.346 104.518 112.347 104.517C112.351 104.515 112.359 104.511 112.37 104.504C112.392 104.492 112.428 104.471 112.478 104.443C112.577 104.388 112.729 104.305 112.926 104.204C113.32 104.001 113.888 103.728 114.566 103.456C115.955 102.897 117.661 102.4 119.242 102.4V98.4ZM111.322 100.8H110.722V104.8H111.322V100.8ZM112.684 102.408L112.204 100.008L108.281 100.792L108.761 103.192L112.684 102.408ZM110.129 98.4032L99.5689 99.0032L99.7958 102.997L110.356 102.397L110.129 98.4032ZM97.7065 100.69L92.9065 131.29L96.8582 131.91L101.658 101.31L97.7065 100.69ZM94.9788 133.598L107.399 132.998L107.206 129.002L94.7858 129.602L94.9788 133.598ZM109.272 131.345L112.632 112.145L108.692 111.455L105.332 130.655L109.272 131.345ZM110.662 111.8C112.124 113.165 112.124 113.165 112.124 113.166C112.123 113.166 112.123 113.166 112.123 113.166C112.122 113.167 112.122 113.168 112.121 113.168C112.12 113.169 112.119 113.17 112.119 113.171C112.117 113.173 112.116 113.174 112.115 113.175C112.113 113.177 112.113 113.177 112.114 113.176C112.117 113.173 112.125 113.165 112.138 113.152C112.165 113.125 112.213 113.08 112.279 113.022C112.414 112.904 112.614 112.742 112.864 112.581C113.388 112.242 113.983 112 114.562 112V108C112.921 108 111.566 108.658 110.696 109.219C110.248 109.508 109.89 109.796 109.64 110.016C109.514 110.126 109.413 110.221 109.34 110.294C109.303 110.33 109.273 110.36 109.249 110.384C109.238 110.396 109.228 110.406 109.22 110.415C109.215 110.419 109.212 110.423 109.209 110.426C109.207 110.428 109.205 110.43 109.204 110.431C109.203 110.432 109.203 110.433 109.202 110.433C109.202 110.434 109.201 110.434 109.201 110.434C109.201 110.435 109.2 110.435 110.662 111.8ZM114.562 112C114.681 112 114.626 112.023 114.547 111.955C114.495 111.911 114.565 111.938 114.645 112.212C114.823 112.82 114.856 113.955 114.57 115.671L118.515 116.329C118.829 114.445 118.921 112.58 118.484 111.088C118.257 110.312 117.851 109.514 117.137 108.907C116.396 108.277 115.493 108 114.562 108V112ZM114.573 115.652L111.873 130.952L115.812 131.648L118.512 116.348L114.573 115.652ZM113.89 133.299L126.55 132.999L126.455 129.001L113.795 129.301L113.89 133.299ZM128.472 131.345L131.832 112.145L127.892 111.455L124.532 130.655L128.472 131.345ZM129.862 111.8C131.277 113.214 131.276 113.215 131.276 113.215C131.276 113.215 131.275 113.215 131.275 113.216C131.275 113.216 131.274 113.217 131.274 113.217C131.273 113.218 131.272 113.219 131.272 113.219C131.27 113.22 131.269 113.221 131.269 113.222C131.268 113.223 131.269 113.222 131.271 113.22C131.275 113.216 131.286 113.206 131.302 113.191C131.334 113.161 131.389 113.111 131.463 113.049C131.612 112.923 131.83 112.754 132.093 112.586C132.662 112.223 133.236 112 133.702 112V108C132.129 108 130.782 108.677 129.941 109.214C129.499 109.496 129.14 109.777 128.888 109.988C128.761 110.095 128.659 110.186 128.586 110.255C128.548 110.289 128.518 110.317 128.495 110.34C128.484 110.351 128.474 110.36 128.466 110.368C128.462 110.372 128.459 110.375 128.456 110.378C128.454 110.38 128.453 110.381 128.452 110.382C128.451 110.383 128.45 110.384 128.45 110.384C128.449 110.384 128.449 110.385 128.449 110.385C128.449 110.385 128.448 110.386 129.862 111.8ZM133.702 112C133.971 112 133.99 112.056 133.918 112.007C133.829 111.947 133.853 111.903 133.908 112.066C134.064 112.529 134.126 113.591 133.771 115.662L137.714 116.338C138.079 114.209 138.2 112.271 137.697 110.784C137.422 109.972 136.935 109.215 136.149 108.687C135.379 108.169 134.513 108 133.702 108V112ZM133.773 115.653L131.133 130.653L135.072 131.347L137.712 116.347L133.773 115.653ZM153.394 111.2L151.407 110.976L151.156 113.2H153.394V111.2ZM157.294 111.2L159.273 111.491L159.61 109.2H157.294V111.2ZM154.294 131.6L152.315 131.309L151.961 133.718L154.393 133.598L154.294 131.6ZM166.414 131L166.513 132.998L168.156 132.916L168.393 131.288L166.414 131ZM169.294 111.2V109.2H167.564L167.315 110.912L169.294 111.2ZM176.194 111.2V113.2H177.775L178.14 111.662L176.194 111.2ZM178.474 101.6L180.42 102.062L181.005 99.6H178.474V101.6ZM171.274 101.6L169.301 101.271L168.913 103.6H171.274V101.6ZM171.574 99.8L169.604 99.4552L169.603 99.4632L169.601 99.4712L171.574 99.8ZM178.054 97.1L176.927 98.7525L178.819 100.042L179.843 97.9944L178.054 97.1ZM182.254 88.7L184.043 89.5944L184.905 87.8702L183.214 86.9453L182.254 88.7ZM159.274 99.8L157.306 99.4457L157.303 99.4584L157.301 99.4712L159.274 99.8ZM158.974 101.6V103.6H160.668L160.947 101.929L158.974 101.6ZM154.474 101.6V99.6H152.686L152.487 101.376L154.474 101.6ZM153.394 113.2H157.294V109.2H153.394V113.2ZM155.315 110.909L152.315 131.309L156.273 131.891L159.273 111.491L155.315 110.909ZM154.393 133.598L166.513 132.998L166.315 129.002L154.195 129.602L154.393 133.598ZM168.393 131.288L171.273 111.488L167.315 110.912L164.435 130.712L168.393 131.288ZM169.294 113.2H176.194V109.2H169.294V113.2ZM178.14 111.662L180.42 102.062L176.528 101.138L174.248 110.738L178.14 111.662ZM178.474 99.6H171.274V103.6H178.474V99.6ZM173.247 101.929L173.547 100.129L169.601 99.4712L169.301 101.271L173.247 101.929ZM173.544 100.145C173.716 99.1641 174 98.6507 174.204 98.417C174.363 98.2351 174.482 98.2 174.634 98.2V94.2C173.287 94.2 172.085 94.7649 171.194 95.783C170.348 96.7493 169.852 98.0359 169.604 99.4552L173.544 100.145ZM174.634 98.2C175.397 98.2 176.01 98.3635 176.422 98.5197C176.627 98.5976 176.778 98.6722 176.866 98.72C176.91 98.7437 176.938 98.7605 176.949 98.767C176.954 98.7703 176.955 98.771 176.952 98.7687C176.95 98.7676 176.947 98.7657 176.943 98.763C176.941 98.7616 176.939 98.7601 176.936 98.7583C176.935 98.7575 176.933 98.7565 176.932 98.7556C176.931 98.7551 176.93 98.7546 176.93 98.754C176.929 98.7538 176.929 98.7534 176.929 98.7533C176.928 98.7529 176.927 98.7525 178.054 97.1C179.181 95.4475 179.18 95.4471 179.18 95.4467C179.179 95.4466 179.179 95.4462 179.178 95.4459C179.177 95.4453 179.177 95.4447 179.176 95.4441C179.174 95.4429 179.172 95.4417 179.17 95.4404C179.166 95.4377 179.162 95.4349 179.157 95.4319C179.148 95.4258 179.138 95.4188 179.126 95.4111C179.102 95.3956 179.072 95.377 179.038 95.3556C178.968 95.313 178.876 95.2594 178.764 95.1988C178.539 95.0778 178.229 94.9274 177.842 94.7803C177.068 94.4865 175.971 94.2 174.634 94.2V98.2ZM179.843 97.9944L184.043 89.5944L180.465 87.8056L176.265 96.2056L179.843 97.9944ZM182.254 88.7C183.214 86.9453 183.213 86.945 183.213 86.9447C183.212 86.9445 183.212 86.9442 183.211 86.944C183.211 86.9435 183.21 86.9431 183.209 86.9426C183.207 86.9415 183.205 86.9404 183.202 86.9391C183.198 86.9365 183.192 86.9335 183.185 86.9299C183.172 86.9228 183.155 86.9138 183.134 86.903C183.093 86.8813 183.036 86.8524 182.965 86.8173C182.823 86.7471 182.624 86.6521 182.37 86.5408C181.864 86.3183 181.14 86.0293 180.231 85.7426C178.415 85.1702 175.84 84.6 172.774 84.6V88.6C175.348 88.6 177.513 89.0798 179.028 89.5574C179.783 89.7957 180.372 90.0317 180.761 90.203C180.956 90.2885 181.101 90.3575 181.191 90.4022C181.236 90.4246 181.268 90.4408 181.285 90.4499C181.294 90.4544 181.299 90.4572 181.3 90.458C181.301 90.4585 181.301 90.4584 181.3 90.4579C181.3 90.4576 181.299 90.4572 181.298 90.4567C181.298 90.4564 181.297 90.4561 181.296 90.4558C181.296 90.4556 181.296 90.4554 181.295 90.4553C181.295 90.455 181.294 90.4547 182.254 88.7ZM172.774 84.6C165.947 84.6 159.079 89.5945 157.306 99.4457L161.242 100.154C162.709 92.0055 168.082 88.6 172.774 88.6V84.6ZM157.301 99.4712L157.001 101.271L160.947 101.929L161.247 100.129L157.301 99.4712ZM158.974 99.6H154.474V103.6H158.974V99.6ZM152.487 101.376L151.407 110.976L155.382 111.424L156.462 101.824L152.487 101.376ZM176.916 115.4L174.948 115.043L174.946 115.055L176.916 115.4ZM210.336 116.6L208.367 116.252L210.336 116.6ZM198.336 116.6L200.306 116.945L200.308 116.937L200.309 116.929L198.336 116.6ZM188.916 115.4L186.955 115.008L186.951 115.031L186.946 115.055L188.916 115.4ZM174.946 115.055C174.012 120.396 175.353 125.208 178.318 128.695C181.274 132.174 185.732 134.2 190.776 134.2V130.2C186.821 130.2 183.509 128.626 181.365 126.105C179.229 123.592 178.141 120.004 178.886 115.745L174.946 115.055ZM190.776 134.2C203.244 134.2 210.774 125.604 212.306 116.948L208.367 116.252C207.138 123.196 201.109 130.2 190.776 130.2V134.2ZM212.306 116.948C213.078 112.586 212.238 107.83 209.605 104.118C206.926 100.341 202.496 97.8 196.476 97.8V101.8C201.257 101.8 204.447 103.759 206.343 106.432C208.285 109.17 208.975 112.814 208.367 116.252L212.306 116.948ZM196.476 97.8C185.395 97.8 176.876 104.41 174.948 115.043L178.884 115.757C180.437 107.19 187.158 101.8 196.476 101.8V97.8ZM194.796 111.4C195.351 111.4 195.633 111.533 195.785 111.642C195.945 111.758 196.122 111.963 196.27 112.357C196.595 113.217 196.642 114.599 196.364 116.271L200.309 116.929C200.631 115.001 200.707 112.783 200.012 110.943C199.651 109.987 199.055 109.067 198.12 108.395C197.177 107.717 196.042 107.4 194.796 107.4V111.4ZM196.366 116.255C196.205 117.179 195.753 118.351 195.032 119.245C194.34 120.103 193.503 120.6 192.456 120.6V124.6C195.01 124.6 196.903 123.297 198.146 121.755C199.36 120.249 200.048 118.421 200.306 116.945L196.366 116.255ZM192.456 120.6C191.813 120.6 191.528 120.428 191.383 120.302C191.209 120.151 191.02 119.871 190.882 119.37C190.59 118.306 190.691 116.863 190.886 115.745L186.946 115.055C186.722 116.336 186.493 118.494 187.025 120.43C187.3 121.429 187.813 122.499 188.761 123.323C189.74 124.172 191 124.6 192.456 124.6V120.6ZM190.878 115.792C191.033 115.014 191.382 113.826 192.05 112.878C192.67 112 193.494 111.4 194.796 111.4V107.4C191.898 107.4 189.963 108.9 188.782 110.572C187.651 112.174 187.16 113.986 186.955 115.008L190.878 115.792ZM242.127 104.6L243.658 105.886L244.586 104.782L243.831 103.553L242.127 104.6ZM228.027 102.8V104.8H228.827L229.406 104.248L228.027 102.8ZM227.427 102.8L225.433 102.95L225.571 104.8H227.427V102.8ZM227.247 100.4L229.241 100.25L229.094 98.2886L227.13 98.4034L227.247 100.4ZM216.987 101L216.87 99.0034L215.261 99.0975L215.011 100.69L216.987 101ZM212.187 131.6L210.211 131.29L209.831 133.716L212.284 133.598L212.187 131.6ZM224.607 131L224.704 132.998L226.327 132.919L226.582 131.314L224.607 131ZM227.607 112.1L226.445 110.473L225.763 110.959L225.632 111.786L227.607 112.1ZM234.567 113.6L232.929 114.747L234.423 116.881L236.098 114.886L234.567 113.6ZM242.127 104.6C243.831 103.553 243.831 103.552 243.83 103.552C243.83 103.551 243.83 103.55 243.829 103.55C243.828 103.549 243.828 103.547 243.827 103.546C243.825 103.544 243.823 103.541 243.822 103.538C243.818 103.531 243.813 103.524 243.808 103.516C243.797 103.499 243.784 103.479 243.768 103.454C243.736 103.406 243.693 103.342 243.639 103.266C243.532 103.113 243.379 102.908 243.18 102.668C242.783 102.189 242.195 101.562 241.407 100.935C239.823 99.6751 237.402 98.4 234.147 98.4V102.4C236.292 102.4 237.861 103.225 238.917 104.065C239.449 104.488 239.843 104.911 240.099 105.22C240.227 105.373 240.318 105.496 240.372 105.573C240.399 105.612 240.417 105.638 240.425 105.651C240.43 105.658 240.432 105.661 240.431 105.66C240.431 105.66 240.43 105.659 240.429 105.656C240.428 105.655 240.427 105.654 240.426 105.652C240.426 105.652 240.425 105.651 240.425 105.65C240.424 105.649 240.424 105.649 240.424 105.648C240.423 105.648 240.423 105.647 242.127 104.6ZM234.147 98.4C231.904 98.4 230.037 99.1453 228.766 99.8517C228.124 100.208 227.614 100.566 227.258 100.84C227.079 100.977 226.937 101.095 226.835 101.184C226.783 101.228 226.742 101.265 226.711 101.293C226.695 101.307 226.682 101.319 226.672 101.329C226.666 101.334 226.662 101.338 226.658 101.342C226.656 101.344 226.654 101.346 226.652 101.347C226.651 101.348 226.651 101.349 226.65 101.35C226.649 101.35 226.649 101.351 226.649 101.351C226.648 101.351 226.648 101.352 228.027 102.8C229.406 104.248 229.406 104.249 229.405 104.249C229.405 104.249 229.405 104.25 229.404 104.25C229.404 104.251 229.403 104.251 229.403 104.252C229.402 104.253 229.401 104.254 229.4 104.254C229.398 104.256 229.398 104.257 229.397 104.257C229.396 104.258 229.398 104.256 229.402 104.253C229.409 104.246 229.425 104.232 229.45 104.21C229.5 104.167 229.583 104.098 229.696 104.01C229.925 103.834 230.27 103.592 230.708 103.348C231.597 102.855 232.79 102.4 234.147 102.4V98.4ZM228.027 100.8H227.427V104.8H228.027V100.8ZM229.421 102.65L229.241 100.25L225.253 100.55L225.433 102.95L229.421 102.65ZM227.13 98.4034L216.87 99.0034L217.104 102.997L227.364 102.397L227.13 98.4034ZM215.011 100.69L210.211 131.29L214.163 131.91L218.963 101.31L215.011 100.69ZM212.284 133.598L224.704 132.998L224.511 129.002L212.091 129.602L212.284 133.598ZM226.582 131.314L229.582 112.414L225.632 111.786L222.632 130.686L226.582 131.314ZM227.607 112.1C228.77 113.727 228.769 113.728 228.769 113.728C228.768 113.728 228.768 113.729 228.768 113.729C228.767 113.729 228.766 113.73 228.766 113.73C228.765 113.731 228.764 113.732 228.763 113.732C228.761 113.734 228.759 113.735 228.757 113.736C228.754 113.738 228.753 113.739 228.752 113.74C228.75 113.741 228.753 113.739 228.759 113.735C228.772 113.726 228.801 113.708 228.843 113.683C228.929 113.633 229.064 113.559 229.237 113.484C229.595 113.328 230.037 113.2 230.487 113.2V109.2C229.317 109.2 228.319 109.522 227.642 109.816C227.297 109.966 227.016 110.117 226.815 110.236C226.714 110.295 226.631 110.347 226.569 110.388C226.538 110.408 226.512 110.426 226.491 110.44C226.481 110.447 226.472 110.453 226.464 110.459C226.46 110.462 226.457 110.464 226.453 110.466C226.452 110.467 226.45 110.469 226.449 110.47C226.448 110.47 226.447 110.471 226.447 110.471C226.446 110.471 226.446 110.472 226.446 110.472C226.445 110.472 226.445 110.473 227.607 112.1ZM230.487 113.2C231.019 113.2 231.595 113.476 232.147 113.936C232.405 114.152 232.613 114.371 232.756 114.535C232.826 114.616 232.877 114.68 232.907 114.718C232.922 114.738 232.931 114.751 232.935 114.756C232.937 114.758 232.937 114.759 232.936 114.758C232.936 114.757 232.935 114.756 232.933 114.754C232.933 114.753 232.932 114.752 232.931 114.751C232.931 114.75 232.93 114.75 232.93 114.749C232.93 114.749 232.929 114.748 232.929 114.748C232.929 114.747 232.929 114.747 234.567 113.6C236.205 112.453 236.205 112.453 236.205 112.452C236.205 112.452 236.204 112.451 236.204 112.451C236.203 112.45 236.203 112.449 236.202 112.448C236.201 112.447 236.2 112.445 236.198 112.443C236.195 112.439 236.192 112.434 236.188 112.429C236.181 112.418 236.171 112.405 236.16 112.39C236.138 112.36 236.109 112.322 236.074 112.275C236.002 112.183 235.903 112.059 235.778 111.915C235.531 111.629 235.169 111.248 234.707 110.864C233.819 110.124 232.355 109.2 230.487 109.2V113.2ZM236.098 114.886L243.658 105.886L240.596 103.314L233.036 112.314L236.098 114.886ZM239.725 116.6L241.693 116.954L241.694 116.952L239.725 116.6ZM258.985 129.8V127.8H258.249L257.688 128.277L258.985 129.8ZM259.585 129.8L261.579 129.65L261.44 127.8H259.585V129.8ZM259.765 132.2L257.77 132.35L257.917 134.308L259.878 134.197L259.765 132.2ZM270.385 131.6L270.498 133.597L272.09 133.507L272.357 131.934L270.385 131.6ZM277.705 88.4L279.677 88.7341L280.034 86.6262L277.907 86.4102L277.705 88.4ZM265.885 87.2L266.087 85.2102L264.273 85.0261L263.922 86.8153L265.885 87.2ZM262.945 102.2V104.2H264.591L264.907 102.585L262.945 102.2ZM262.345 102.2L261.145 103.8L261.678 104.2H262.345V102.2ZM252.145 116L254.112 116.358L254.115 116.345L252.145 116ZM261.265 111.8L263.245 112.083L263.395 111.033L262.61 110.32L261.265 111.8ZM260.065 120.2L261.366 121.719L261.938 121.228L262.045 120.483L260.065 120.2ZM256.645 98.4C246.023 98.4 239.355 107.29 237.756 116.248L241.694 116.952C243.094 109.11 248.667 102.4 256.645 102.4V98.4ZM237.756 116.246C237.137 119.688 237.711 124.105 240 127.72C242.357 131.442 246.471 134.2 252.565 134.2V130.2C247.858 130.2 245.012 128.158 243.379 125.58C241.679 122.895 241.233 119.512 241.693 116.954L237.756 116.246ZM252.565 134.2C254.797 134.2 256.725 133.461 258.047 132.775C258.717 132.427 259.258 132.078 259.637 131.812C259.827 131.679 259.978 131.565 260.086 131.48C260.141 131.438 260.184 131.403 260.217 131.376C260.233 131.363 260.247 131.352 260.257 131.343C260.263 131.338 260.267 131.335 260.271 131.331C260.273 131.33 260.275 131.328 260.277 131.327C260.277 131.326 260.278 131.325 260.279 131.325C260.279 131.324 260.28 131.324 260.28 131.324C260.28 131.323 260.281 131.323 258.985 129.8C257.688 128.277 257.689 128.277 257.689 128.276C257.689 128.276 257.69 128.276 257.69 128.275C257.691 128.275 257.691 128.275 257.692 128.274C257.693 128.273 257.693 128.273 257.694 128.272C257.695 128.271 257.696 128.271 257.696 128.271C257.695 128.271 257.693 128.273 257.687 128.278C257.677 128.286 257.656 128.303 257.626 128.326C257.567 128.373 257.469 128.446 257.339 128.538C257.077 128.722 256.688 128.973 256.203 129.225C255.214 129.739 253.933 130.2 252.565 130.2V134.2ZM258.985 131.8H259.585V127.8H258.985V131.8ZM257.59 129.95L257.77 132.35L261.759 132.05L261.579 129.65L257.59 129.95ZM259.878 134.197L270.498 133.597L270.272 129.603L259.652 130.203L259.878 134.197ZM272.357 131.934L279.677 88.7341L275.733 88.0659L268.413 131.266L272.357 131.934ZM277.907 86.4102L266.087 85.2102L265.683 89.1898L277.503 90.3898L277.907 86.4102ZM263.922 86.8153L260.982 101.815L264.907 102.585L267.847 87.5847L263.922 86.8153ZM262.945 100.2H262.345V104.2H262.945V100.2ZM262.345 102.2C263.545 100.6 263.544 100.6 263.544 100.599C263.543 100.599 263.543 100.599 263.543 100.598C263.542 100.598 263.541 100.597 263.54 100.597C263.538 100.595 263.537 100.594 263.535 100.592C263.531 100.59 263.526 100.586 263.521 100.582C263.51 100.575 263.498 100.565 263.482 100.555C263.452 100.533 263.412 100.505 263.363 100.471C263.265 100.404 263.129 100.315 262.96 100.211C262.622 100.005 262.142 99.7378 261.544 99.4724C260.359 98.9456 258.653 98.4 256.645 98.4V102.4C257.936 102.4 259.08 102.754 259.92 103.128C260.335 103.312 260.662 103.495 260.876 103.626C260.983 103.691 261.061 103.743 261.107 103.774C261.13 103.79 261.145 103.8 261.151 103.805C261.155 103.807 261.156 103.808 261.155 103.807C261.154 103.807 261.153 103.806 261.151 103.805C261.15 103.804 261.149 103.804 261.148 103.803C261.148 103.802 261.147 103.802 261.147 103.801C261.146 103.801 261.146 103.801 261.146 103.801C261.145 103.8 261.145 103.8 262.345 102.2ZM255.265 120C254.819 120 254.6 119.902 254.499 119.838C254.402 119.776 254.289 119.668 254.184 119.43C253.941 118.878 253.841 117.849 254.112 116.358L250.177 115.642C249.848 117.451 249.808 119.422 250.525 121.045C250.9 121.895 251.493 122.668 252.355 123.215C253.214 123.76 254.21 124 255.265 124V120ZM254.115 116.345C254.278 115.412 254.688 114.394 255.283 113.656C255.854 112.95 256.495 112.6 257.245 112.6V108.6C254.994 108.6 253.296 109.75 252.171 111.144C251.071 112.506 250.431 114.188 250.175 115.655L254.115 116.345ZM257.245 112.6C258.289 112.6 259.016 112.83 259.447 113.024C259.666 113.123 259.815 113.214 259.894 113.268C259.934 113.295 259.955 113.312 259.96 113.315C259.962 113.317 259.96 113.315 259.953 113.31C259.95 113.307 259.945 113.303 259.94 113.298C259.937 113.295 259.934 113.293 259.93 113.29C259.929 113.288 259.927 113.287 259.925 113.285C259.924 113.284 259.923 113.283 259.922 113.283C259.922 113.282 259.921 113.281 259.921 113.281C259.92 113.281 259.919 113.28 261.265 111.8C262.61 110.32 262.609 110.319 262.609 110.319C262.608 110.319 262.608 110.318 262.607 110.317C262.606 110.316 262.605 110.316 262.604 110.315C262.602 110.313 262.599 110.311 262.597 110.309C262.593 110.304 262.588 110.3 262.582 110.295C262.571 110.286 262.559 110.275 262.545 110.263C262.518 110.24 262.485 110.213 262.446 110.182C262.367 110.119 262.265 110.043 262.139 109.957C261.886 109.786 261.536 109.577 261.087 109.376C260.184 108.97 258.9 108.6 257.245 108.6V112.6ZM259.285 111.517L258.085 119.917L262.045 120.483L263.245 112.083L259.285 111.517ZM260.065 120.2C258.763 118.681 258.764 118.681 258.764 118.681C258.764 118.681 258.765 118.68 258.765 118.68C258.765 118.679 258.766 118.679 258.767 118.679C258.768 118.678 258.768 118.677 258.769 118.676C258.771 118.675 258.772 118.674 258.772 118.674C258.774 118.673 258.773 118.673 258.771 118.675C258.766 118.679 258.753 118.689 258.734 118.704C258.696 118.734 258.63 118.784 258.541 118.847C258.361 118.975 258.09 119.15 257.752 119.327C257.058 119.689 256.182 120 255.265 120V124C257.047 124 258.572 123.411 259.602 122.873C260.127 122.6 260.55 122.325 260.848 122.115C260.997 122.01 261.117 121.919 261.204 121.85C261.248 121.816 261.283 121.788 261.31 121.765C261.324 121.754 261.335 121.745 261.345 121.737C261.349 121.733 261.354 121.729 261.357 121.726C261.359 121.725 261.361 121.723 261.362 121.722C261.363 121.721 261.364 121.721 261.364 121.72C261.365 121.72 261.365 121.719 261.365 121.719C261.366 121.719 261.366 121.719 260.065 120.2Z" fill="black"/>
<path d="M21.8 210.7C17.6 210.7 13.9333 209.833 10.8 208.1C7.66667 206.433 5.23333 204.233 3.5 201.5C1.83333 198.7 1 195.6 1 192.2C1 189.2 1.63333 186.267 2.9 183.4C4.23333 180.467 6.03333 177.8 8.3 175.4C10.6333 173 13.3667 171 16.5 169.4C19.6333 167.8 23.0333 166.767 26.7 166.3C24.2333 164.167 22.3667 161.767 21.1 159.1C19.9 156.433 19.3 153.733 19.3 151C19.3 147.4 20.2 144.033 22 140.9C23.8 137.7 26.3 135.1 29.5 133.1C32.7667 131.1 36.5 130.1 40.7 130.1C44.5667 130.1 47.5 131.033 49.5 132.9C51.5667 134.767 52.6 137.467 52.6 141C52.6 143.533 52.1667 146 51.3 148.4C50.4333 150.8 49.3667 152.8 48.1 154.4C46.9 155.933 45.7 156.7 44.5 156.7C43.6333 156.7 42.8 156.333 42 155.6C41.2667 154.8 40.6333 153.9 40.1 152.9C42.5 150.833 44.5 148.7 46.1 146.5C47.7 144.3 48.5 142 48.5 139.6C48.5 137.667 47.9667 136.1 46.9 134.9C45.8333 133.633 44.1333 133 41.8 133C38.7333 133 36.1667 133.9 34.1 135.7C32.0333 137.5 30.4333 139.833 29.3 142.7C28.2333 145.567 27.7 148.7 27.7 152.1C27.7 153.633 27.8333 155.333 28.1 157.2C28.4333 159.067 29.1 160.933 30.1 162.8C31.1 164.6 32.5667 166.3 34.5 167.9C29.8333 168.633 25.7667 170.3 22.3 172.9C18.8333 175.5 16.1333 178.533 14.2 182C12.3333 185.467 11.4 188.9 11.4 192.3C11.4 194.367 11.8 196.5 12.6 198.7C13.4667 200.833 14.8667 202.633 16.8 204.1C18.7333 205.633 21.2667 206.4 24.4 206.4C27.9333 206.4 31.3333 205.533 34.6 203.8C37.9333 202.067 40.9333 199.767 43.6 196.9C46.3333 194.033 48.5667 190.8 50.3 187.2C52.0333 183.533 53.1333 179.8 53.6 176C52.2667 176.067 51 176.167 49.8 176.3C48.6667 176.433 47.3667 176.633 45.9 176.9C44.4333 177.167 42.5 177.533 40.1 178C40.2333 174.8 41.3667 172.667 43.5 171.6C45.6333 170.533 48.1667 170 51.1 170C53.2333 170 55.1667 170.133 56.9 170.4C58.7 170.667 60.4667 170.933 62.2 171.2C63.9333 171.467 65.7333 171.633 67.6 171.7C66.6667 173.633 65.8 174.8 65 175.2C64.2 175.6 63.4333 175.8 62.7 175.8C61.5 175.8 60.4667 175.833 59.6 175.9C58.7333 175.9 57.8667 175.9 57 175.9C56.5333 180.433 55.2667 184.8 53.2 189C51.1333 193.133 48.4667 196.833 45.2 200.1C42 203.367 38.4 205.933 34.4 207.8C30.4 209.733 26.2 210.7 21.8 210.7Z" fill="#FF3F3F"/>
</svg>
