<svg width="65" height="76" viewBox="0 0 65 76" fill="none" xmlns="http://www.w3.org/2000/svg">
<g clip-path="url(#clip0_2_1704)">
<path d="M47.5539 40.7382L41.2331 22.0661L34.3684 23.3901C35.0474 24.5535 35.8852 25.7585 36.8983 27.0032C37.4865 27.0141 38.0528 27.1796 38.5952 27.5031C39.4224 27.9998 39.9571 28.7083 40.1912 29.6268C40.4287 30.5521 40.3051 31.425 39.8263 32.2432C39.3482 33.068 38.6374 33.6127 37.6919 33.876C36.7734 34.1056 35.8959 33.9707 35.0635 33.4799C34.235 32.9779 33.6992 32.2686 33.4652 31.3501C33.2053 30.4386 33.3211 29.5608 33.8067 28.7193C33.8936 28.5713 33.9868 28.4332 34.0874 28.3029C32.9348 26.8266 32.0019 25.3853 31.2601 23.9905L23.1059 25.5622L5.13614 53.9819C5.01529 54.1747 4.93421 54.3951 4.89588 54.616C4.85893 54.8347 4.86626 55.0563 4.91593 55.2568C4.96337 55.4558 5.04656 55.6419 5.15704 55.7913C5.27016 55.9439 5.41997 56.0794 5.5956 56.1881L27.5195 70.0618C27.7153 70.1876 27.9193 70.268 28.1167 70.3092C28.3108 70.3483 28.5204 70.345 28.7179 70.3067C28.9171 70.2679 29.1173 70.1854 29.2904 70.0647C29.4624 69.9434 29.6211 69.7863 29.7403 69.5986L47.5539 40.7382ZM25.7837 46.9852L28.8396 48.8765L27.3549 51.2753L24.6525 49.6027C24.2691 50.1452 23.8508 50.5926 23.3932 50.9393C23.0404 51.1964 22.5835 51.4105 22.0239 51.5794C22.4491 51.7294 22.7968 51.888 23.0647 52.0539C23.4093 52.2671 23.8154 52.6072 24.2842 53.0793C24.9325 53.716 25.4808 54.1715 25.9321 54.4509C26.3001 54.6786 26.6376 54.8462 26.9471 54.9522C27.2604 55.062 27.6991 55.1531 28.2613 55.2259L27.7789 59.0706C26.9139 58.9878 26.1869 58.8558 25.602 58.6681C25.022 58.4849 24.4441 58.2113 23.8671 57.8543C23.2357 57.4635 22.5843 56.9089 21.9053 56.1875C21.0181 55.2363 20.4618 54.6595 20.2363 54.4527C20.0073 54.2513 19.7471 54.0582 19.4514 53.8751C18.5854 53.3392 17.444 53.047 16.0269 53.0017L16.4853 49.3423C18.5234 49.214 19.8545 48.6482 20.4765 47.6433C20.51 47.5892 20.5948 47.4322 20.7341 47.1774L18.6309 45.8757L20.1156 43.4769L21.6207 44.4085C21.9094 43.3733 22.0808 42.7684 22.1348 42.6092C22.572 41.4656 23.5059 40.4535 24.6227 39.9507C25.4779 39.5627 26.3631 39.444 27.2753 39.5973C28.1913 39.7468 29.263 40.2037 30.4969 40.9674C31.6519 41.6823 32.4867 42.3779 33.0016 43.0513C33.5165 43.7247 33.8227 44.5043 33.9192 45.3866C34.0153 46.2747 33.8882 47.1929 33.5391 48.1495L29.3132 46.3626C29.5603 45.531 29.6291 44.9207 29.5226 44.5337C29.4147 44.1443 29.2012 43.8532 28.8822 43.6557C28.4931 43.4149 28.1023 43.3458 27.7049 43.4515C26.9984 43.6365 26.5407 44.4158 26.3086 45.0641C26.2082 45.323 26.036 45.964 25.7837 46.9852ZM47.2177 30.3814C49.1878 19.9276 47.662 13.4975 44.8638 10.1465C42.9339 7.83446 40.366 7.06759 38.0444 7.50972C35.7049 7.95602 33.5837 9.62449 32.5797 12.1633C31.7108 14.3745 31.67 17.2449 32.9919 20.5888L41.9377 18.8635C42.6687 18.7258 43.4142 19.1459 43.6592 19.8678L47.2177 30.3814ZM29.9936 21.1656C28.5639 17.2381 28.6931 13.7803 29.7745 11.0493C31.1776 7.51301 34.1611 5.18417 37.4696 4.55332C40.8056 3.91801 44.4627 4.98442 47.1738 8.2326C50.9043 12.7004 52.7997 21.4721 49.0767 35.8435L49.0658 35.8413L50.6114 40.4061C50.7709 40.829 50.7401 41.316 50.4856 41.7272L32.2944 71.1978C31.9388 71.7574 31.4998 72.2059 31.0122 72.5416C30.4999 72.8944 29.9203 73.1386 29.3088 73.2593C28.7265 73.3718 28.1274 73.3706 27.5444 73.2558C26.9844 73.1447 26.4261 72.9214 25.9118 72.5924L4.0123 58.7338C3.4954 58.4138 3.06231 58.0082 2.72611 57.5478C2.37562 57.0634 2.12563 56.5233 1.98979 55.9653C1.84027 55.3548 1.81721 54.7209 1.92203 54.1025C2.02119 53.5125 2.24416 52.9212 2.58617 52.3761L20.8587 23.4772C21.0642 23.1029 21.4294 22.8183 21.8833 22.7308L29.9936 21.1656Z" fill="white"/>
</g>
<defs>
<clipPath id="clip0_2_1704">
<rect width="35.1667" height="66.511" fill="white" transform="translate(35.0037) rotate(31.7548)"/>
</clipPath>
</defs>
</svg>
