<svg width="64" height="64" viewBox="0 0 64 64" fill="none" xmlns="http://www.w3.org/2000/svg">
<path d="M58.7151 19.3673C58.0581 18.6234 57.2504 18.0276 56.3457 17.6195C55.441 17.2113 54.4598 17.0002 53.4673 17H40.9985V14C40.9952 11.0836 39.8353 8.28765 37.7731 6.22546C35.7109 4.16328 32.9149 3.00329 29.9985 3C29.4414 3.00004 28.8953 3.1552 28.4214 3.44809C27.9474 3.74098 27.5644 4.16004 27.3152 4.65833L18.1443 23H7.99854C6.67291 23.0015 5.40199 23.5287 4.46463 24.4661C3.52727 25.4035 3.00001 26.6744 2.99854 28V50C3.00001 51.3256 3.52727 52.5965 4.46463 53.5339C5.40199 54.4713 6.67291 54.9985 7.99854 55H50.4673C52.1728 54.9977 53.8189 54.3737 55.0975 53.245C56.3761 52.1164 57.1994 50.5603 57.4133 48.8683L60.4133 24.8682C60.5362 23.8833 60.4483 22.8835 60.1556 21.9352C59.8628 20.9868 59.3718 20.1115 58.7151 19.3673ZM8.99853 29H16.9985V49H8.99853V29ZM54.4597 24.124L51.4597 48.124C51.4291 48.3658 51.3115 48.5881 51.1288 48.7493C50.9461 48.9105 50.7109 48.9997 50.4673 49H22.9985V26.7084L31.7031 9.2992C32.6681 9.6504 33.5018 10.2897 34.0912 11.1306C34.6807 11.9714 34.9974 12.9731 34.9985 14V20C34.9986 20.7956 35.3146 21.5587 35.8772 22.1213C36.4398 22.6839 37.2029 23 37.9985 23H53.4673C53.6091 23 53.7493 23.0301 53.8785 23.0884C54.0078 23.1467 54.1232 23.2318 54.217 23.3381C54.3109 23.4444 54.3811 23.5695 54.4229 23.705C54.4648 23.8405 54.4773 23.9833 54.4597 24.124Z" fill="white"/>
</svg>
