<svg width="59" height="59" viewBox="0 0 59 59" fill="none" xmlns="http://www.w3.org/2000/svg">
<g clip-path="url(#clip0_46_949)">
<path d="M0 29.5008C0 13.207 13.2076 0.000488281 29.4995 0.000488281C45.7923 0.000488281 59 13.2072 59 29.5008C59 45.7923 45.7923 58.9998 29.4995 58.9998C13.2076 58.9998 0 45.7923 0 29.5008Z" fill="#40B3A2"/>
<path d="M29.4997 9.03857C40.8009 9.03857 49.9612 18.1994 49.9612 29.4997C49.9614 40.8004 40.8008 49.9614 29.4996 49.9612C18.1998 49.9614 9.03894 40.8002 9.03882 29.4996C9.03894 18.1992 18.1999 9.03857 29.4997 9.03857Z" fill="white"/>
<path d="M29.4997 11.2925C29.4997 11.2925 29.4985 29.5008 29.4986 29.5007C29.499 29.5003 11.2908 29.5007 11.2908 29.5007C11.2908 39.5573 19.4427 47.7086 29.4986 47.7086H29.4997C39.5556 47.7086 47.7074 39.5573 47.7074 29.5007V29.5004C47.7074 19.4438 39.5556 11.2925 29.4997 11.2925Z" fill="#40B3A2"/>
<path d="M18.7322 19.9188C19.3862 19.9188 19.9164 19.3887 19.9164 18.7347C19.9164 18.0807 19.3862 17.5505 18.7322 17.5505C18.0783 17.5505 17.5481 18.0807 17.5481 18.7347C17.5481 19.3887 18.0783 19.9188 18.7322 19.9188Z" fill="#40B3A2"/>
</g>
<defs>
<clipPath id="clip0_46_949">
<rect width="59" height="59" fill="white"/>
</clipPath>
</defs>
</svg>
