<svg width="38" height="38" viewBox="0 0 38 38" fill="none" xmlns="http://www.w3.org/2000/svg">
<path d="M36.8125 30.875C36.8125 34.1406 34.1406 36.8125 30.875 36.8125H7.125C3.85938 36.8125 1.1875 34.1406 1.1875 30.875V7.125C1.1875 3.85938 3.85938 1.1875 7.125 1.1875H30.875C34.1406 1.1875 36.8125 3.85938 36.8125 7.125V30.875Z" fill="#40B3A2"/>
<path d="M20.1875 24.3438H24.9375V22.5625H21.9094V19.8906H24.9375V18.1094H21.9094V15.4375H24.9375V13.6562H20.1875V24.3438Z" fill="white"/>
<path d="M32.0625 15.4375V13.6562H27.3125V24.3438H32.0625V22.5625H29.0344V19.8906H32.0625V18.1094H29.0344V15.4375H32.0625Z" fill="white"/>
<path d="M14.1906 24.3438V19.8906H14.8438L16.3281 24.3438H18.1094L16.5656 19.6531C17.6344 19.1781 18.4062 18.05 18.4062 16.7438C18.4062 15.0219 17.1 13.6562 15.4375 13.6562H12.4688V24.3438H14.1906ZM14.1906 15.4375H15.4375C16.15 15.4375 16.6844 16.0313 16.6844 16.7438C16.6844 17.4563 16.0906 18.05 15.4375 18.05H14.1906V15.4375Z" fill="white"/>
<path d="M7.65937 24.3438V19.8906H10.6875V18.1094H7.65937V15.4375H10.6875V13.6562H5.9375V24.3438H7.65937Z" fill="white"/>
</svg>
