<svg width="37" height="37" viewBox="0 0 37 37" fill="none" xmlns="http://www.w3.org/2000/svg">
<path d="M4.73114 36.6213C5.28865 37.1788 6.25925 37.1122 6.89898 36.4724L13.6681 29.7033L18.5915 34.6267C19.2313 35.2664 20.2685 35.2664 20.9083 34.6267L22.8268 32.7082C23.4665 32.0685 23.4665 31.0313 22.8268 30.3915L6.60777 14.1725C5.96804 13.5328 4.9308 13.5328 4.29102 14.1725L2.37253 16.091C1.73279 16.7307 1.73279 17.768 2.37253 18.4077L7.29594 23.3311L0.526812 30.1003C-0.112923 30.74 -0.179607 31.7107 0.377904 32.2681L4.73114 36.6213ZM4.11284 30.4838C4.7763 29.8203 5.85202 29.8203 6.51548 30.4838C7.17897 31.1473 7.17897 32.223 6.51548 32.8864C5.85202 33.5498 4.7763 33.5498 4.11284 32.8864C3.44935 32.223 3.44935 31.1473 4.11284 30.4838Z" fill="#40B3A2"/>
<path d="M7.1949 12.1197C7.19833 12.1434 7.20234 12.1671 7.2069 12.1907C7.21245 12.2193 7.2191 12.2478 7.22634 12.2761C7.29058 12.528 7.421 12.7666 7.61814 12.9637L11.7225 17.0681L24.0358 29.3813C24.1455 29.491 24.2678 29.5801 24.3983 29.6487C24.4417 29.6715 24.4861 29.6921 24.5312 29.7104C24.5988 29.7378 24.668 29.76 24.7382 29.7772C24.7878 29.7893 24.8379 29.7986 24.8883 29.8056C24.9298 29.8114 24.9715 29.8153 25.0133 29.8176C25.0177 29.8179 25.022 29.8182 25.0264 29.8184C25.0492 29.8195 25.072 29.8201 25.0948 29.8201C25.0955 29.8201 25.0962 29.82 25.0969 29.82C25.1281 29.82 25.1591 29.8187 25.1902 29.8167C25.1985 29.8161 25.2067 29.8155 25.215 29.8149C25.2466 29.8124 25.2783 29.8092 25.3097 29.8047C25.4285 29.7875 25.5456 29.7561 25.6583 29.7104C25.7033 29.6921 25.7477 29.6716 25.7912 29.6487C25.8129 29.6373 25.8345 29.6253 25.8557 29.6128C25.9355 29.5657 26.0118 29.5105 26.0836 29.4472C26.1075 29.4263 26.1309 29.4043 26.1537 29.3814L30.9657 24.5694L35.7778 19.7573L36.5606 18.9745C36.5843 18.9508 36.6069 18.9266 36.6286 18.9019C36.7805 18.7286 36.8855 18.5285 36.944 18.3183C37.0841 17.8148 36.9566 17.2523 36.5607 16.8564L36.3723 16.668L21.5641 1.85956L20.1431 0.438659C20.1066 0.402111 20.0686 0.367844 20.0294 0.335859C19.9902 0.303875 19.9497 0.274172 19.9082 0.246751C19.8459 0.205639 19.7812 0.169641 19.7148 0.138797C19.6705 0.118222 19.6253 0.0999671 19.5795 0.083955C19.5338 0.067943 19.4874 0.0542521 19.4406 0.042843C19.3705 0.0256901 19.2992 0.0137302 19.2276 0.00684544C19.2052 0.00468165 19.1826 0.00314733 19.1601 0.00200642C19.1527 0.00161301 19.1453 0.00153432 19.1379 0.00129827C19.1227 0.000747491 19.1075 0.000275391 19.0922 0.000196708C19.0895 0.000196708 19.0868 0 19.0841 0C19.0798 0 19.0756 0.000354075 19.0713 0.000393416C19.0499 0.000590124 19.0284 0.00121959 19.007 0.00232116C19.0005 0.00267523 18.994 0.00291128 18.9874 0.0033047C18.9611 0.00499639 18.9347 0.00731754 18.9083 0.0103862C18.9036 0.010937 18.8989 0.0117238 18.8941 0.0123139C18.8719 0.0151465 18.8497 0.0184906 18.8276 0.0223067C18.8204 0.0235263 18.8134 0.0247852 18.8062 0.0261228C18.7798 0.0310799 18.7536 0.0364697 18.7275 0.042843C18.7104 0.0470132 18.6934 0.0518523 18.6764 0.0566519C18.4379 0.123887 18.2127 0.251 18.025 0.438698L17.8389 0.624824L7.61814 10.8456C7.47746 10.9863 7.37096 11.1481 7.29798 11.3207C7.29153 11.336 7.28539 11.3513 7.27945 11.3667C7.25895 11.4201 7.24156 11.4743 7.2274 11.5292C7.21308 11.5847 7.20183 11.6408 7.19396 11.6973C7.18771 11.7423 7.18334 11.7875 7.18117 11.8328C7.18003 11.8567 7.17944 11.8807 7.17944 11.9046C7.17944 11.9286 7.17999 11.9525 7.18117 11.9765C7.18346 12.0243 7.18802 12.0721 7.1949 12.1197ZM18.8596 1.27321C18.9365 1.19638 19.0241 1.18025 19.0841 1.18025C19.1441 1.18025 19.2318 1.19638 19.3086 1.27321L35.7262 17.6909C35.8031 17.7677 35.8192 17.8554 35.8192 17.9153C35.8192 17.9753 35.8031 18.063 35.7262 18.1398L34.3194 19.5466C33.4425 19.4453 32.5488 19.4613 31.7097 19.7275C31.0349 19.9417 30.5038 20.3329 29.9734 20.7911C29.4143 21.2739 28.8031 21.7858 28.0506 21.9142C27.4138 22.0228 26.6743 21.9403 26.2221 21.4209C25.7489 20.8771 25.5959 20.1275 25.7759 19.4303C25.9598 18.7185 26.3832 18.1203 26.8074 17.5328C27.2476 16.9231 27.707 16.3206 28.0765 15.6639C28.4333 15.0297 29.2422 13.8103 28.7932 13.0709C28.3223 12.2958 27.1471 12.6259 26.5129 12.9819C25.2053 13.7173 24.27 14.9072 23.3741 16.0802C23.1195 16.4135 22.8696 16.7517 22.6037 17.0762C22.3628 17.3703 22.0837 17.6383 21.7175 17.7653C20.9696 18.0245 20.2515 17.5703 20.1518 16.7927C20.0542 16.0312 20.6413 15.4454 21.1443 14.9629C21.7112 14.4193 22.3119 13.9118 22.8747 13.3639C23.4069 12.8458 23.9342 12.2909 24.2925 11.634C24.4158 11.408 24.5343 11.1452 24.5756 10.8806C23.5108 10.9048 22.4405 10.9273 21.4325 10.5219C20.7884 10.2628 20.2055 9.83647 19.8583 9.22219C19.5565 8.68828 19.4298 8.08301 19.4173 7.47341C19.3922 6.25512 19.7204 5.04647 19.492 3.8316C19.3377 3.01046 19.0304 2.23783 18.5817 1.55104L18.8596 1.27321Z" fill="#40B3A2"/>
</svg>
