<svg width="384" height="338" viewBox="0 0 384 338" fill="none" xmlns="http://www.w3.org/2000/svg">
<path d="M212.022 278.652L271.824 295.855L212.022 278.652ZM276.284 67.3562L336.087 84.5589L276.284 67.3562ZM221.377 258.597L281.18 275.8L221.377 258.597ZM226.145 233.646L285.949 250.849L226.145 233.646ZM235.029 211.063L294.833 228.267L235.029 211.063ZM239.798 186.112L299.601 203.315L239.798 186.112ZM249.788 163.847L309.591 181.05L249.788 163.847ZM254.558 138.895L314.36 156.098L254.558 138.895ZM263.441 116.314L323.244 133.516L263.441 116.314ZM268.209 91.3623L328.013 108.565L268.209 91.3623ZM268.209 91.3623L328.013 108.565L268.209 91.3623ZM343.084 66.1486L271.204 303.976L343.084 66.1486ZM281.32 47.3264L209.439 285.157L281.32 47.3264ZM281.319 47.3312L209.439 285.157L281.319 47.3312Z" fill="black"/>
<path d="M212.022 278.652L271.824 295.855M276.284 67.3562L336.087 84.5589M221.377 258.597L281.18 275.8M226.145 233.646L285.949 250.849M235.029 211.063L294.833 228.267M239.798 186.112L299.601 203.315M249.788 163.847L309.591 181.05M254.558 138.895L314.36 156.098M263.441 116.314L323.244 133.516M268.209 91.3623L328.013 108.565M343.084 66.1486L271.204 303.976M281.32 47.3264L209.439 285.157L281.319 47.3312" stroke="#9F9F9F" stroke-width="7" stroke-linecap="square"/>
<path d="M141.786 192.55C141.786 192.55 134.962 185.229 124.69 185.229C110.015 185.229 101.209 193.648 99.8154 201.702C96.6602 219.639 120.14 217.223 119.187 222.934C118.966 224.032 117.205 225.862 113.17 225.862C108.033 225.862 101.063 219.639 101.063 219.639L91.0103 230.621C91.0103 230.621 98.2745 239.407 110.455 239.407C126.157 239.407 135.769 230.841 137.237 222.202C140.172 205.729 116.472 207.193 117.426 201.702C117.646 200.238 119.407 198.773 122.342 198.773C127.478 198.773 132.394 203.898 132.394 203.898L141.786 192.55ZM139.684 218.907C137.63 230.621 145.628 239.407 156.634 239.407C170.575 239.407 178.867 229.889 180.554 220.371C182.242 210.854 176.812 199.872 163.605 199.872C151.131 199.872 141.812 207.193 139.684 218.907ZM161.55 211.586C165.953 211.586 166.613 215.978 165.879 220.371C165.366 223.3 163.091 227.693 158.688 227.693C153.552 227.693 153.846 221.835 154.359 218.907C154.799 216.711 156.414 211.586 161.55 211.586ZM224.716 219.639C227.21 205.363 222.514 200.604 212.609 200.604C207.839 200.604 202.923 203.532 202.923 203.532H202.189L201.602 200.604L188.688 201.336L183.185 238.674L198.374 237.942L202.043 214.88C202.043 214.88 205.271 213.416 207.472 213.416C210.04 213.416 210.554 216.711 210.04 219.639L206.739 238.162C206.739 238.235 221.487 237.942 221.487 237.942L224.716 219.639ZM265.439 204.997C265.439 204.997 258.982 199.872 250.177 199.872C238.437 199.872 231.76 206.461 230.806 211.952C228.384 225.496 245.334 223.3 244.747 226.594C244.527 227.693 242.913 228.425 239.978 228.425C236.309 228.425 231.833 224.764 231.833 224.764L225.156 233.55C225.156 233.55 230.732 239.407 241.739 239.407C253.479 239.407 260.89 232.817 261.917 226.96C264.118 214.514 246.582 215.978 247.169 212.684C247.389 211.586 249.003 210.854 251.204 210.854C254.873 210.854 258.762 213.782 258.762 213.782L265.439 204.997Z" fill="white"/>
<path d="M141.787 192.55L143.672 194.105L145.037 192.455L143.578 190.888L141.787 192.55ZM99.8156 201.702L102.225 202.124L102.226 202.117L99.8156 201.702ZM119.187 222.934L121.585 223.412L121.593 223.374L121.599 223.335L119.187 222.934ZM101.063 219.639L102.694 217.821L100.89 216.21L99.257 217.993L101.063 219.639ZM91.0105 230.621L89.2045 228.975L87.7725 230.539L89.1239 232.174L91.0105 230.621ZM137.237 222.202L134.829 221.774L134.827 221.784L134.826 221.794L137.237 222.202ZM117.426 201.702L119.836 202.119L119.84 202.091L119.845 202.064L117.426 201.702ZM132.394 203.898L130.627 205.586L132.529 207.569L134.28 205.453L132.394 203.898ZM141.787 192.55C143.578 190.888 143.577 190.887 143.576 190.887C143.576 190.887 143.576 190.886 143.575 190.886C143.573 190.885 143.573 190.883 143.572 190.882C143.568 190.879 143.566 190.876 143.562 190.873C143.556 190.865 143.548 190.857 143.538 190.846C143.517 190.825 143.49 190.797 143.457 190.763C143.39 190.694 143.297 190.6 143.177 190.484C142.939 190.254 142.595 189.934 142.155 189.556C141.274 188.801 139.995 187.805 138.37 186.809C135.13 184.826 130.415 182.789 124.69 182.789V187.669C129.238 187.669 133.071 189.292 135.811 190.97C137.176 191.805 138.245 192.639 138.965 193.257C139.325 193.566 139.595 193.818 139.77 193.987C139.857 194.071 139.919 194.134 139.957 194.173C139.977 194.193 139.989 194.206 139.996 194.212C139.999 194.216 140 194.217 140 194.217C140 194.217 140 194.217 139.999 194.216C139.999 194.216 139.999 194.215 139.997 194.215C139.997 194.215 139.997 194.213 139.996 194.213C139.996 194.213 139.995 194.212 141.787 192.55ZM124.69 182.789C109.1 182.789 99.0457 191.811 97.4055 201.287L102.226 202.117C103.374 195.485 110.93 187.669 124.69 187.669V182.789ZM97.4066 201.28C96.5206 206.317 97.4791 210.224 99.669 213.221C101.788 216.121 104.865 217.895 107.691 219.136C109.118 219.764 110.547 220.281 111.824 220.735C113.138 221.202 114.238 221.583 115.161 221.975C116.118 222.381 116.604 222.687 116.816 222.889C116.918 222.985 116.73 222.801 116.774 222.532L121.599 223.335C121.883 221.639 121.169 220.281 120.182 219.347C119.305 218.517 118.138 217.934 117.077 217.484C115.982 217.019 114.699 216.575 113.465 216.137C112.195 215.686 110.912 215.218 109.661 214.669C107.13 213.558 104.988 212.215 103.622 210.346C102.326 208.573 101.533 206.056 102.225 202.124L97.4066 201.28ZM116.788 222.455C116.852 222.139 116.922 222.368 116.331 222.73C115.808 223.05 114.819 223.422 113.17 223.422V228.303C117.749 228.303 121.033 226.166 121.585 223.412L116.788 222.455ZM113.17 223.422C112.345 223.422 111.291 223.162 110.068 222.643C108.868 222.136 107.647 221.438 106.529 220.708C105.417 219.983 104.448 219.252 103.757 218.703C103.412 218.429 103.14 218.203 102.957 218.047C102.865 217.97 102.796 217.91 102.751 217.871C102.729 217.851 102.713 217.837 102.703 217.828C102.698 217.825 102.695 217.822 102.694 217.82C102.693 217.82 102.693 217.82 102.693 217.82C102.693 217.82 102.693 217.82 102.693 217.82C102.693 217.82 102.693 217.82 102.693 217.82C102.694 217.82 102.694 217.821 101.063 219.639C99.4321 221.457 99.4325 221.458 99.4328 221.458C99.433 221.458 99.4335 221.458 99.4337 221.46C99.4344 221.46 99.4352 221.461 99.436 221.461C99.4377 221.463 99.4399 221.465 99.4425 221.467C99.4477 221.472 99.4545 221.478 99.4631 221.485C99.4801 221.5 99.5037 221.521 99.5337 221.548C99.5938 221.6 99.6795 221.673 99.7885 221.766C100.007 221.951 100.319 222.21 100.708 222.52C101.484 223.137 102.579 223.962 103.852 224.793C105.118 225.619 106.603 226.477 108.155 227.136C109.684 227.784 111.426 228.303 113.17 228.303V223.422ZM99.257 217.993L89.2045 228.975L92.8166 232.267L102.869 221.285L99.257 217.993ZM91.0105 230.621C89.1239 232.174 89.1245 232.174 89.1251 232.176C89.1255 232.176 89.1261 232.177 89.1267 232.178C89.1277 232.179 89.1289 232.181 89.1303 232.182C89.1328 232.185 89.1358 232.189 89.1393 232.193C89.1463 232.201 89.1551 232.211 89.1656 232.224C89.1869 232.249 89.2153 232.282 89.2509 232.323C89.322 232.404 89.4218 232.516 89.5499 232.655C89.8058 232.931 90.1753 233.313 90.6538 233.766C91.609 234.669 93.0092 235.861 94.8189 237.052C98.4338 239.43 103.757 241.847 110.455 241.847V236.966C104.972 236.966 100.574 234.991 97.5115 232.976C95.9826 231.971 94.8054 230.966 94.018 230.222C93.6252 229.851 93.3319 229.546 93.1431 229.342C93.0487 229.241 92.9806 229.164 92.9393 229.117C92.9187 229.093 92.9049 229.077 92.8978 229.069C92.8943 229.064 92.8925 229.063 92.8924 229.062C92.8923 229.062 92.8927 229.063 92.8935 229.064C92.8938 229.064 92.8945 229.064 92.8951 229.065C92.8953 229.065 92.8959 229.067 92.896 229.067C92.8967 229.068 92.8971 229.068 91.0105 230.621ZM110.455 241.847C126.973 241.847 137.925 232.758 139.649 222.609L134.826 221.794C133.615 228.924 125.342 236.966 110.455 236.966V241.847ZM139.645 222.629C140.492 217.877 139.425 214.162 137.165 211.307C134.996 208.569 131.894 206.84 129.057 205.598C127.62 204.97 126.18 204.438 124.891 203.967C123.569 203.483 122.448 203.078 121.513 202.67C120.543 202.246 120.031 201.924 119.8 201.707C119.661 201.576 119.895 201.775 119.836 202.119L115.016 201.285C114.718 203.001 115.484 204.356 116.447 205.26C117.318 206.079 118.479 206.672 119.55 207.14C120.657 207.624 121.948 208.089 123.208 208.549C124.499 209.022 125.81 209.508 127.092 210.069C129.694 211.206 131.908 212.542 133.328 214.335C134.654 216.01 135.451 218.29 134.829 221.774L139.645 222.629ZM119.845 202.064C119.829 202.166 119.818 201.985 120.212 201.726C120.587 201.48 121.275 201.214 122.342 201.214V196.333C118.787 196.333 115.482 198.179 115.007 201.34L119.845 202.064ZM122.342 201.214C124.164 201.214 126.172 202.158 127.91 203.348C128.742 203.918 129.436 204.49 129.92 204.921C130.161 205.134 130.347 205.31 130.468 205.428C130.53 205.487 130.574 205.531 130.6 205.558C130.614 205.571 130.622 205.581 130.627 205.586C130.63 205.588 130.631 205.59 130.631 205.59C130.631 205.59 130.631 205.59 130.63 205.588C130.63 205.588 130.63 205.588 130.629 205.587C130.629 205.586 130.627 205.586 132.394 203.898C134.162 202.211 134.16 202.211 134.16 202.21C134.16 202.21 134.16 202.21 134.159 202.208C134.159 202.208 134.158 202.207 134.157 202.206C134.155 202.205 134.153 202.202 134.151 202.2C134.146 202.195 134.14 202.189 134.133 202.181C134.119 202.167 134.099 202.147 134.076 202.123C134.028 202.075 133.962 202.009 133.878 201.929C133.71 201.765 133.472 201.541 133.172 201.275C132.574 200.744 131.718 200.035 130.679 199.324C128.674 197.951 125.656 196.333 122.342 196.333V201.214ZM134.28 205.453L143.672 194.105L139.901 190.996L130.509 202.344L134.28 205.453ZM139.684 218.907L137.278 218.471L137.275 218.486L139.684 218.907ZM180.555 220.371L178.147 219.947L180.555 220.371ZM165.88 220.371L168.289 220.792L168.291 220.782L168.292 220.773L165.88 220.371ZM154.36 218.907L151.961 218.429L151.955 218.457L151.95 218.486L154.36 218.907ZM137.275 218.486C136.132 225.003 137.773 230.875 141.398 235.13C145.014 239.375 150.466 241.847 156.634 241.847V236.966C151.797 236.966 147.746 235.046 145.125 231.969C142.513 228.903 141.182 224.525 142.094 219.328L137.275 218.486ZM156.634 241.847C171.882 241.847 181.09 231.358 182.964 220.796L178.147 219.947C176.644 228.42 169.269 236.966 156.634 236.966V241.847ZM182.964 220.796C183.907 215.473 182.881 209.67 179.661 205.14C176.384 200.532 170.966 197.431 163.605 197.431V202.312C169.452 202.312 173.352 204.702 175.67 207.964C178.045 211.305 178.89 215.752 178.147 219.947L182.964 220.796ZM163.605 197.431C150.054 197.431 139.634 205.497 137.278 218.471L142.091 219.343C143.99 208.889 152.21 202.312 163.605 202.312V197.431ZM161.55 214.026C162.229 214.026 162.574 214.188 162.76 214.321C162.955 214.463 163.172 214.713 163.353 215.194C163.75 216.243 163.808 217.93 163.467 219.97L168.292 220.773C168.685 218.42 168.779 215.714 167.929 213.468C167.488 212.302 166.759 211.179 165.615 210.359C164.462 209.532 163.073 209.145 161.55 209.145V214.026ZM163.47 219.95C163.272 221.078 162.721 222.508 161.839 223.599C160.991 224.646 159.968 225.252 158.689 225.252V230.133C161.812 230.133 164.127 228.543 165.647 226.661C167.132 224.824 167.973 222.593 168.289 220.792L163.47 219.95ZM158.689 225.252C157.901 225.252 157.554 225.042 157.376 224.888C157.162 224.704 156.933 224.363 156.764 223.751C156.407 222.453 156.529 220.692 156.769 219.328L151.95 218.486C151.676 220.049 151.396 222.682 152.047 225.045C152.383 226.264 153.009 227.569 154.17 228.575C155.367 229.611 156.908 230.133 158.689 230.133V225.252ZM156.758 219.385C156.948 218.436 157.374 216.986 158.192 215.83C158.95 214.758 159.958 214.026 161.55 214.026V209.145C158.006 209.145 155.639 210.976 154.196 213.016C152.813 214.971 152.211 217.182 151.961 218.429L156.758 219.385ZM224.716 219.639L227.124 220.063L227.125 220.059L224.716 219.639ZM202.923 203.532V205.973H203.597L204.177 205.627L202.923 203.532ZM202.19 203.532L199.791 204.011L200.184 205.973H202.19V203.532ZM201.603 200.604L204.001 200.125L203.584 198.047L201.463 198.167L201.603 200.604ZM188.688 201.336L188.549 198.899L186.558 199.013L186.268 200.981L188.688 201.336ZM183.185 238.674L180.765 238.319L180.332 241.255L183.303 241.112L183.185 238.674ZM198.374 237.942L198.491 240.38L200.477 240.284L200.789 238.326L198.374 237.942ZM202.043 214.88L201.03 212.658L199.833 213.201L199.626 214.497L202.043 214.88ZM210.041 219.639L212.449 220.066L212.45 220.06L210.041 219.639ZM206.739 238.162L204.331 237.735L204.293 237.947V238.162H206.739ZM221.487 237.942L221.536 240.383L223.547 240.343L223.895 238.366L221.487 237.942ZM227.125 220.059C228.399 212.764 227.997 207.165 225.311 203.363C222.528 199.42 217.863 198.163 212.609 198.163V203.044C217.26 203.044 219.896 204.167 221.312 206.173C222.829 208.319 223.526 212.237 222.306 219.219L227.125 220.059ZM212.609 198.163C209.773 198.163 207.016 199.021 205.065 199.803C204.069 200.204 203.236 200.603 202.648 200.904C202.352 201.055 202.117 201.183 201.951 201.276C201.868 201.322 201.802 201.359 201.755 201.387C201.731 201.401 201.713 201.412 201.698 201.42C201.691 201.424 201.684 201.427 201.68 201.431C201.677 201.432 201.676 201.433 201.673 201.435C201.672 201.435 201.672 201.435 201.671 201.436H201.67C201.67 201.437 201.669 201.437 202.923 203.532C204.177 205.627 204.177 205.627 204.176 205.629C204.174 205.629 204.174 205.629 204.174 205.63C204.173 205.63 204.173 205.63 204.173 205.63C204.173 205.63 204.174 205.629 204.177 205.627C204.182 205.625 204.19 205.62 204.204 205.611C204.231 205.597 204.275 205.571 204.336 205.537C204.457 205.47 204.643 205.369 204.884 205.245C205.367 204.998 206.06 204.665 206.889 204.333C208.589 203.651 210.674 203.044 212.609 203.044V198.163ZM202.923 201.092H202.19V205.973H202.923V201.092ZM204.588 203.054L204.001 200.125L199.204 201.082L199.791 204.011L204.588 203.054ZM201.463 198.167L188.549 198.899L188.827 203.773L201.741 203.041L201.463 198.167ZM186.268 200.981L180.765 238.319L185.604 239.03L191.107 201.691L186.268 200.981ZM183.303 241.112L198.491 240.38L198.255 235.504L183.067 236.237L183.303 241.112ZM200.789 238.326L204.458 215.263L199.626 214.497L195.957 237.559L200.789 238.326ZM202.043 214.88C203.054 217.102 203.054 217.102 203.054 217.102C203.053 217.102 203.053 217.102 203.053 217.102V217.104C203.053 217.104 203.053 217.102 203.054 217.102C203.058 217.101 203.064 217.097 203.072 217.094C203.091 217.086 203.119 217.073 203.158 217.056C203.236 217.023 203.355 216.972 203.505 216.911C203.809 216.787 204.233 216.623 204.717 216.459C205.758 216.108 206.796 215.856 207.473 215.856V210.976C205.948 210.976 204.27 211.456 203.147 211.837C202.548 212.04 202.028 212.241 201.658 212.392C201.47 212.468 201.32 212.531 201.212 212.578C201.16 212.601 201.117 212.62 201.086 212.634C201.071 212.64 201.058 212.646 201.049 212.65C201.044 212.652 201.04 212.655 201.038 212.656C201.035 212.656 201.034 212.657 201.033 212.657C201.033 212.657 201.033 212.658 201.031 212.658C201.03 212.658 201.03 212.658 202.043 214.88ZM207.473 215.856C207.542 215.856 207.473 215.86 207.408 215.804C207.386 215.784 207.481 215.86 207.585 216.18C207.803 216.855 207.849 217.974 207.632 219.218L212.45 220.06C212.745 218.376 212.791 216.384 212.24 214.679C211.957 213.809 211.474 212.878 210.651 212.149C209.784 211.383 208.687 210.976 207.473 210.976V215.856ZM207.633 219.212L204.331 237.735L209.147 238.589L212.449 220.066L207.633 219.212ZM204.293 238.162C204.293 239.53 205.331 240.164 205.458 240.242C205.731 240.41 205.973 240.482 206.047 240.504C206.231 240.559 206.383 240.578 206.417 240.583C206.524 240.598 206.613 240.602 206.641 240.604C206.719 240.609 206.8 240.611 206.861 240.612C206.994 240.613 207.173 240.615 207.378 240.613C207.794 240.613 208.38 240.607 209.073 240.599C210.463 240.582 212.311 240.551 214.156 240.519C216.001 240.488 217.845 240.454 219.229 240.427C219.921 240.413 220.498 240.402 220.902 240.395C221.103 240.391 221.261 240.388 221.37 240.385C221.424 240.384 221.465 240.384 221.493 240.383C221.507 240.383 221.518 240.383 221.525 240.383C221.529 240.383 221.531 240.383 221.533 240.383C221.534 240.383 221.535 240.383 221.535 240.383C221.535 240.383 221.536 240.383 221.487 237.942C221.438 235.502 221.438 235.502 221.438 235.502C221.438 235.502 221.438 235.502 221.437 235.502H221.436C221.434 235.502 221.431 235.503 221.427 235.503C221.42 235.503 221.41 235.503 221.396 235.503C221.369 235.504 221.327 235.504 221.273 235.506C221.166 235.508 221.007 235.51 220.805 235.515C220.403 235.523 219.827 235.534 219.136 235.547C217.754 235.573 215.912 235.608 214.07 235.64C212.227 235.672 210.389 235.701 209.012 235.718C208.323 235.726 207.756 235.733 207.366 235.733C207.168 235.734 207.03 235.733 206.947 235.731C206.9 235.731 206.898 235.73 206.921 235.731C206.921 235.731 206.99 235.735 207.081 235.747C207.109 235.751 207.255 235.77 207.436 235.824C207.508 235.845 207.748 235.917 208.019 236.084C208.145 236.161 209.185 236.794 209.185 238.162H204.293ZM223.895 238.366L227.124 220.063L222.307 219.216L219.078 237.519L223.895 238.366ZM265.439 204.997L267.388 206.471L268.832 204.571L266.962 203.087L265.439 204.997ZM230.806 211.952L233.214 212.38L233.215 212.369L230.806 211.952ZM244.747 226.594L247.146 227.073L247.151 227.047L247.155 227.021L244.747 226.594ZM231.833 224.764L233.384 222.876L231.419 221.269L229.884 223.29L231.833 224.764ZM225.156 233.55L223.207 232.076L221.951 233.728L223.383 235.23L225.156 233.55ZM261.917 226.96L259.508 226.536V226.539L261.917 226.96ZM247.169 212.684L244.771 212.206L244.765 212.231L244.761 212.257L247.169 212.684ZM258.762 213.782L257.289 215.73L259.237 217.196L260.71 215.256L258.762 213.782ZM265.439 204.997C266.962 203.087 266.961 203.086 266.961 203.086C266.96 203.086 266.96 203.084 266.958 203.084C266.958 203.083 266.957 203.083 266.956 203.082C266.953 203.08 266.95 203.077 266.947 203.075C266.94 203.07 266.933 203.064 266.923 203.056C266.903 203.041 266.878 203.021 266.846 202.997C266.781 202.948 266.693 202.882 266.58 202.8C266.354 202.638 266.033 202.413 265.623 202.147C264.805 201.619 263.627 200.922 262.156 200.228C259.227 198.845 255.048 197.431 250.177 197.431V202.312C254.111 202.312 257.564 203.46 260.065 204.64C261.308 205.227 262.295 205.812 262.962 206.244C263.296 206.46 263.546 206.635 263.709 206.752C263.79 206.811 263.848 206.855 263.884 206.881C263.901 206.894 263.912 206.904 263.918 206.907C263.921 206.91 263.922 206.911 263.922 206.911C263.922 206.911 263.922 206.91 263.921 206.91C263.919 206.909 263.919 206.909 263.918 206.909C263.918 206.907 263.918 206.907 263.918 206.907C263.917 206.907 263.917 206.906 265.439 204.997ZM250.177 197.431C237.588 197.431 229.606 204.568 228.396 211.534L233.215 212.369C233.914 208.353 239.285 202.312 250.177 202.312V197.431ZM228.398 211.523C227.701 215.421 228.36 218.515 230.048 220.898C231.678 223.201 234.052 224.525 236.172 225.38C238.191 226.193 240.55 226.769 241.731 227.146C242.062 227.251 242.319 227.344 242.518 227.428C242.615 227.469 242.687 227.503 242.739 227.53C242.792 227.558 242.814 227.573 242.813 227.573C242.813 227.573 242.776 227.547 242.722 227.491C242.667 227.435 242.587 227.339 242.51 227.198C242.333 226.873 242.281 226.496 242.34 226.167L247.155 227.021C247.288 226.282 247.171 225.535 246.812 224.874C246.48 224.263 246.011 223.849 245.622 223.577C244.887 223.063 243.965 222.734 243.221 222.497C241.465 221.936 239.847 221.596 238.004 220.853C236.264 220.153 234.891 219.28 234.043 218.082C233.251 216.964 232.699 215.255 233.214 212.38L228.398 211.523ZM242.349 226.116C242.468 225.522 242.886 225.489 242.468 225.657C242.073 225.816 241.283 225.984 239.978 225.984V230.865C241.608 230.865 243.093 230.667 244.294 230.185C245.47 229.713 246.806 228.765 247.146 227.073L242.349 226.116ZM239.978 225.984C238.826 225.984 237.266 225.358 235.759 224.485C235.056 224.077 234.449 223.666 234.02 223.357C233.807 223.203 233.64 223.076 233.53 222.992C233.475 222.95 233.434 222.918 233.41 222.897C233.397 222.887 233.389 222.881 233.384 222.878C233.382 222.875 233.38 222.874 233.38 222.874C233.38 222.874 233.38 222.874 233.382 222.875C233.382 222.875 233.382 222.875 233.383 222.875V222.876C233.383 222.876 233.384 222.876 231.833 224.764C230.283 226.652 230.283 226.652 230.284 226.652V226.653C230.285 226.653 230.285 226.654 230.286 226.654C230.288 226.655 230.29 226.658 230.291 226.659C230.296 226.663 230.301 226.666 230.307 226.672C230.321 226.682 230.338 226.696 230.358 226.713C230.401 226.747 230.46 226.793 230.535 226.851C230.684 226.967 230.895 227.126 231.16 227.315C231.683 227.693 232.425 228.196 233.3 228.704C234.948 229.661 237.461 230.865 239.978 230.865V225.984ZM229.884 223.29L223.207 232.076L227.104 235.024L233.781 226.238L229.884 223.29ZM225.156 233.55C223.383 235.23 223.383 235.231 223.384 235.232C223.384 235.232 223.385 235.233 223.387 235.235C223.388 235.236 223.389 235.237 223.39 235.238C223.393 235.241 223.396 235.244 223.4 235.248C223.407 235.255 223.416 235.264 223.426 235.275C223.445 235.294 223.471 235.321 223.503 235.352C223.565 235.413 223.651 235.496 223.758 235.595C223.975 235.794 224.282 236.063 224.68 236.378C225.478 237.008 226.642 237.824 228.174 238.634C231.248 240.26 235.783 241.847 241.739 241.847V236.966C236.687 236.966 232.932 235.625 230.465 234.322C229.227 233.668 228.31 233.02 227.718 232.551C227.421 232.317 227.207 232.129 227.075 232.007C227.009 231.947 226.965 231.904 226.94 231.879C226.928 231.867 226.921 231.86 226.918 231.858C226.918 231.857 226.918 231.857 226.92 231.86C226.921 231.86 226.922 231.861 226.923 231.863C226.925 231.863 226.926 231.864 226.926 231.866C226.927 231.866 226.927 231.867 226.927 231.867C226.928 231.868 226.929 231.869 225.156 233.55ZM241.739 241.847C254.246 241.847 263.029 234.776 264.327 227.381L259.508 226.539C258.75 230.859 252.712 236.966 241.739 236.966V241.847ZM264.325 227.385C264.985 223.662 264.181 220.695 262.374 218.424C260.654 216.265 258.217 214.982 256.052 214.123C254.021 213.316 251.52 212.652 250.325 212.245C249.577 211.99 249.25 211.822 249.149 211.749C249.096 211.711 249.739 212.197 249.577 213.111L244.761 212.257C244.45 213.994 245.514 215.155 246.299 215.716C247.036 216.242 247.965 216.598 248.744 216.863C250.604 217.498 252.24 217.862 254.245 218.658C256.116 219.4 257.613 220.291 258.543 221.461C259.387 222.519 259.951 224.036 259.508 226.536L264.325 227.385ZM249.567 213.162C249.458 213.703 249.104 213.738 249.456 213.578C249.759 213.442 250.345 213.294 251.205 213.294V208.413C249.862 208.413 248.541 208.632 247.432 209.135C246.37 209.616 245.098 210.567 244.771 212.206L249.567 213.162ZM251.205 213.294C252.459 213.294 253.934 213.82 255.243 214.49C255.866 214.808 256.393 215.129 256.76 215.368C256.944 215.488 257.084 215.584 257.176 215.649C257.221 215.681 257.254 215.705 257.273 215.719C257.283 215.726 257.289 215.731 257.291 215.732C257.292 215.733 257.294 215.733 257.292 215.733C257.292 215.733 257.292 215.733 257.291 215.732C257.291 215.732 257.291 215.732 257.29 215.731C257.289 215.731 257.289 215.73 258.762 213.782C260.236 211.835 260.235 211.833 260.235 211.833C260.235 211.833 260.233 211.833 260.233 211.832C260.232 211.832 260.232 211.832 260.231 211.831C260.23 211.83 260.227 211.829 260.225 211.827C260.221 211.824 260.216 211.82 260.21 211.815C260.198 211.807 260.181 211.794 260.161 211.78C260.122 211.75 260.068 211.711 260 211.664C259.864 211.567 259.672 211.436 259.434 211.281C258.957 210.971 258.282 210.559 257.475 210.146C255.923 209.351 253.617 208.413 251.205 208.413V213.294ZM260.71 215.256L267.388 206.471L263.49 203.523L256.813 212.308L260.71 215.256Z" fill="black"/>
<path d="M69.5112 131.051C71.5657 119.703 60.5594 116.409 50.8738 116.409C41.8485 116.409 30.5487 117.141 30.5487 117.141L21.5234 168.39C21.5234 168.39 32.0162 169.122 41.555 169.122C55.4964 169.122 67.2366 164.729 69.2177 153.747C70.9787 143.497 60.4126 140.935 60.486 140.935L60.5594 140.203C60.5594 140.203 68.4106 137.64 69.5112 131.051ZM40.2343 147.524H45.3706C51.2406 147.524 53.9555 148.622 53.3685 151.917C52.7815 155.211 49.6264 156.383 43.7563 156.383H38.62L40.2343 147.524ZM43.6096 128.489H48.7459C52.7815 128.489 54.4692 129.221 53.9555 132.149C53.4419 135.078 51.4608 135.81 47.4251 135.81H42.2888L43.6096 128.489ZM92.2262 131.051C80.8529 131.051 73.3686 140.569 71.5342 150.819C70.2134 158.14 74.029 169.854 87.2366 169.854C91.6391 169.854 95.0878 166.926 95.0878 166.926H95.8216L96.0417 169.854L109.029 169.122L115.266 131.783L100.811 130.319L99.9306 133.248H99.1969C99.1969 133.248 96.2618 131.051 92.2262 131.051ZM90.5385 157.408C86.8697 157.408 85.9892 154.113 86.723 150.087C87.2366 147.158 89.2911 143.497 92.9599 143.497C96.2618 143.497 97.8761 144.962 97.8761 144.962L96.4086 155.211C96.4086 155.211 93.8404 157.408 90.5385 157.408ZM162.774 168.39H178.55L181.412 150.087C183.54 136.176 178.477 131.051 168.938 131.051C163.068 131.051 155.73 135.444 155.73 135.444C155.73 135.444 152.795 131.051 145.824 131.051C141.055 131.051 136.139 133.98 136.139 133.98H135.405L134.818 131.051L121.904 131.783L116.034 169.122L131.223 168.39L135.332 144.962C135.332 144.962 137.386 142.765 140.101 142.765C142.669 142.765 143.256 145.694 142.523 150.087L139.221 168.756L154.703 168.39L158.812 144.962C158.812 144.962 161.013 142.765 163.508 142.765C166.15 142.765 166.883 144.962 166.003 150.087L162.774 168.39ZM187.59 144.229H192.359L188.691 169.122L203.513 168.39L207.035 144.229H215.473L218.261 132.515H209.456L209.823 130.319C210.336 127.391 211.731 125.926 213.565 125.926C216.133 125.926 217.747 127.024 217.747 127.024L222.884 116.775C222.884 116.775 218.188 114.212 211.29 114.212C204.246 114.212 196.762 119.337 194.781 130.319L194.414 132.515H188.911L187.59 144.229ZM216.356 149.354C214.301 161.068 222.299 169.854 233.306 169.854C247.247 169.854 255.538 160.336 257.226 150.819C258.914 141.301 253.484 130.319 240.276 130.319C227.802 130.319 218.484 137.64 216.356 149.354ZM238.222 142.033C242.624 142.033 243.285 146.426 242.551 150.819C242.037 153.747 239.763 158.14 235.36 158.14C230.224 158.14 230.517 152.283 231.031 149.354C231.471 147.158 233.085 142.033 238.222 142.033ZM296.104 136.176C296.104 136.176 292.949 131.051 286.345 131.051C281.943 131.051 278.861 133.98 278.861 133.98H278.127L277.907 131.051L265.36 131.783L259.49 169.122L274.678 168.39L278.347 145.328C278.347 145.328 279.888 144.229 281.869 144.229C284.804 144.229 286.859 147.158 286.859 147.158L296.104 136.176ZM313.859 131.051C302.485 131.051 295.001 140.569 293.167 150.819C291.846 158.14 295.662 169.854 308.869 169.854C313.272 169.854 316.72 166.926 316.72 166.926H317.454L317.674 169.854L330.662 169.122L339.614 116.409L325.159 114.944L321.563 133.248H320.829C320.829 133.248 317.894 131.051 313.859 131.051ZM312.171 157.408C308.502 157.408 307.622 154.113 308.356 150.087C308.869 147.158 310.924 143.497 314.592 143.497C317.894 143.497 319.509 144.962 319.509 144.962L318.041 155.211C318.041 155.211 315.473 157.408 312.171 157.408Z" fill="white"/>
<path d="M69.5116 131.051L67.1047 130.617L67.1017 130.634L67.099 130.65L69.5116 131.051ZM30.549 117.141L30.3905 114.705L28.4727 114.83L28.1401 116.718L30.549 117.141ZM21.5238 168.39L19.1149 167.968L18.645 170.635L21.3532 170.824L21.5238 168.39ZM69.2181 153.747L71.6253 154.179L71.627 154.169L71.6287 154.16L69.2181 153.747ZM60.4863 140.935V143.375H62.6999L62.9201 141.178L60.4863 140.935ZM60.5597 140.203L59.7993 137.883L58.2846 138.377L58.126 139.96L60.5597 140.203ZM40.2346 147.524V145.084H38.1933L37.8283 147.087L40.2346 147.524ZM53.3689 151.917L55.777 152.344L53.3689 151.917ZM38.6204 156.383L36.214 155.946L35.6897 158.823H38.6204V156.383ZM43.6099 128.489V126.048H41.5651L41.2027 128.057L43.6099 128.489ZM53.9559 132.149L51.5466 131.728L53.9559 132.149ZM42.2891 135.81L39.8819 135.378L39.3638 138.25H42.2891V135.81ZM71.9184 131.486C72.506 128.24 72.1879 125.378 71.0432 122.94C69.9025 120.511 68.0362 118.702 65.8637 117.388C61.6006 114.808 55.9013 113.968 50.8741 113.968V118.849C55.5325 118.849 60.1793 119.656 63.3271 121.561C64.86 122.489 65.9654 123.631 66.6133 125.011C67.2571 126.383 67.5444 128.189 67.1047 130.617L71.9184 131.486ZM50.8741 113.968C46.3059 113.968 41.181 114.153 37.2137 114.337C35.2267 114.429 33.5232 114.521 32.3157 114.59C31.7119 114.624 31.2319 114.653 30.9022 114.673C30.7374 114.684 30.6102 114.691 30.5237 114.697C30.4805 114.7 30.4475 114.702 30.4253 114.703C30.414 114.704 30.4056 114.704 30.3997 114.705C30.3969 114.705 30.3947 114.705 30.3931 114.705C30.3924 114.705 30.3918 114.705 30.3913 114.705C30.3911 114.705 30.3909 114.705 30.3908 114.705C30.3906 114.705 30.3905 114.705 30.549 117.141C30.7075 119.576 30.7075 119.576 30.7075 119.576C30.7076 119.576 30.7076 119.576 30.7078 119.576C30.708 119.576 30.7085 119.576 30.7091 119.576C30.7103 119.576 30.7122 119.576 30.7147 119.576C30.7199 119.575 30.7277 119.575 30.7382 119.574C30.7591 119.573 30.7908 119.571 30.8325 119.568C30.916 119.563 31.0404 119.555 31.2022 119.545C31.5257 119.525 31.999 119.497 32.5956 119.463C33.7889 119.395 35.4744 119.303 37.4405 119.212C41.3794 119.03 46.4171 118.849 50.8741 118.849V113.968ZM28.1401 116.718L19.1149 167.968L23.9327 168.812L32.9579 117.563L28.1401 116.718ZM21.5238 168.39C21.3532 170.824 21.3533 170.824 21.3534 170.824C21.3536 170.824 21.3537 170.824 21.3539 170.824C21.3544 170.824 21.3549 170.824 21.3556 170.824C21.3572 170.824 21.3593 170.824 21.362 170.825C21.3675 170.825 21.3756 170.825 21.386 170.827C21.407 170.828 21.4378 170.83 21.4783 170.833C21.5593 170.839 21.6784 170.846 21.8331 170.856C22.1422 170.877 22.5934 170.906 23.1641 170.94C24.3052 171.01 25.9254 171.101 27.8451 171.194C31.6795 171.377 36.7308 171.562 41.5554 171.562V166.681C36.8411 166.681 31.8766 166.501 28.0799 166.318C26.1841 166.228 24.5849 166.136 23.4606 166.068C22.8985 166.035 22.4554 166.005 22.1536 165.986C22.0026 165.976 21.887 165.969 21.8096 165.963C21.7708 165.96 21.7417 165.959 21.7224 165.957C21.7127 165.957 21.7055 165.957 21.7009 165.955C21.6986 165.955 21.6968 165.955 21.6957 165.955C21.6953 165.955 21.6948 165.955 21.6946 165.955C21.6945 165.955 21.6944 165.955 21.6944 165.955C21.6944 165.955 21.6944 165.955 21.5238 168.39ZM41.5554 171.562C48.7384 171.562 55.5798 170.437 60.9705 167.733C66.4405 164.989 70.4723 160.571 71.6253 154.179L66.8108 153.315C65.9827 157.906 63.1538 161.175 58.7731 163.372C54.3131 165.61 48.3138 166.681 41.5554 166.681V171.562ZM71.6287 154.16C72.6911 147.977 69.9622 143.942 67.0112 141.59C65.5797 140.449 64.1083 139.705 63.0167 139.246C62.466 139.016 61.9998 138.851 61.6671 138.743C61.5 138.69 61.3677 138.649 61.2779 138.624C61.2558 138.618 61.2369 138.612 61.2218 138.608C61.2043 138.603 61.1985 138.601 61.193 138.599C61.1788 138.595 61.2052 138.603 61.2393 138.614C61.2503 138.616 61.2727 138.624 61.3009 138.635C61.3182 138.641 61.3884 138.665 61.4756 138.703C61.526 138.726 61.6605 138.795 61.7434 138.842C61.9057 138.948 62.4266 139.45 62.7025 139.904C62.9192 141.181 61.9041 142.924 61.2211 143.263C60.9723 143.327 60.6024 143.373 60.4863 143.375V138.494C60.3699 138.497 59.9999 138.543 59.751 138.607C59.0677 138.947 58.0526 140.688 58.2694 141.967C58.5453 142.42 59.0665 142.923 59.2289 143.029C59.312 143.076 59.4467 143.145 59.4975 143.168C59.5854 143.206 59.6566 143.231 59.6753 143.237C59.7049 143.248 59.7289 143.256 59.7419 143.261C59.784 143.274 59.8233 143.285 59.8269 143.286C59.8705 143.298 59.8608 143.296 59.9055 143.308C59.9615 143.325 60.0468 143.351 60.1584 143.386C60.3824 143.46 60.7159 143.575 61.118 143.745C61.932 144.087 62.9782 144.624 63.959 145.405C65.8324 146.897 67.5061 149.268 66.8074 153.335L71.6287 154.16ZM62.9201 141.178L62.9935 140.446L58.126 139.96L58.0526 140.692L62.9201 141.178ZM60.5597 140.203C61.3201 142.522 61.321 142.522 61.3219 142.521C61.3222 142.521 61.3231 142.521 61.3238 142.521C61.325 142.521 61.3265 142.52 61.3281 142.52C61.3313 142.519 61.3349 142.518 61.339 142.516C61.3473 142.514 61.3574 142.51 61.3694 142.505C61.3934 142.498 61.4248 142.487 61.4633 142.474C61.5401 142.447 61.6452 142.408 61.7747 142.359C62.0334 142.26 62.3917 142.115 62.8196 141.92C63.6707 141.532 64.823 140.935 66.0238 140.098C68.3818 138.454 71.22 135.667 71.9242 131.453L67.099 130.65C66.7025 133.024 65.0647 134.813 63.222 136.098C62.3224 136.724 61.4432 137.18 60.7878 137.479C60.4625 137.628 60.1987 137.734 60.0237 137.801C59.9364 137.834 59.8717 137.858 59.8331 137.871C59.8137 137.878 59.8009 137.883 59.7951 137.884C59.7923 137.886 59.7911 137.886 59.7918 137.886C59.7922 137.886 59.7929 137.886 59.7942 137.884C59.7948 137.884 59.7955 137.884 59.7964 137.884C59.7969 137.884 59.7976 137.884 59.7978 137.884C59.7986 137.883 59.7993 137.883 60.5597 140.203ZM40.2346 149.965H45.3709V145.084H40.2346V149.965ZM45.3709 149.965C48.2921 149.965 49.9056 150.262 50.6737 150.655C50.8325 150.737 50.9112 150.802 50.9444 150.835C50.9608 150.85 50.9683 150.86 50.9706 150.863C50.9728 150.866 50.9735 150.867 50.9743 150.869C50.975 150.871 50.9786 150.878 50.9828 150.896C50.9874 150.913 50.9935 150.943 50.9975 150.989C51.0057 151.085 51.0042 151.246 50.9608 151.49L55.777 152.344C55.9832 151.187 55.9451 149.961 55.4104 148.813C54.8667 147.645 53.9431 146.844 52.909 146.314C50.9989 145.335 48.3198 145.084 45.3709 145.084V149.965ZM50.9608 151.49C50.8229 152.263 50.4774 152.745 49.5542 153.154C48.4401 153.646 46.6061 153.942 43.7567 153.942V158.823C46.7773 158.823 49.4559 158.534 51.5338 157.616C53.8023 156.616 55.3279 154.865 55.777 152.344L50.9608 151.49ZM43.7567 153.942H38.6204V158.823H43.7567V153.942ZM41.0267 156.82L42.641 147.961L37.8283 147.087L36.214 155.946L41.0267 156.82ZM43.6099 130.929H48.7462V126.048H43.6099V130.929ZM48.7462 130.929C49.6974 130.929 50.4143 130.973 50.9492 131.058C51.4992 131.146 51.7047 131.255 51.7411 131.278C51.7466 131.282 51.7105 131.259 51.6658 131.201C51.6201 131.143 51.5974 131.088 51.5897 131.063C51.5817 131.038 51.6382 131.206 51.5466 131.728L56.3652 132.57C56.5304 131.628 56.5686 130.607 56.2626 129.62C55.9333 128.558 55.265 127.732 54.373 127.164C53.5472 126.638 52.6063 126.38 51.7209 126.239C50.8203 126.096 49.8129 126.048 48.7462 126.048V130.929ZM51.5466 131.728C51.3918 132.612 51.1335 132.784 50.8878 132.911C50.388 133.168 49.4061 133.37 47.4255 133.37V138.25C49.4805 138.25 51.507 138.086 53.1351 137.245C55.0173 136.274 56.0064 134.615 56.3652 132.57L51.5466 131.728ZM47.4255 133.37H42.2891V138.25H47.4255V133.37ZM44.6964 136.242L46.0171 128.921L41.2027 128.057L39.8819 135.378L44.6964 136.242ZM71.5345 150.819L73.9418 151.251L73.9424 151.248L71.5345 150.819ZM95.0882 166.926V164.485H94.1883L93.503 165.067L95.0882 166.926ZM95.8219 166.926L98.2609 166.742L98.0912 164.485H95.8219V166.926ZM96.0421 169.854L93.603 170.037L93.7827 172.426L96.18 172.291L96.0421 169.854ZM109.03 169.122L109.168 171.559L111.121 171.449L111.442 169.523L109.03 169.122ZM115.267 131.783L117.679 132.185L118.108 129.619L115.514 129.355L115.267 131.783ZM100.811 130.319L101.059 127.891L99.0491 127.687L98.4688 129.617L100.811 130.319ZM99.931 133.248V135.688H101.751L102.274 133.949L99.931 133.248ZM99.1972 133.248L97.7297 135.2L98.382 135.688H99.1972V133.248ZM86.7233 150.087L89.1298 150.523L89.1326 150.508L86.7233 150.087ZM97.8764 144.962L100.298 145.307L100.481 144.026L99.5218 143.156L97.8764 144.962ZM96.4089 155.211L98.0007 157.065L98.7 156.466L98.8302 155.557L96.4089 155.211ZM92.2265 128.611C79.2367 128.611 71.083 139.458 69.1268 150.389L73.9424 151.248C75.6548 141.679 82.4699 133.492 92.2265 133.492V128.611ZM69.1274 150.387C68.3697 154.587 69.0716 159.976 71.8713 164.387C74.7541 168.929 79.7852 172.294 87.237 172.294V167.414C81.4811 167.414 78.0005 164.922 76.004 161.776C73.9243 158.5 73.3787 154.372 73.9418 151.251L69.1274 150.387ZM87.237 172.294C89.9665 172.294 92.325 171.393 93.9411 170.556C94.7604 170.131 95.422 169.705 95.8855 169.381C96.1181 169.218 96.3032 169.079 96.4356 168.975C96.502 168.924 96.5553 168.882 96.5951 168.849C96.615 168.833 96.6315 168.819 96.6446 168.808C96.6511 168.802 96.6568 168.799 96.6616 168.794C96.664 168.792 96.6662 168.79 96.6682 168.789C96.6692 168.788 96.67 168.786 96.6709 168.786C96.6714 168.785 96.672 168.785 96.6722 168.785C96.6728 168.784 96.6735 168.784 95.0882 166.926C93.503 165.067 93.5035 165.067 93.5041 165.066C93.5042 165.066 93.5048 165.066 93.5051 165.065C93.5058 165.065 93.5064 165.065 93.5069 165.063C93.5081 165.062 93.509 165.062 93.5097 165.061C93.5112 165.06 93.5118 165.06 93.5117 165.06C93.5114 165.06 93.5081 165.062 93.5017 165.068C93.4888 165.078 93.4638 165.099 93.4272 165.127C93.3539 165.184 93.2351 165.273 93.0756 165.386C92.7549 165.61 92.2791 165.916 91.686 166.224C90.4772 166.851 88.9099 167.414 87.237 167.414V172.294ZM95.0882 169.366H95.8219V164.485H95.0882V169.366ZM93.3829 167.109L93.603 170.037L98.4811 169.671L98.2609 166.742L93.3829 167.109ZM96.18 172.291L109.168 171.559L108.892 166.685L95.9041 167.417L96.18 172.291ZM111.442 169.523L117.679 132.185L112.854 131.382L106.617 168.72L111.442 169.523ZM115.514 129.355L101.059 127.891L100.564 132.747L115.019 134.212L115.514 129.355ZM98.4688 129.617L97.5883 132.546L102.274 133.949L103.154 131.021L98.4688 129.617ZM99.931 130.807H99.1972V135.688H99.931V130.807ZM99.1972 133.248C100.665 131.295 100.664 131.295 100.664 131.294C100.663 131.294 100.663 131.294 100.662 131.293C100.661 131.293 100.66 131.292 100.659 131.292C100.657 131.289 100.655 131.288 100.652 131.285C100.648 131.283 100.642 131.278 100.636 131.273C100.623 131.265 100.607 131.252 100.589 131.24C100.551 131.213 100.503 131.179 100.443 131.138C100.323 131.056 100.157 130.947 99.9496 130.821C99.5357 130.569 98.949 130.243 98.2186 129.919C96.7692 129.277 94.6825 128.611 92.2265 128.611V133.492C93.8062 133.492 95.2048 133.924 96.2318 134.38C96.7399 134.604 97.1389 134.828 97.4016 134.988C97.5324 135.067 97.6277 135.13 97.6838 135.168C97.712 135.188 97.7301 135.2 97.7379 135.206C97.7418 135.208 97.7431 135.21 97.7418 135.208C97.7411 135.208 97.7397 135.207 97.7378 135.206C97.7368 135.205 97.7356 135.205 97.7342 135.204C97.7336 135.202 97.7329 135.202 97.7321 135.201C97.7318 135.201 97.7312 135.201 97.7309 135.201C97.7303 135.2 97.7297 135.2 99.1972 133.248ZM90.5389 154.967C89.9939 154.967 89.7266 154.848 89.6025 154.77C89.4835 154.694 89.3461 154.562 89.2177 154.272C88.92 153.598 88.7983 152.343 89.1298 150.523L84.317 149.65C83.9147 151.857 83.8663 154.262 84.7425 156.243C85.2013 157.28 85.926 158.223 86.981 158.89C88.031 159.555 89.2495 159.848 90.5389 159.848V154.967ZM89.1326 150.508C89.3323 149.369 89.8336 148.127 90.5619 147.226C91.2593 146.365 92.044 145.938 92.9603 145.938V141.057C90.2078 141.057 88.1308 142.46 86.7554 144.161C85.4108 145.823 84.6281 147.875 84.3142 149.666L89.1326 150.508ZM92.9603 145.938C94.2373 145.938 95.1261 146.218 95.6539 146.455C95.9215 146.576 96.1033 146.687 96.2002 146.753C96.2485 146.786 96.2754 146.807 96.2806 146.81C96.2833 146.813 96.2805 146.81 96.2723 146.804C96.2682 146.8 96.2628 146.796 96.2558 146.79C96.2524 146.786 96.2487 146.783 96.2446 146.78C96.2425 146.777 96.2404 146.776 96.2382 146.774C96.237 146.772 96.2359 146.771 96.2348 146.771C96.2342 146.77 96.2333 146.769 96.2329 146.769C96.2321 146.769 96.2312 146.768 97.8764 144.962C99.5218 143.156 99.5208 143.154 99.5199 143.154C99.5196 143.154 99.5187 143.153 99.5181 143.152C99.5168 143.151 99.5155 143.151 99.5142 143.15C99.5116 143.147 99.5088 143.145 99.506 143.142C99.5004 143.136 99.4941 143.131 99.4877 143.125C99.4744 143.114 99.4595 143.101 99.4428 143.086C99.4093 143.058 99.3685 143.025 99.3206 142.987C99.2247 142.91 99.0997 142.818 98.9452 142.713C98.6361 142.504 98.208 142.249 97.6593 142.004C96.5546 141.508 94.9852 141.057 92.9603 141.057V145.938ZM95.4552 144.616L93.9877 154.866L98.8302 155.557L100.298 145.307L95.4552 144.616ZM96.4089 155.211C94.8172 153.358 94.8178 153.358 94.8184 153.358C94.8185 153.358 94.819 153.357 94.8194 153.357C94.8201 153.355 94.8207 153.355 94.8213 153.355C94.8227 153.354 94.8238 153.353 94.8246 153.352C94.8266 153.351 94.8279 153.349 94.8287 153.349C94.8301 153.348 94.8293 153.348 94.8262 153.351C94.8202 153.355 94.8052 153.368 94.7818 153.386C94.735 153.423 94.655 153.484 94.5456 153.56C94.3252 153.717 93.9944 153.93 93.5808 154.146C92.7316 154.588 91.6607 154.967 90.5389 154.967V159.848C92.719 159.848 94.5831 159.13 95.8436 158.473C96.4848 158.14 97.0023 157.804 97.3666 157.548C97.5496 157.42 97.6961 157.309 97.8025 157.225C97.8558 157.183 97.8992 157.149 97.9323 157.121C97.949 157.108 97.9629 157.097 97.9744 157.087C97.98 157.082 97.985 157.077 97.9894 157.073C97.9917 157.072 97.9937 157.07 97.9956 157.069C97.9965 157.067 97.9974 157.067 97.9982 157.066C97.9987 157.066 97.9994 157.065 97.9995 157.065C98.0001 157.065 98.0007 157.065 96.4089 155.211ZM162.775 168.39L160.367 167.966L159.862 170.83H162.775V168.39ZM178.55 168.39V170.83H180.645L180.967 168.766L178.55 168.39ZM181.412 150.087L183.829 150.462L183.83 150.455L181.412 150.087ZM155.731 135.444L153.696 136.797L154.989 138.734L156.989 137.537L155.731 135.444ZM136.139 133.98V136.42H136.814L137.394 136.075L136.139 133.98ZM135.405 133.98L133.007 134.458L133.401 136.42H135.405V133.98ZM134.818 131.051L137.218 130.573L136.801 128.495L134.68 128.614L134.818 131.051ZM121.905 131.783L121.766 129.347L119.794 129.459L119.488 131.405L121.905 131.783ZM116.035 169.122L113.618 168.744L113.153 171.704L116.153 171.56L116.035 169.122ZM131.223 168.39L131.342 170.828L133.296 170.733L133.632 168.811L131.223 168.39ZM135.332 144.962L133.544 143.296L133.049 143.827L132.923 144.541L135.332 144.962ZM142.523 150.087L144.932 150.511L144.935 150.499L144.936 150.488L142.523 150.087ZM139.221 168.756L136.813 168.331L136.293 171.266L139.28 171.195L139.221 168.756ZM154.703 168.39L154.762 170.829L156.768 170.783L157.112 168.811L154.703 168.39ZM158.812 144.962L157.083 143.236L156.536 143.782L156.403 144.541L158.812 144.962ZM166.003 150.087L168.412 150.51L168.415 150.499L166.003 150.087ZM162.775 170.83H178.55V165.949H162.775V170.83ZM180.967 168.766L183.829 150.462L178.996 149.711L176.134 168.014L180.967 168.766ZM183.83 150.455C184.928 143.279 184.291 137.722 181.532 133.921C178.689 130.005 174.099 128.611 168.938 128.611V133.492C173.318 133.492 176.028 134.659 177.57 136.784C179.195 139.023 180.025 142.984 178.994 149.718L183.83 150.455ZM168.938 128.611C165.493 128.611 161.817 129.872 159.171 131.005C157.811 131.586 156.649 132.165 155.825 132.601C155.411 132.819 155.081 133.002 154.85 133.133C154.735 133.199 154.645 133.25 154.581 133.288C154.549 133.306 154.524 133.321 154.505 133.332C154.497 133.337 154.489 133.341 154.484 133.345C154.481 133.346 154.478 133.348 154.477 133.349C154.476 133.349 154.475 133.35 154.475 133.35L154.473 133.351C154.473 133.351 154.472 133.351 155.731 135.444C156.989 137.537 156.989 137.537 156.989 137.537C156.989 137.537 156.989 137.537 156.988 137.538C156.988 137.538 156.988 137.538 156.989 137.537C156.99 137.535 156.994 137.534 156.999 137.531C157.009 137.526 157.026 137.515 157.049 137.501C157.095 137.474 157.169 137.433 157.265 137.378C157.459 137.268 157.747 137.108 158.114 136.914C158.849 136.526 159.887 136.008 161.097 135.49C163.587 134.426 166.514 133.492 168.938 133.492V128.611ZM155.731 135.444C157.766 134.091 157.766 134.089 157.764 134.088C157.764 134.087 157.763 134.087 157.763 134.086C157.762 134.085 157.761 134.082 157.759 134.081C157.757 134.077 157.755 134.074 157.752 134.07C157.747 134.061 157.74 134.053 157.734 134.042C157.719 134.022 157.702 133.998 157.681 133.97C157.641 133.913 157.587 133.841 157.52 133.754C157.386 133.583 157.198 133.357 156.953 133.095C156.467 132.572 155.748 131.9 154.775 131.235C152.813 129.892 149.862 128.611 145.825 128.611V133.492C148.76 133.492 150.762 134.407 152.009 135.26C152.641 135.693 153.093 136.12 153.373 136.42C153.512 136.57 153.609 136.687 153.663 136.756C153.689 136.79 153.705 136.812 153.712 136.82C153.714 136.824 153.714 136.824 153.712 136.82C153.71 136.818 153.708 136.815 153.705 136.812C153.704 136.811 153.703 136.808 153.702 136.806C153.701 136.804 153.699 136.803 153.699 136.802C153.698 136.801 153.698 136.8 153.697 136.8C153.697 136.798 153.696 136.797 155.731 135.444ZM145.825 128.611C142.99 128.611 140.232 129.469 138.282 130.251C137.285 130.651 136.452 131.05 135.864 131.351C135.569 131.503 135.333 131.631 135.168 131.723C135.085 131.77 135.019 131.806 134.971 131.835C134.948 131.848 134.929 131.859 134.914 131.867C134.908 131.871 134.902 131.875 134.897 131.878C134.894 131.88 134.892 131.881 134.891 131.882C134.889 131.882 134.888 131.882 134.888 131.883C134.887 131.883 134.887 131.883 134.887 131.883C134.886 131.885 134.886 131.885 136.139 133.98C137.394 136.075 137.393 136.075 137.393 136.076H137.392C137.392 136.076 137.392 136.076 137.39 136.077C137.39 136.077 137.392 136.076 137.393 136.075C137.398 136.072 137.407 136.067 137.421 136.059C137.448 136.044 137.492 136.019 137.553 135.984C137.674 135.917 137.86 135.816 138.101 135.693C138.583 135.445 139.277 135.112 140.106 134.78C141.805 134.098 143.891 133.492 145.825 133.492V128.611ZM136.139 131.539H135.405V136.42H136.139V131.539ZM137.805 133.501L137.218 130.573L132.42 131.529L133.007 134.458L137.805 133.501ZM134.68 128.614L121.766 129.347L122.044 134.22L134.958 133.488L134.68 128.614ZM119.488 131.405L113.618 168.744L118.451 169.5L124.321 132.162L119.488 131.405ZM116.153 171.56L131.342 170.828L131.106 165.952L115.917 166.684L116.153 171.56ZM133.632 168.811L137.741 145.383L132.923 144.541L128.814 167.969L133.632 168.811ZM135.332 144.962C137.12 146.627 137.12 146.627 137.12 146.628C137.119 146.628 137.119 146.628 137.119 146.628C137.118 146.63 137.118 146.631 137.116 146.631C137.115 146.632 137.114 146.633 137.114 146.635C137.111 146.637 137.11 146.638 137.109 146.639C137.107 146.642 137.107 146.642 137.108 146.641C137.111 146.637 137.121 146.627 137.137 146.611C137.17 146.578 137.229 146.524 137.31 146.453C137.475 146.309 137.719 146.111 138.025 145.915C138.666 145.501 139.393 145.206 140.102 145.206V140.325C138.095 140.325 136.438 141.128 135.374 141.812C134.826 142.165 134.388 142.516 134.082 142.785C133.928 142.919 133.805 143.035 133.715 143.124C133.67 143.168 133.633 143.205 133.604 143.234C133.591 143.248 133.578 143.261 133.569 143.272C133.563 143.277 133.559 143.281 133.555 143.285C133.553 143.287 133.55 143.29 133.549 143.291C133.548 143.292 133.548 143.294 133.547 143.294C133.547 143.295 133.545 143.295 133.545 143.295C133.545 143.296 133.544 143.296 135.332 144.962ZM140.102 145.206C140.247 145.206 140.18 145.234 140.083 145.151C140.02 145.097 140.105 145.13 140.203 145.464C140.421 146.206 140.461 147.591 140.111 149.685L144.936 150.488C145.32 148.189 145.432 145.913 144.898 144.093C144.62 143.146 144.124 142.172 143.251 141.432C142.344 140.663 141.24 140.325 140.102 140.325V145.206ZM140.115 149.662L136.813 168.331L141.63 169.18L144.932 150.511L140.115 149.662ZM139.28 171.195L154.762 170.829L154.646 165.951L139.164 166.317L139.28 171.195ZM157.112 168.811L161.222 145.383L156.403 144.541L152.294 167.969L157.112 168.811ZM158.812 144.962C160.543 146.687 160.542 146.688 160.542 146.688C160.542 146.688 160.54 146.688 160.54 146.689L160.539 146.691C160.538 146.692 160.537 146.693 160.537 146.693C160.534 146.694 160.533 146.696 160.533 146.697C160.532 146.698 160.533 146.697 160.535 146.694C160.54 146.689 160.554 146.677 160.573 146.659C160.613 146.622 160.68 146.561 160.77 146.486C160.952 146.332 161.219 146.126 161.541 145.921C162.237 145.478 162.939 145.206 163.508 145.206V140.325C161.585 140.325 159.937 141.151 158.909 141.806C158.368 142.15 157.929 142.493 157.621 142.751C157.466 142.881 157.341 142.992 157.252 143.076C157.205 143.118 157.169 143.152 157.141 143.18C157.127 143.194 157.115 143.205 157.105 143.214C157.1 143.219 157.097 143.223 157.093 143.226C157.09 143.229 157.089 143.23 157.088 143.231C157.087 143.233 157.086 143.234 157.086 143.234C157.084 143.234 157.084 143.235 157.084 143.235C157.084 143.235 157.083 143.236 158.812 144.962ZM163.508 145.206C163.837 145.206 163.861 145.274 163.773 145.214C163.664 145.141 163.693 145.087 163.76 145.286C163.951 145.851 164.027 147.147 163.593 149.674L168.415 150.499C168.861 147.901 169.009 145.536 168.394 143.722C168.058 142.731 167.462 141.807 166.501 141.163C165.559 140.531 164.5 140.325 163.508 140.325V145.206ZM163.595 149.663L160.367 167.966L165.184 168.813L168.412 150.51L163.595 149.663ZM187.59 144.229L185.16 143.956L184.853 146.67H187.59V144.229ZM192.36 144.229L194.78 144.585L195.192 141.789H192.36V144.229ZM188.691 169.122L186.271 168.767L185.838 171.706L188.812 171.56L188.691 169.122ZM203.513 168.39L203.634 170.828L205.643 170.728L205.933 168.741L203.513 168.39ZM207.035 144.229V141.789H204.919L204.615 143.878L207.035 144.229ZM215.473 144.229V146.67H217.407L217.853 144.793L215.473 144.229ZM218.261 132.515L220.641 133.079L221.357 130.075H218.261V132.515ZM209.456 132.515L207.043 132.114L206.569 134.956H209.456V132.515ZM209.823 130.319L207.414 129.898L207.413 129.908L207.41 129.918L209.823 130.319ZM217.748 127.024L216.37 129.04L218.683 130.614L219.936 128.115L217.748 127.024ZM222.884 116.775L225.072 117.866L226.126 115.762L224.058 114.634L222.884 116.775ZM194.781 130.319L192.374 129.887L192.371 129.902L192.368 129.918L194.781 130.319ZM194.414 132.515V134.956H196.486L196.827 132.917L194.414 132.515ZM188.911 132.515V130.075H186.725L186.481 132.242L188.911 132.515ZM187.59 146.67H192.36V141.789H187.59V146.67ZM189.94 143.874L186.271 168.767L191.111 169.477L194.78 144.585L189.94 143.874ZM188.812 171.56L203.634 170.828L203.392 165.952L188.57 166.684L188.812 171.56ZM205.933 168.741L209.455 144.581L204.615 143.878L201.093 168.038L205.933 168.741ZM207.035 146.67H215.473V141.789H207.035V146.67ZM217.853 144.793L220.641 133.079L215.882 131.952L213.093 143.666L217.853 144.793ZM218.261 130.075H209.456V134.956H218.261V130.075ZM211.869 132.917L212.236 130.72L207.41 129.918L207.043 132.114L211.869 132.917ZM212.232 130.74C212.443 129.543 212.79 128.917 213.04 128.631C213.234 128.409 213.38 128.367 213.565 128.367V123.486C211.918 123.486 210.448 124.175 209.359 125.417C208.324 126.596 207.717 128.167 207.414 129.898L212.232 130.74ZM213.565 128.367C214.498 128.367 215.248 128.566 215.752 128.757C216.003 128.852 216.187 128.943 216.295 129.001C216.349 129.03 216.383 129.05 216.396 129.059C216.403 129.062 216.404 129.063 216.4 129.061C216.398 129.06 216.394 129.057 216.389 129.054C216.387 129.052 216.384 129.05 216.381 129.048C216.379 129.046 216.377 129.046 216.376 129.045C216.374 129.044 216.373 129.044 216.373 129.043C216.372 129.043 216.372 129.041 216.372 129.041C216.371 129.041 216.37 129.04 217.748 127.024C219.126 125.009 219.125 125.007 219.125 125.007C219.124 125.007 219.124 125.006 219.122 125.006C219.121 125.005 219.121 125.005 219.12 125.004C219.117 125.003 219.115 125.001 219.113 124.999C219.108 124.996 219.103 124.993 219.097 124.989C219.086 124.982 219.073 124.973 219.059 124.963C219.029 124.945 218.993 124.922 218.951 124.896C218.866 124.844 218.753 124.778 218.616 124.705C218.341 124.557 217.962 124.373 217.489 124.194C216.542 123.835 215.2 123.486 213.565 123.486V128.367ZM219.936 128.115L225.072 117.866L220.696 115.683L215.56 125.934L219.936 128.115ZM222.884 116.775C224.058 114.634 224.057 114.633 224.057 114.633C224.056 114.633 224.056 114.632 224.054 114.632C224.054 114.631 224.053 114.631 224.052 114.63C224.05 114.629 224.047 114.628 224.043 114.626C224.039 114.623 224.031 114.619 224.023 114.615C224.007 114.606 223.986 114.595 223.96 114.582C223.91 114.555 223.84 114.52 223.754 114.477C223.58 114.392 223.337 114.276 223.026 114.14C222.407 113.868 221.522 113.516 220.41 113.166C218.189 112.467 215.04 111.772 211.291 111.772V116.653C214.439 116.653 217.086 117.238 218.939 117.821C219.862 118.112 220.583 118.4 221.058 118.609C221.297 118.713 221.474 118.797 221.584 118.852C221.639 118.879 221.678 118.899 221.699 118.91C221.71 118.915 221.716 118.919 221.717 118.92C221.719 118.92 221.719 118.92 221.717 118.92C221.717 118.919 221.716 118.919 221.715 118.918C221.715 118.918 221.714 118.917 221.713 118.917C221.713 118.917 221.713 118.917 221.711 118.916C221.711 118.916 221.71 118.916 222.884 116.775ZM211.291 111.772C202.942 111.772 194.543 117.866 192.374 129.887L197.188 130.751C198.982 120.808 205.553 116.653 211.291 116.653V111.772ZM192.368 129.918L192.001 132.114L196.827 132.917L197.194 130.72L192.368 129.918ZM194.414 130.075H188.911V134.956H194.414V130.075ZM186.481 132.242L185.16 143.956L190.022 144.503L191.342 132.789L186.481 132.242ZM216.356 149.354L213.949 148.919L213.947 148.933L216.356 149.354ZM257.226 150.819L254.818 150.394L257.226 150.819ZM242.551 150.819L244.96 151.24L244.963 151.23L244.964 151.22L242.551 150.819ZM231.031 149.354L228.633 148.876L228.628 148.904L228.622 148.933L231.031 149.354ZM213.947 148.933C212.805 155.451 214.445 161.322 218.071 165.577C221.686 169.822 227.137 172.294 233.306 172.294V167.414C228.469 167.414 224.419 165.493 221.797 162.417C219.185 159.35 217.854 154.972 218.765 149.775L213.947 148.933ZM233.306 172.294C248.553 172.294 257.762 161.805 259.636 151.243L254.818 150.394C253.315 158.867 245.942 167.414 233.306 167.414V172.294ZM259.636 151.243C260.58 145.921 259.552 140.117 256.332 135.588C253.056 130.979 247.639 127.879 240.277 127.879V132.759C246.123 132.759 250.025 135.15 252.343 138.411C254.718 141.752 255.562 146.199 254.818 150.394L259.636 151.243ZM240.277 127.879C226.725 127.879 216.307 135.944 213.949 148.919L218.763 149.79C220.662 139.336 228.881 132.759 240.277 132.759V127.879ZM238.222 144.474C238.901 144.474 239.246 144.636 239.432 144.769C239.627 144.91 239.844 145.161 240.025 145.641C240.422 146.691 240.48 148.377 240.14 150.417L244.964 151.22C245.358 148.868 245.451 146.161 244.601 143.916C244.159 142.749 243.431 141.627 242.287 140.807C241.134 139.979 239.746 139.593 238.222 139.593V144.474ZM240.142 150.398C239.945 151.525 239.392 152.955 238.511 154.046C237.664 155.093 236.641 155.7 235.36 155.7V160.58C238.484 160.58 240.799 158.99 242.319 157.109C243.804 155.271 244.645 153.041 244.96 151.24L240.142 150.398ZM235.36 155.7C234.574 155.7 234.226 155.49 234.048 155.336C233.835 155.152 233.604 154.81 233.436 154.199C233.078 152.9 233.202 151.14 233.44 149.775L228.622 148.933C228.348 150.497 228.068 153.13 228.719 155.492C229.055 156.711 229.682 158.017 230.842 159.022C232.039 160.058 233.58 160.58 235.36 160.58V155.7ZM233.431 149.833C233.62 148.883 234.047 147.434 234.864 146.277C235.622 145.206 236.63 144.474 238.222 144.474V139.593C234.678 139.593 232.312 141.423 230.867 143.463C229.484 145.418 228.884 147.629 228.633 148.876L233.431 149.833ZM296.105 136.176L297.977 137.745L299.112 136.398L298.188 134.898L296.105 136.176ZM278.861 133.98V136.42H279.84L280.548 135.747L278.861 133.98ZM278.128 133.98L275.689 134.163L275.858 136.42H278.128V133.98ZM277.907 131.051L280.346 130.868L280.166 128.475L277.764 128.614L277.907 131.051ZM265.36 131.783L265.217 129.347L263.249 129.462L262.944 131.405L265.36 131.783ZM259.49 169.122L257.074 168.744L256.609 171.704L259.609 171.56L259.49 169.122ZM274.679 168.39L274.797 170.828L276.782 170.731L277.094 168.773L274.679 168.39ZM278.348 145.328L276.927 143.342L276.093 143.935L275.932 144.945L278.348 145.328ZM286.859 147.158L284.856 148.558L286.683 151.162L288.732 148.727L286.859 147.158ZM296.105 136.176C298.188 134.898 298.188 134.897 298.187 134.897C298.187 134.896 298.187 134.895 298.186 134.895C298.185 134.894 298.185 134.891 298.184 134.89C298.181 134.888 298.179 134.884 298.177 134.88C298.173 134.872 298.166 134.863 298.16 134.853C298.147 134.833 298.131 134.808 298.111 134.778C298.072 134.719 298.02 134.641 297.954 134.548C297.823 134.362 297.636 134.111 297.392 133.819C296.907 133.234 296.188 132.469 295.224 131.704C293.287 130.166 290.326 128.611 286.346 128.611V133.492C288.969 133.492 290.888 134.498 292.179 135.523C292.83 136.039 293.311 136.556 293.624 136.933C293.781 137.119 293.892 137.269 293.958 137.363C293.991 137.411 294.013 137.443 294.023 137.459C294.029 137.467 294.032 137.471 294.03 137.469C294.03 137.469 294.029 137.468 294.028 137.465C294.027 137.463 294.026 137.462 294.024 137.46C294.024 137.46 294.023 137.459 294.023 137.457C294.022 137.456 294.022 137.456 294.022 137.455C294.021 137.455 294.021 137.454 296.105 136.176ZM286.346 128.611C283.603 128.611 281.319 129.52 279.765 130.382C278.98 130.817 278.356 131.254 277.921 131.588C277.702 131.755 277.528 131.899 277.404 132.008C277.34 132.061 277.29 132.107 277.252 132.141C277.232 132.158 277.216 132.173 277.204 132.185C277.197 132.191 277.192 132.196 277.187 132.201C277.185 132.203 277.182 132.205 277.18 132.207C277.179 132.208 277.179 132.209 277.177 132.21C277.176 132.21 277.176 132.212 277.176 132.212C277.175 132.212 277.175 132.213 278.861 133.98C280.548 135.747 280.548 135.748 280.546 135.748C280.546 135.748 280.546 135.749 280.545 135.749C280.545 135.75 280.544 135.75 280.544 135.751C280.543 135.753 280.542 135.754 280.54 135.754C280.538 135.756 280.538 135.758 280.537 135.758C280.535 135.759 280.538 135.756 280.543 135.753C280.551 135.744 280.571 135.727 280.602 135.7C280.663 135.648 280.764 135.564 280.902 135.456C281.182 135.241 281.604 134.946 282.14 134.648C283.227 134.047 284.686 133.492 286.346 133.492V128.611ZM278.861 131.539H278.128V136.42H278.861V131.539ZM280.566 133.797L280.346 130.868L275.469 131.234L275.689 134.163L280.566 133.797ZM277.764 128.614L265.217 129.347L265.503 134.22L278.05 133.488L277.764 128.614ZM262.944 131.405L257.074 168.744L261.907 169.5L267.777 132.162L262.944 131.405ZM259.609 171.56L274.797 170.828L274.561 165.952L259.373 166.684L259.609 171.56ZM277.094 168.773L280.763 145.711L275.932 144.945L272.264 168.007L277.094 168.773ZM278.348 145.328C279.77 147.313 279.769 147.314 279.769 147.314C279.767 147.314 279.767 147.315 279.767 147.315C279.766 147.315 279.765 147.317 279.765 147.317C279.764 147.318 279.763 147.319 279.761 147.319C279.759 147.322 279.756 147.323 279.754 147.324C279.75 147.326 279.749 147.328 279.748 147.329C279.745 147.33 279.749 147.328 279.756 147.323C279.772 147.312 279.808 147.29 279.859 147.259C279.964 147.198 280.129 147.108 280.341 147.016C280.779 146.826 281.319 146.67 281.87 146.67V141.789C280.439 141.789 279.218 142.182 278.39 142.541C277.969 142.724 277.625 142.908 277.379 143.053C277.256 143.125 277.154 143.189 277.078 143.239C277.04 143.263 277.009 143.285 276.983 143.302C276.971 143.311 276.96 143.318 276.95 143.325C276.945 143.329 276.941 143.331 276.936 143.334C276.935 143.335 276.933 143.338 276.931 143.339C276.93 143.339 276.929 143.34 276.929 143.34C276.928 143.34 276.928 143.341 276.928 143.341C276.927 143.341 276.927 143.342 278.348 145.328ZM281.87 146.67C282.52 146.67 283.225 147.007 283.9 147.568C284.215 147.832 284.47 148.099 284.645 148.299C284.73 148.398 284.792 148.476 284.829 148.522C284.848 148.547 284.859 148.562 284.863 148.569C284.866 148.571 284.866 148.572 284.865 148.571C284.865 148.57 284.863 148.569 284.861 148.566C284.861 148.565 284.86 148.564 284.859 148.562C284.859 148.561 284.857 148.561 284.857 148.56L284.856 148.559C284.856 148.558 284.856 148.558 286.859 147.158C288.862 145.758 288.862 145.758 288.862 145.757L288.861 145.756C288.86 145.755 288.86 145.754 288.859 145.752C288.858 145.751 288.856 145.749 288.854 145.746C288.85 145.741 288.846 145.735 288.842 145.729C288.833 145.716 288.821 145.7 288.807 145.682C288.78 145.645 288.745 145.599 288.702 145.541C288.614 145.429 288.493 145.278 288.34 145.102C288.038 144.753 287.595 144.288 287.03 143.819C285.944 142.917 284.154 141.789 281.87 141.789V146.67ZM288.732 148.727L297.977 137.745L294.232 134.607L284.987 145.589L288.732 148.727ZM293.167 150.819L295.574 151.251L295.575 151.248L293.167 150.819ZM316.721 166.926V164.485H315.821L315.135 165.067L316.721 166.926ZM317.454 166.926L319.893 166.742L319.723 164.485H317.454V166.926ZM317.675 169.854L315.235 170.037L315.415 172.426L317.813 172.291L317.675 169.854ZM330.662 169.122L330.8 171.559L332.747 171.449L333.074 169.529L330.662 169.122ZM339.614 116.409L342.026 116.816L342.462 114.244L339.861 113.981L339.614 116.409ZM325.159 114.944L325.406 112.516L323.188 112.292L322.758 114.475L325.159 114.944ZM321.564 133.248V135.688H323.576L323.963 133.717L321.564 133.248ZM320.83 133.248L319.362 135.2L320.014 135.688H320.83V133.248ZM308.356 150.087L310.761 150.523L310.765 150.508L308.356 150.087ZM319.509 144.962L321.93 145.307L322.114 144.026L321.154 143.156L319.509 144.962ZM318.042 155.211L319.633 157.065L320.332 156.466L320.463 155.557L318.042 155.211ZM313.859 128.611C300.869 128.611 292.715 139.458 290.759 150.389L295.575 151.248C297.287 141.679 304.103 133.492 313.859 133.492V128.611ZM290.759 150.387C290.002 154.587 290.704 159.976 293.503 164.387C296.386 168.929 301.417 172.294 308.87 172.294V167.414C303.113 167.414 299.633 164.922 297.636 161.776C295.557 158.5 295.011 154.372 295.574 151.251L290.759 150.387ZM308.87 172.294C311.599 172.294 313.957 171.393 315.574 170.556C316.393 170.131 317.055 169.705 317.518 169.381C317.75 169.218 317.935 169.079 318.067 168.975C318.134 168.924 318.187 168.882 318.227 168.849C318.247 168.833 318.264 168.819 318.276 168.808C318.284 168.802 318.289 168.799 318.293 168.794C318.296 168.792 318.298 168.79 318.301 168.789C318.301 168.788 318.302 168.786 318.303 168.786C318.303 168.785 318.304 168.785 318.304 168.785C318.304 168.784 318.306 168.784 316.721 166.926C315.135 165.067 315.136 165.067 315.136 165.066C315.136 165.066 315.137 165.066 315.137 165.065C315.138 165.065 315.138 165.065 315.139 165.063C315.141 165.062 315.141 165.062 315.142 165.061C315.143 165.06 315.144 165.06 315.144 165.06C315.143 165.06 315.141 165.062 315.133 165.068C315.121 165.078 315.095 165.099 315.059 165.127C314.987 165.184 314.867 165.273 314.708 165.386C314.387 165.61 313.912 165.916 313.319 166.224C312.109 166.851 310.543 167.414 308.87 167.414V172.294ZM316.721 169.366H317.454V164.485H316.721V169.366ZM315.015 167.109L315.235 170.037L320.113 169.671L319.893 166.742L315.015 167.109ZM317.813 172.291L330.8 171.559L330.524 166.685L317.536 167.417L317.813 172.291ZM333.074 169.529L342.026 116.816L337.202 116.001L328.251 168.714L333.074 169.529ZM339.861 113.981L325.406 112.516L324.912 117.372L339.367 118.837L339.861 113.981ZM322.758 114.475L319.163 132.778L323.963 133.717L327.558 115.414L322.758 114.475ZM321.564 130.807H320.83V135.688H321.564V130.807ZM320.83 133.248C322.297 131.295 322.296 131.295 322.296 131.294C322.295 131.294 322.295 131.294 322.295 131.293C322.294 131.293 322.292 131.292 322.291 131.292C322.289 131.289 322.288 131.288 322.285 131.285C322.28 131.283 322.274 131.278 322.268 131.273C322.254 131.265 322.24 131.252 322.22 131.24C322.184 131.213 322.135 131.179 322.075 131.138C321.955 131.056 321.789 130.947 321.582 130.821C321.169 130.569 320.582 130.243 319.85 129.919C318.401 129.277 316.315 128.611 313.859 128.611V133.492C315.438 133.492 316.837 133.924 317.864 134.38C318.372 134.604 318.772 134.828 319.033 134.988C319.164 135.067 319.26 135.13 319.316 135.168C319.344 135.188 319.362 135.2 319.37 135.206C319.375 135.208 319.376 135.21 319.375 135.208C319.373 135.208 319.372 135.207 319.37 135.206C319.368 135.205 319.367 135.205 319.366 135.204C319.366 135.202 319.365 135.202 319.365 135.201C319.363 135.201 319.363 135.201 319.363 135.201C319.362 135.2 319.362 135.2 320.83 133.248ZM312.171 154.967C311.626 154.967 311.358 154.848 311.235 154.77C311.116 154.694 310.978 154.562 310.849 154.272C310.552 153.598 310.43 152.343 310.761 150.523L305.949 149.65C305.547 151.857 305.498 154.262 306.375 156.243C306.833 157.28 307.559 158.223 308.613 158.89C309.663 159.555 310.881 159.848 312.171 159.848V154.967ZM310.765 150.508C310.964 149.369 311.466 148.127 312.193 147.226C312.892 146.365 313.676 145.938 314.593 145.938V141.057C311.84 141.057 309.763 142.46 308.388 144.161C307.042 145.823 306.26 147.875 305.947 149.666L310.765 150.508ZM314.593 145.938C315.87 145.938 316.759 146.218 317.286 146.455C317.554 146.576 317.736 146.687 317.832 146.753C317.881 146.786 317.907 146.807 317.913 146.81C317.916 146.813 317.913 146.81 317.905 146.804C317.901 146.8 317.895 146.796 317.889 146.79C317.885 146.786 317.881 146.783 317.876 146.78C317.875 146.777 317.873 146.776 317.87 146.774C317.869 146.772 317.868 146.771 317.867 146.771C317.867 146.77 317.865 146.769 317.865 146.769C317.864 146.769 317.863 146.768 319.509 144.962C321.154 143.156 321.153 143.154 321.153 143.154C321.151 143.154 321.151 143.153 321.15 143.152C321.149 143.151 321.148 143.151 321.147 143.15C321.144 143.147 321.14 143.145 321.138 143.142C321.133 143.136 321.127 143.131 321.12 143.125C321.106 143.114 321.092 143.101 321.074 143.086C321.041 143.058 321.001 143.025 320.953 142.987C320.857 142.91 320.732 142.818 320.578 142.713C320.268 142.504 319.84 142.249 319.291 142.004C318.187 141.508 316.617 141.057 314.593 141.057V145.938ZM317.088 144.616L315.62 154.866L320.463 155.557L321.93 145.307L317.088 144.616ZM318.042 155.211C316.449 153.358 316.45 153.358 316.45 153.358L316.452 153.357C316.452 153.355 316.453 153.355 316.454 153.355C316.455 153.354 316.455 153.353 316.457 153.352C316.459 153.351 316.46 153.349 316.46 153.349C316.463 153.348 316.461 153.348 316.459 153.351C316.453 153.355 316.437 153.368 316.414 153.386C316.367 153.423 316.287 153.484 316.178 153.56C315.958 153.717 315.626 153.93 315.213 154.146C314.364 154.588 313.293 154.967 312.171 154.967V159.848C314.351 159.848 316.216 159.13 317.475 158.473C318.117 158.14 318.635 157.804 318.999 157.548C319.181 157.42 319.328 157.309 319.434 157.225C319.488 157.183 319.531 157.149 319.564 157.121C319.581 157.108 319.595 157.097 319.607 157.087C319.612 157.082 319.618 157.077 319.622 157.073C319.624 157.072 319.626 157.07 319.628 157.069C319.629 157.067 319.63 157.067 319.63 157.066C319.631 157.066 319.631 157.065 319.631 157.065C319.633 157.065 319.633 157.065 318.042 155.211Z" fill="black"/>
<path d="M26.6601 265.641C21.5238 265.641 17.0397 264.583 13.2079 262.469C9.37601 260.435 6.40021 257.75 4.28047 254.415C2.24225 250.999 1.22314 247.216 1.22314 243.067C1.22314 239.407 1.99766 235.828 3.54671 232.329C5.17728 228.75 7.37855 225.496 10.1505 222.568C13.004 219.639 16.3468 217.199 20.1786 215.246C24.0104 213.294 28.1683 212.033 32.6524 211.464C29.6358 208.861 27.3531 205.932 25.804 202.678C24.3365 199.424 23.6028 196.129 23.6028 192.794C23.6028 188.401 24.7034 184.293 26.9047 180.47C29.1059 176.565 32.1633 173.393 36.0766 170.952C40.0716 168.512 44.6372 167.292 49.7735 167.292C54.5022 167.292 58.0894 168.43 60.5352 170.708C63.0627 172.986 64.3263 176.281 64.3263 180.592C64.3263 183.683 63.7964 186.693 62.7365 189.622C61.6766 192.55 60.3722 194.991 58.8231 196.943C57.3556 198.814 55.8881 199.75 54.4206 199.75C53.3607 199.75 52.3416 199.302 51.3633 198.407C50.4665 197.431 49.6919 196.333 49.0397 195.113C51.9747 192.59 54.4206 189.988 56.3773 187.303C58.334 184.619 59.3123 181.812 59.3123 178.884C59.3123 176.525 58.6601 174.613 57.3556 173.149C56.0511 171.603 53.9721 170.83 51.1187 170.83C47.3683 170.83 44.2295 171.929 41.7021 174.125C39.1747 176.321 37.218 179.168 35.8321 182.666C34.5276 186.165 33.8754 189.988 33.8754 194.137C33.8754 196.007 34.0384 198.081 34.3645 200.36C34.7721 202.638 35.5875 204.915 36.8104 207.193C38.0333 209.389 39.827 211.464 42.1913 213.416C36.4842 214.31 31.5111 216.344 27.2715 219.517C23.032 222.69 19.7301 226.39 17.3658 230.621C15.083 234.851 13.9416 239.04 13.9416 243.189C13.9416 245.711 14.4308 248.314 15.4091 250.999C16.469 253.601 18.1811 255.798 20.5454 257.588C22.9097 259.458 26.0079 260.394 29.8397 260.394C34.1607 260.394 38.3186 259.336 42.3136 257.222C46.39 255.107 50.0588 252.301 53.32 248.802C56.6626 245.304 59.3939 241.359 61.5136 236.966C63.6333 232.492 64.9785 227.937 65.5493 223.3C63.9187 223.381 62.3696 223.503 60.9021 223.666C59.5162 223.828 57.9264 224.072 56.1327 224.398C54.339 224.724 51.9747 225.17 49.0397 225.74C49.2027 221.835 50.5888 219.233 53.1977 217.931C55.8065 216.629 58.9047 215.978 62.4919 215.978C65.1008 215.978 67.4652 216.141 69.5849 216.466C71.7862 216.792 73.9467 217.117 76.0665 217.443C78.1862 217.768 80.3874 217.971 82.6703 218.053C81.5289 220.411 80.469 221.835 79.4907 222.324C78.5123 222.812 77.5747 223.056 76.6779 223.056C75.2104 223.056 73.9467 223.096 72.8868 223.178C71.8269 223.178 70.7671 223.178 69.7072 223.178C69.1365 228.709 67.5875 234.038 65.0601 239.162C62.5327 244.206 59.2716 248.72 55.2766 252.707C51.3633 256.693 46.9607 259.824 42.069 262.103C37.1773 264.461 32.041 265.641 26.6601 265.641Z" fill="#40B3A2"/>
</svg>
