<svg width="60" height="60" viewBox="0 0 60 60" fill="none" xmlns="http://www.w3.org/2000/svg">
<g clip-path="url(#clip0_46_974)">
<path d="M59.207 0.293006C58.816 -0.0979941 58.184 -0.0979941 57.793 0.293006L54.086 4.00001H30.803L1.534 33.511C0.867 34.177 0.5 35.063 0.5 36.006C0.5 36.949 0.867 37.835 1.534 38.501L22 58.967C22.666 59.633 23.552 60 24.495 60C25.437 60 26.323 59.633 26.999 58.957L55.5 29.687V5.41401L59.207 1.70701C59.598 1.31601 59.598 0.684006 59.207 0.293006ZM30.79 9.69401L32.47 8.00001H32.887C33.439 8.00001 33.902 8.44701 33.902 9.00001C33.902 9.34401 33.735 9.64601 33.475 9.82701L32.21 11.102C32.015 11.299 31.757 11.398 31.5 11.398C31.246 11.398 30.991 11.301 30.796 11.108C30.403 10.72 30.4 10.087 30.79 9.69401ZM26.564 13.954L27.972 12.534C28.36 12.141 28.993 12.139 29.386 12.528C29.778 12.917 29.781 13.55 29.392 13.942L27.984 15.362C27.789 15.559 27.531 15.658 27.274 15.658C27.02 15.658 26.765 15.561 26.57 15.368C26.178 14.979 26.175 14.346 26.564 13.954ZM18.114 22.475L19.523 21.054C19.911 20.661 20.545 20.659 20.937 21.048C21.329 21.437 21.332 22.069 20.943 22.462L19.534 23.883C19.339 24.08 19.081 24.179 18.824 24.179C18.57 24.179 18.315 24.082 18.12 23.889C17.728 23.5 17.725 22.867 18.114 22.475ZM13.889 26.734L15.298 25.314C15.686 24.921 16.319 24.918 16.712 25.308C17.104 25.697 17.107 26.33 16.718 26.722L15.309 28.142C15.114 28.339 14.856 28.438 14.599 28.438C14.344 28.438 14.09 28.341 13.895 28.148C13.502 27.76 13.5 27.126 13.889 26.734ZM9.664 30.994L11.072 29.574C11.46 29.181 12.094 29.178 12.486 29.568C12.878 29.957 12.881 30.59 12.492 30.982L11.084 32.402C10.889 32.599 10.631 32.698 10.374 32.698C10.12 32.698 9.865 32.601 9.67 32.408C9.277 32.02 9.274 31.386 9.664 30.994ZM6.148 36.958C5.894 36.958 5.639 36.861 5.444 36.668C5.052 36.279 5.049 35.646 5.438 35.254L6.846 33.834C7.234 33.441 7.867 33.438 8.26 33.828C8.652 34.217 8.655 34.85 8.266 35.242L6.858 36.662C6.663 36.859 6.406 36.958 6.148 36.958ZM11.011 40.908C10.816 41.103 10.56 41.201 10.304 41.201C10.048 41.201 9.792 41.103 9.597 40.908L8.183 39.494C7.792 39.103 7.792 38.471 8.183 38.08C8.574 37.689 9.206 37.689 9.597 38.08L11.011 39.494C11.402 39.885 11.402 40.518 11.011 40.908ZM15.254 45.15C15.059 45.345 14.803 45.443 14.547 45.443C14.291 45.443 14.035 45.345 13.84 45.15L12.426 43.736C12.035 43.345 12.035 42.713 12.426 42.322C12.817 41.931 13.449 41.931 13.84 42.322L15.254 43.736C15.645 44.127 15.645 44.76 15.254 45.15ZM19.497 49.394C19.302 49.589 19.046 49.687 18.79 49.687C18.534 49.687 18.278 49.589 18.083 49.394L16.669 47.98C16.278 47.589 16.278 46.957 16.669 46.566C17.06 46.175 17.692 46.175 18.083 46.566L19.497 47.98C19.887 48.37 19.887 49.003 19.497 49.394ZM23.739 53.636C23.544 53.831 23.288 53.929 23.032 53.929C22.776 53.929 22.52 53.831 22.325 53.636L20.911 52.222C20.52 51.831 20.52 51.199 20.911 50.808C21.302 50.417 21.934 50.417 22.325 50.808L23.739 52.222C24.13 52.612 24.13 53.245 23.739 53.636ZM23.759 19.622C23.564 19.819 23.306 19.918 23.049 19.918C22.795 19.918 22.54 19.821 22.345 19.628C21.953 19.239 21.95 18.606 22.339 18.214L23.747 16.794C24.135 16.401 24.768 16.399 25.161 16.788C25.553 17.177 25.556 17.81 25.167 18.202L23.759 19.622ZM27.954 52.243L26.559 53.676C26.363 53.877 26.103 53.979 25.843 53.979C25.592 53.979 25.34 53.884 25.145 53.696C24.749 53.31 24.741 52.677 25.126 52.282L26.521 50.849C26.906 50.453 27.54 50.446 27.935 50.829C28.331 51.215 28.339 51.848 27.954 52.243ZM32.14 47.945L30.744 49.378C30.548 49.579 30.288 49.68 30.028 49.68C29.777 49.68 29.525 49.585 29.33 49.397C28.934 49.011 28.926 48.378 29.311 47.982L30.707 46.549C31.092 46.153 31.726 46.147 32.121 46.53C32.517 46.916 32.525 47.549 32.14 47.945ZM36.325 43.646L34.929 45.079C34.733 45.28 34.473 45.381 34.213 45.381C33.962 45.381 33.71 45.286 33.515 45.098C33.119 44.712 33.111 44.079 33.496 43.683L34.892 42.25C35.277 41.854 35.91 41.849 36.306 42.231C36.702 42.617 36.71 43.25 36.325 43.646ZM35.917 9.00001C35.917 8.44701 36.365 8.00001 36.917 8.00001H38.917C39.469 8.00001 39.917 8.44701 39.917 9.00001C39.917 9.55301 39.469 10 38.917 10H36.917C36.365 10 35.917 9.55301 35.917 9.00001ZM40.511 39.347L39.116 40.78C38.92 40.981 38.66 41.083 38.4 41.083C38.149 41.083 37.897 40.988 37.702 40.8C37.306 40.414 37.298 39.781 37.683 39.386L39.078 37.953C39.464 37.557 40.097 37.55 40.492 37.933C40.888 38.318 40.896 38.951 40.511 39.347ZM39.5 15C39.5 12.243 41.743 10 44.5 10C47.257 10 49.5 12.243 49.5 15C49.5 17.757 47.257 20 44.5 20C41.743 20 39.5 17.757 39.5 15ZM44.697 35.049L43.301 36.482C43.105 36.683 42.845 36.784 42.585 36.784C42.334 36.784 42.082 36.689 41.887 36.501C41.491 36.115 41.483 35.482 41.868 35.086L43.264 33.653C43.65 33.257 44.283 33.251 44.678 33.634C45.074 34.02 45.082 34.652 44.697 35.049ZM48.882 30.75L47.486 32.183C47.29 32.384 47.03 32.485 46.77 32.485C46.519 32.485 46.267 32.39 46.072 32.202C45.676 31.816 45.668 31.183 46.053 30.787L47.449 29.354C47.834 28.958 48.468 28.952 48.863 29.335C49.259 29.721 49.268 30.354 48.882 30.75ZM51.5 27C51.5 27.553 51.052 28 50.5 28C49.948 28 49.5 27.553 49.5 27V25C49.5 24.447 49.948 24 50.5 24C51.052 24 51.5 24.447 51.5 25V27ZM51.5 21C51.5 21.553 51.052 22 50.5 22C49.948 22 49.5 21.553 49.5 21V19C49.5 18.447 49.948 18 50.5 18C51.052 18 51.5 18.447 51.5 19V21Z" fill="#40B3A2"/>
</g>
<defs>
<clipPath id="clip0_46_974">
<rect width="60" height="60" fill="white"/>
</clipPath>
</defs>
</svg>
