<svg width="37" height="37" viewBox="0 0 37 37" fill="none" xmlns="http://www.w3.org/2000/svg">
<g clip-path="url(#clip0_46_1184)">
<path d="M37 3.7V0H0V3.7H1.23333V33.3H0V37H37V33.3H35.7667V3.7H37ZM1.23333 1.23333H35.7667V2.46667H1.23333V1.23333ZM35.7667 35.7667H1.23333V34.5333H35.7667V35.7667ZM34.5333 33.3H2.46667V3.7H34.5333V33.3Z" fill="#40B3A2"/>
<path d="M17.8833 19.1166H3.69995V32.0666H17.8833V19.1166ZM16.65 30.8333H4.93328V20.35H16.65V30.8333Z" fill="#40B3A2"/>
<path d="M33.3 19.1166H19.1167V32.0666H33.3V19.1166ZM32.0667 30.8333H20.35V20.35H32.0667V30.8333Z" fill="#40B3A2"/>
<path d="M33.3 4.93335H19.1167V17.8833H33.3V4.93335ZM32.0667 16.65H20.35V6.16668H32.0667V16.65Z" fill="#40B3A2"/>
<path d="M17.8833 4.93335H3.69995V17.8833H17.8833V4.93335ZM16.65 16.65H4.93328V6.16668H16.65V16.65Z" fill="#40B3A2"/>
<path d="M6.16663 10.4834C6.32449 10.4834 6.48236 10.4229 6.60261 10.3027L9.06928 7.83601C9.31039 7.59489 9.31039 7.20516 9.06928 6.96404C8.82816 6.72292 8.43843 6.72292 8.19731 6.96404L5.73064 9.43071C5.48953 9.67182 5.48953 10.0616 5.73064 10.3027C5.85089 10.4229 6.00876 10.4834 6.16663 10.4834Z" fill="#40B3A2"/>
<path d="M6.16663 13.5667C6.32449 13.5667 6.48236 13.5062 6.60261 13.386L7.83594 12.1527C8.07706 11.9115 8.07706 11.5218 7.83594 11.2807C7.59483 11.0396 7.20509 11.0396 6.96398 11.2807L5.73064 12.514C5.48953 12.7551 5.48953 13.1449 5.73064 13.386C5.85089 13.5062 6.00876 13.5667 6.16663 13.5667Z" fill="#40B3A2"/>
<path d="M8.19543 10.0455C8.08443 10.1621 8.0166 10.323 8.0166 10.4833C8.0166 10.6437 8.08443 10.804 8.19543 10.9212C8.3126 11.0322 8.47293 11.1 8.63327 11.1C8.7936 11.1 8.95393 11.0322 9.0711 10.9212C9.1821 10.804 9.24993 10.6437 9.24993 10.4833C9.24993 10.323 9.1821 10.1621 9.0711 10.0455C8.83677 9.81735 8.42977 9.81735 8.19543 10.0455Z" fill="#40B3A2"/>
<path d="M9.43059 9.68601C9.55084 9.80626 9.70871 9.86669 9.86658 9.86669C10.0244 9.86669 10.1823 9.80626 10.3026 9.68601L12.1526 7.83601C12.3937 7.59489 12.3937 7.20516 12.1526 6.96404C11.9114 6.72292 11.5217 6.72292 11.2806 6.96404L9.43059 8.81404C9.18948 9.05516 9.18948 9.44489 9.43059 9.68601Z" fill="#40B3A2"/>
<path d="M21.5834 10.4834C21.7412 10.4834 21.8991 10.4229 22.0194 10.3027L24.486 7.83601C24.7271 7.59489 24.7271 7.20516 24.486 6.96404C24.2449 6.72292 23.8552 6.72292 23.6141 6.96404L21.1474 9.43071C20.9063 9.67182 20.9063 10.0616 21.1474 10.3027C21.2676 10.4229 21.4255 10.4834 21.5834 10.4834Z" fill="#40B3A2"/>
<path d="M21.5834 13.5667C21.7412 13.5667 21.8991 13.5062 22.0194 13.386L23.2527 12.1527C23.4938 11.9115 23.4938 11.5218 23.2527 11.2807C23.0116 11.0396 22.6218 11.0396 22.3807 11.2807L21.1474 12.514C20.9063 12.7551 20.9063 13.1449 21.1474 13.386C21.2676 13.5062 21.4255 13.5667 21.5834 13.5667Z" fill="#40B3A2"/>
<path d="M23.6122 10.0455C23.5012 10.1621 23.4333 10.323 23.4333 10.4833C23.4333 10.6437 23.5012 10.804 23.6122 10.9212C23.7294 11.0322 23.8897 11.1 24.05 11.1C24.2103 11.1 24.3707 11.0322 24.4878 10.9212C24.5988 10.804 24.6667 10.6437 24.6667 10.4833C24.6667 10.323 24.5988 10.1621 24.4878 10.0455C24.2535 9.81735 23.8465 9.81735 23.6122 10.0455Z" fill="#40B3A2"/>
<path d="M24.8473 9.68601C24.9676 9.80626 25.1255 9.86669 25.2833 9.86669C25.4412 9.86669 25.5991 9.80626 25.7193 9.68601L27.5693 7.83601C27.8104 7.59489 27.8104 7.20516 27.5693 6.96404C27.3282 6.72292 26.9385 6.72292 26.6973 6.96404L24.8473 8.81404C24.6062 9.05516 24.6062 9.44489 24.8473 9.68601Z" fill="#40B3A2"/>
<path d="M21.5834 24.6666C21.7412 24.6666 21.8991 24.6062 22.0194 24.486L24.486 22.0193C24.7271 21.7782 24.7271 21.3884 24.486 21.1473C24.2449 20.9062 23.8552 20.9062 23.6141 21.1473L21.1474 23.614C20.9063 23.8551 20.9063 24.2448 21.1474 24.486C21.2676 24.6062 21.4255 24.6666 21.5834 24.6666Z" fill="#40B3A2"/>
<path d="M21.5834 27.75C21.7412 27.75 21.8991 27.6896 22.0194 27.5693L23.2527 26.336C23.4938 26.0949 23.4938 25.7052 23.2527 25.464C23.0116 25.2229 22.6218 25.2229 22.3807 25.464L21.1474 26.6974C20.9063 26.9385 20.9063 27.3282 21.1474 27.5693C21.2676 27.6896 21.4255 27.75 21.5834 27.75Z" fill="#40B3A2"/>
<path d="M23.6122 24.2289C23.5012 24.3454 23.4333 24.5064 23.4333 24.6667C23.4333 24.8332 23.5012 24.9874 23.6122 25.1045C23.7294 25.2155 23.8897 25.2834 24.05 25.2834C24.2103 25.2834 24.3707 25.2155 24.4878 25.1045C24.5988 24.9874 24.6667 24.8332 24.6667 24.6667C24.6667 24.5064 24.5988 24.3454 24.4878 24.2289C24.2535 24.0007 23.8404 24.0007 23.6122 24.2289Z" fill="#40B3A2"/>
<path d="M24.8473 23.8693C24.9676 23.9895 25.1255 24.05 25.2833 24.05C25.4412 24.05 25.5991 23.9895 25.7193 23.8693L27.5693 22.0193C27.8104 21.7782 27.8104 21.3884 27.5693 21.1473C27.3282 20.9062 26.9385 20.9062 26.6973 21.1473L24.8473 22.9973C24.6062 23.2384 24.6062 23.6282 24.8473 23.8693Z" fill="#40B3A2"/>
<path d="M6.16663 24.6666C6.32449 24.6666 6.48236 24.6062 6.60261 24.486L9.06928 22.0193C9.31039 21.7782 9.31039 21.3884 9.06928 21.1473C8.82816 20.9062 8.43843 20.9062 8.19731 21.1473L5.73064 23.614C5.48953 23.8551 5.48953 24.2448 5.73064 24.486C5.85089 24.6062 6.00876 24.6666 6.16663 24.6666Z" fill="#40B3A2"/>
<path d="M6.16663 27.75C6.32449 27.75 6.48236 27.6896 6.60261 27.5693L7.83594 26.336C8.07706 26.0949 8.07706 25.7052 7.83594 25.464C7.59483 25.2229 7.20509 25.2229 6.96398 25.464L5.73064 26.6974C5.48953 26.9385 5.48953 27.3282 5.73064 27.5693C5.85089 27.6896 6.00876 27.75 6.16663 27.75Z" fill="#40B3A2"/>
<path d="M8.19543 24.2289C8.08443 24.3454 8.0166 24.5064 8.0166 24.6667C8.0166 24.8332 8.08443 24.9874 8.19543 25.1045C8.3126 25.2155 8.47293 25.2834 8.63327 25.2834C8.7936 25.2834 8.95393 25.2155 9.0711 25.1045C9.1821 24.9874 9.24993 24.827 9.24993 24.6667C9.24993 24.5064 9.18827 24.3454 9.0711 24.2289C8.84293 24.0007 8.42977 24.0007 8.19543 24.2289Z" fill="#40B3A2"/>
<path d="M9.43059 23.8693C9.55084 23.9895 9.70871 24.05 9.86658 24.05C10.0244 24.05 10.1823 23.9895 10.3026 23.8693L12.1526 22.0193C12.3937 21.7782 12.3937 21.3884 12.1526 21.1473C11.9114 20.9062 11.5217 20.9062 11.2806 21.1473L9.43059 22.9973C9.18948 23.2384 9.18948 23.6282 9.43059 23.8693Z" fill="#40B3A2"/>
</g>
<defs>
<clipPath id="clip0_46_1184">
<rect width="37" height="37" fill="white"/>
</clipPath>
</defs>
</svg>
