<svg width="218" height="210" viewBox="0 0 218 210" fill="none" xmlns="http://www.w3.org/2000/svg">
<path d="M212.39 97.703C217.413 92.806 219.187 85.62 217.019 78.948C214.851 72.276 209.192 67.505 202.25 66.496L149.281 58.799C149.184 58.785 149.101 58.724 149.058 58.637L125.371 10.64C122.267 4.349 115.98 0.440002 108.964 0.440002C101.948 0.440002 95.6622 4.349 92.5582 10.64L68.8702 58.637C68.8272 58.724 68.7442 58.784 68.6472 58.799L15.6792 66.496C8.73719 67.505 3.07819 72.276 0.910195 78.948C-1.25781 85.62 0.516195 92.806 5.53919 97.703L43.8672 135.064C43.9372 135.132 43.9692 135.23 43.9522 135.326L34.9042 188.081C33.7182 194.995 36.5082 201.852 42.1832 205.975C47.8592 210.1 55.2422 210.632 61.4512 207.368L108.827 182.461C108.913 182.415 109.017 182.416 109.103 182.461L156.479 207.368C159.18 208.788 162.102 209.489 165.01 209.489C168.787 209.489 172.54 208.305 175.746 205.975C181.421 201.852 184.21 194.995 183.025 188.08L173.977 135.326C173.96 135.23 173.993 135.132 174.062 135.064L212.39 97.703ZM156.235 138.368L165.283 191.122C165.307 191.262 165.314 191.304 165.165 191.412C165.016 191.52 164.978 191.5 164.853 191.434L117.476 166.526C112.146 163.725 105.781 163.725 100.449 166.526L53.0732 191.433C52.9482 191.498 52.9102 191.519 52.7612 191.411C52.6122 191.303 52.6192 191.261 52.6432 191.122L61.6912 138.367C62.7092 132.431 60.7422 126.378 56.4292 122.173L18.1032 84.813C18.0022 84.714 17.9712 84.685 18.0282 84.51C18.0852 84.335 18.1272 84.329 18.2672 84.308L71.2352 76.611C77.1962 75.745 82.3462 72.004 85.0112 66.603L108.699 18.605C108.762 18.479 108.78 18.44 108.964 18.44C109.148 18.44 109.167 18.479 109.229 18.605L132.917 66.603C135.583 72.004 140.732 75.746 146.693 76.611L199.661 84.308C199.801 84.329 199.843 84.335 199.9 84.51C199.957 84.685 199.926 84.715 199.825 84.813L161.497 122.174C157.185 126.378 155.218 132.432 156.235 138.368Z" fill="white"/>
</svg>
