<svg width="32" height="32" viewBox="0 0 32 32" fill="none" xmlns="http://www.w3.org/2000/svg">
<path d="M30 1H5.11801C3.66701 1 2.33401 1.978 2.05801 3.402C1.68601 5.317 3.15001 7 5.00001 7V9C3.34601 9 2.00001 10.346 2.00001 12C2.00001 13.654 3.34601 15 5.00001 15V17C3.34601 17 2.00001 18.346 2.00001 20C2.00001 21.654 3.34601 23 5.00001 23V25C3.15001 25 1.68601 26.683 2.05801 28.598C2.33501 30.022 3.66701 31 5.11801 31H30C30.552 31 31 30.552 31 30V2C31 1.448 30.552 1 30 1ZM9.00001 4C9.00001 4.551 8.55101 5 8.00001 5H5.00001C4.44901 5 4.00001 4.551 4.00001 4C4.00001 3.449 4.44901 3 5.00001 3H8.00001C8.55101 3 9.00001 3.449 9.00001 4ZM8.00001 29H5.00001C4.44901 29 4.00001 28.551 4.00001 28C4.00001 27.449 4.44901 27 5.00001 27H8.00001C8.55101 27 9.00001 27.449 9.00001 28C9.00001 28.551 8.55101 29 8.00001 29ZM4.00001 20C4.00001 19.449 4.44901 19 5.00001 19H8.00001C8.55101 19 9.00001 19.449 9.00001 20C9.00001 20.551 8.55101 21 8.00001 21H5.00001C4.44901 21 4.00001 20.551 4.00001 20ZM4.00001 12C4.00001 11.449 4.44901 11 5.00001 11H8.00001C8.55101 11 9.00001 11.449 9.00001 12C9.00001 12.551 8.55101 13 8.00001 13H5.00001C4.44901 13 4.00001 12.551 4.00001 12ZM9.72301 29C9.89401 28.705 10 28.366 10 28C10 26.896 9.10401 26 8.00001 26H7.00001V22H8.00001C9.10401 22 10 21.104 10 20C10 18.896 9.10401 18 8.00001 18H7.00001V14H8.00001C9.10401 14 10 13.104 10 12C10 10.896 9.10401 10 8.00001 10H7.00001V6H8.00001C9.10401 6 10 5.104 10 4C10 3.634 9.89401 3.295 9.72301 3H29L29.001 29H9.72301ZM20.94 13.045C21.533 12.416 22 11.444 22 10C22 8.343 20.657 7 19 7C17.343 7 16 8.343 16 10C16 11.444 16.467 12.416 17.06 13.045C15.339 13.264 14 14.721 14 16.5V18H15V16.5C15 15.122 16.122 14 17.5 14H20.5C21.878 14 23 15.122 23 16.5V18H24V16.5C24 14.721 22.661 13.264 20.94 13.045ZM19 8C20.103 8 21 8.897 21 10C21 12.491 19.422 13 19 13C18.578 13 17 12.491 17 10C17 8.897 17.897 8 19 8ZM14 21H24V22H14V21ZM14 23H24V24H14V23Z" fill="white"/>
</svg>
